<?xml version="1.0" encoding="UTF-8" standalone="no"?>
<svg
   xmlns:dc="http://purl.org/dc/elements/1.1/"
   xmlns:cc="http://creativecommons.org/ns#"
   xmlns:rdf="http://www.w3.org/1999/02/22-rdf-syntax-ns#"
   xmlns:svg="http://www.w3.org/2000/svg"
   xmlns="http://www.w3.org/2000/svg"
   xmlns:sodipodi="http://sodipodi.sourceforge.net/DTD/sodipodi-0.dtd"
   xmlns:inkscape="http://www.inkscape.org/namespaces/inkscape"
   width="375"
   viewBox="0 0 375 375"
   height="375"
   version="1.0"
   id="svg241"
   sodipodi:docname="1.svg"
   inkscape:version="0.92.5 (2060ec1f9f, 2020-04-08)">
  <metadata
     id="metadata245">
    <rdf:RDF>
      <cc:Work
         rdf:about="">
        <dc:format>image/svg+xml</dc:format>
        <dc:type
           rdf:resource="http://purl.org/dc/dcmitype/StillImage" />
      </cc:Work>
    </rdf:RDF>
  </metadata>
  <sodipodi:namedview
     pagecolor="#ffffff"
     bordercolor="#666666"
     borderopacity="1"
     objecttolerance="10"
     gridtolerance="10"
     guidetolerance="10"
     inkscape:pageopacity="0"
     inkscape:pageshadow="2"
     inkscape:window-width="1366"
     inkscape:window-height="704"
     id="namedview243"
     showgrid="false"
     inkscape:zoom="0.45254834"
     inkscape:cx="-8.1473852"
     inkscape:cy="90.280911"
     inkscape:window-x="0"
     inkscape:window-y="0"
     inkscape:window-maximized="1"
     inkscape:current-layer="svg241" />
  <defs
     id="defs5">
    <clipPath
       id="a">
      <path
         d="M 90 114.5 L 285 114.5 L 285 278.75 L 90 278.75 Z M 90 114.5"
         id="path2" />
    </clipPath>
  </defs>
  <g
     clip-path="url(#a)"
     id="g15">
    <path
       d="M 112.066406 242.886719 C 112.328125 241.707031 112.605469 240.511719 112.902344 239.308594 C 109.6875 237.992188 105.421875 238.828125 102.140625 237.558594 C 99.085938 236.386719 96.246094 235.253906 93.878906 233.101562 C 93.828125 233.9375 93.753906 234.761719 93.542969 235.527344 C 92.84375 238.28125 96.34375 239.296875 98.332031 240.351562 C 101.894531 242.234375 105.875 244.242188 109.792969 245.414062 C 110.375 244.894531 111.082031 244.367188 111.910156 243.863281 C 111.949219 243.53125 112.003906 243.210938 112.066406 242.886719 Z M 113.589844 236.78125 C 113.851562 235.917969 114.152344 235.070312 114.476562 234.253906 C 111.339844 233.519531 108.644531 232.777344 105.394531 231.65625 C 102.648438 230.730469 97.757812 228.730469 96.5625 225.929688 C 96.273438 225.242188 96.082031 224.574219 95.925781 223.921875 C 94.402344 225.132812 93.933594 229.648438 95.167969 230.78125 C 97.351562 232.804688 99.996094 234.183594 102.832031 235.046875 C 106.148438 236.066406 110.285156 235.632812 113.589844 236.78125 Z M 139.945312 220.597656 C 136.378906 221.054688 132.753906 221.054688 129.042969 221.054688 C 123.957031 221.054688 119.167969 220.585938 114.230469 219.421875 C 109.023438 218.183594 105.394531 215.574219 100.910156 213.074219 C 100.683594 213.59375 100.480469 214.113281 100.273438 214.664062 C 99.21875 217.507812 96.378906 222.449219 99.5 225.132812 C 104.195312 229.160156 109.820312 230.5625 115.59375 231.839844 C 116.761719 229.699219 118.308594 227.804688 120.472656 226.449219 C 122.488281 225.183594 126.246094 224.925781 128.589844 224.367188 C 132.496094 223.429688 136.265625 222.136719 139.945312 220.597656 Z M 161.941406 192.660156 C 161.621094 192.179688 161.304688 191.699219 160.984375 191.230469 C 160.394531 190.40625 159.914062 189.480469 159.460938 188.523438 C 158.09375 189.273438 156.679688 189.988281 155.207031 190.640625 C 147.675781 193.941406 138.921875 194.394531 131.023438 196.441406 C 123.726562 198.335938 114.152344 200.03125 107.828125 204.269531 C 106.679688 205.035156 105.71875 205.871094 104.859375 206.785156 C 112.875 213.582031 123.894531 212.613281 133.675781 212.667969 C 142.703125 212.707031 152.511719 207.644531 160.605469 203.941406 C 159.707031 201.167969 159.277344 198.359375 160.257812 195.882812 C 160.710938 194.707031 161.28125 193.640625 161.941406 192.660156 Z M 162.214844 208.179688 C 161.976562 207.59375 161.722656 207.007812 161.488281 206.410156 C 159.136719 207.570312 156.84375 209.066406 154.386719 209.914062 C 150.433594 211.289062 146.4375 212.128906 142.597656 213.921875 C 138.542969 215.824219 133.921875 215.183594 129.59375 215.183594 C 120.238281 215.183594 110.765625 215.070312 103.222656 208.78125 C 102.78125 209.394531 102.402344 210.058594 102.035156 210.722656 C 105.136719 212.511719 107.804688 214.765625 111.292969 215.886719 C 113.472656 216.589844 115.632812 216.917969 117.867188 217.414062 C 122.953125 218.507812 127.875 218.484375 133.050781 218.445312 C 139.3125 218.417969 144.867188 217.414062 150.394531 214.492188 C 154.3125 212.433594 158.109375 209.800781 162.214844 208.179688 Z M 163.832031 212.128906 C 163.648438 211.625 163.441406 211.105469 163.21875 210.578125 C 160.308594 211.6875 157.589844 213.320312 154.855469 214.9375 C 157.863281 214 160.863281 213.097656 163.832031 212.128906 Z M 163.625 190.5 C 163.636719 190.480469 163.648438 190.457031 163.660156 190.445312 C 163.492188 189.0625 163.308594 187.683594 163.230469 186.28125 C 162.738281 186.613281 162.246094 186.910156 161.734375 187.226562 C 162.175781 188.164062 162.664062 189.089844 163.21875 189.910156 C 163.363281 190.109375 163.480469 190.304688 163.625 190.5 Z M 166.289062 187.96875 C 166.953125 187.433594 167.640625 186.910156 168.355469 186.414062 C 166.992188 185.851562 165.980469 185.394531 165.960938 185.28125 C 166.09375 186.15625 166.203125 187.066406 166.289062 187.96875 Z M 168.097656 196.21875 C 168.097656 196.066406 168.109375 195.847656 168.085938 195.648438 C 168.058594 195.636719 168.007812 195.613281 167.9375 195.59375 C 167.773438 195.566406 167.382812 195.554688 167.085938 195.59375 C 167.097656 195.6875 167.113281 195.765625 167.113281 195.847656 C 167.136719 195.921875 167.148438 196.011719 167.148438 196.105469 C 167.160156 196.183594 167.160156 196.277344 167.175781 196.351562 C 167.410156 196.339844 167.628906 196.316406 167.851562 196.277344 C 167.9375 196.25 168.019531 196.234375 168.097656 196.21875 Z M 171.3125 184.523438 C 172.027344 184.097656 172.753906 183.679688 173.472656 183.261719 C 172.976562 182.292969 172.496094 181.394531 172.355469 180.753906 C 172.234375 180.234375 172.101562 179.726562 171.988281 179.214844 C 170.710938 180.46875 169.386719 181.671875 167.996094 182.804688 C 169.113281 183.300781 170.21875 183.914062 171.3125 184.523438 Z M 178.339844 180.40625 C 178.195312 180.355469 178.0625 180.296875 177.933594 180.234375 C 176.460938 179.53125 175.5 178.757812 174.628906 177.902344 C 175.058594 179.164062 175.617188 180.457031 176.140625 181.722656 C 176.878906 181.292969 177.636719 180.859375 178.339844 180.40625 Z M 178.546875 188.789062 C 178.476562 188.753906 178.390625 188.371094 178.390625 188.347656 C 178.339844 188.214844 178.28125 188.101562 178.21875 187.992188 C 178.242188 188.03125 177.984375 187.96875 177.847656 187.992188 C 177.625 188.042969 177.429688 188.125 177.21875 188.1875 C 177.152344 188.371094 177.074219 188.511719 176.953125 188.644531 C 176.953125 188.828125 176.953125 189 176.96875 189.183594 C 176.96875 189.207031 176.96875 189.207031 176.96875 189.234375 C 177.269531 189.234375 177.566406 189.207031 177.851562 189.113281 C 177.972656 189.074219 178.453125 188.917969 178.546875 188.789062 Z M 180.96875 219.539062 C 181.066406 219.160156 181.199219 218.792969 181.339844 218.433594 C 178.699219 216.277344 176.328125 213.554688 174.984375 210.671875 C 173.707031 211.351562 172.417969 212.003906 171.117188 212.613281 C 164.753906 215.613281 157.785156 216.632812 151.183594 218.902344 C 142.925781 221.730469 135.105469 226.101562 126.46875 227.742188 C 125.53125 227.925781 124.699219 228.148438 123.945312 228.40625 C 125.816406 233.308594 134.378906 235.464844 139.035156 236.324219 C 144.632812 237.339844 151.195312 236.855469 156.78125 235.996094 C 165.5 234.664062 173.859375 231.746094 182.085938 228.515625 C 181.460938 225.601562 180.339844 221.871094 180.96875 219.539062 Z M 181.238281 178.398438 C 181.433594 178.25 181.625 178.09375 181.808594 177.953125 C 180.273438 176.332031 178.636719 174.730469 177.699219 172.878906 C 177.050781 173.683594 176.386719 174.496094 175.710938 175.269531 C 177.011719 176.609375 178.3125 177.78125 180.503906 178.226562 C 180.757812 178.277344 181.003906 178.347656 181.238281 178.398438 Z M 183.082031 233.171875 C 182.824219 232.503906 182.628906 231.828125 182.527344 231.117188 C 170.84375 235.683594 159.238281 239.308594 146.5 239.308594 C 138.710938 239.308594 125.160156 237.863281 121.632812 229.515625 C 120.851562 230.023438 120.1875 230.613281 119.574219 231.316406 C 125.988281 240.433594 141.746094 241.765625 151.707031 241.253906 C 158.785156 240.902344 166.617188 239.921875 173.15625 237.105469 C 176.203125 235.792969 179.742188 234.058594 183.082031 233.171875 Z M 185.359375 212.757812 C 184.519531 212.175781 183.773438 211.453125 183.082031 210.671875 C 182.445312 209.957031 179.582031 208.691406 178.269531 208.835938 C 178.074219 208.949219 177.863281 209.078125 177.65625 209.199219 C 177.542969 209.484375 177.644531 209.957031 178.144531 210.671875 C 179.363281 212.472656 180.910156 214.308594 182.652344 215.917969 C 183.414062 214.777344 184.335938 213.738281 185.359375 212.757812 Z M 185.023438 208.9375 C 184.675781 207.570312 184.285156 206.203125 184.359375 204.777344 C 183.59375 205.367188 182.800781 205.910156 182.003906 206.460938 C 183.34375 207.03125 184.140625 207.988281 185.023438 208.9375 Z M 183.683594 176.453125 C 184.699219 175.605469 185.6875 174.71875 186.621094 173.792969 C 184.347656 172.695312 182.222656 171.0625 179.886719 170 C 179.792969 170.125 179.703125 170.257812 179.609375 170.371094 C 179.847656 172.660156 181.792969 174.601562 183.683594 176.453125 Z M 188.574219 181.898438 C 188.574219 181.613281 188.613281 181.292969 188.546875 181 C 188.535156 180.9375 188.523438 180.835938 188.5 180.726562 C 188.144531 180.792969 187.347656 181.070312 186.914062 181.367188 C 186.855469 181.5 186.765625 181.613281 186.660156 181.722656 C 186.671875 181.878906 186.648438 182.203125 186.660156 182.203125 C 186.867188 182.464844 187.222656 182.988281 187.589844 183.027344 C 187.960938 183.027344 188.484375 183.140625 188.546875 182.722656 C 188.597656 182.464844 188.574219 182.164062 188.574219 181.898438 Z M 188.484375 171.796875 C 188.730469 171.523438 188.976562 171.257812 189.226562 170.972656 C 187.027344 169.347656 184.566406 167.375 183.109375 165.25 C 182.539062 166.148438 181.953125 167.035156 181.351562 167.910156 C 183.683594 169.175781 186.003906 170.960938 188.484375 171.796875 Z M 189.667969 222.757812 C 189.902344 222.59375 189.78125 222.449219 189.761719 222.003906 C 189.761719 221.769531 189.539062 221.5625 189.359375 221.429688 C 189.054688 221.195312 188.71875 221.066406 188.421875 221.105469 C 188.265625 221.363281 188.042969 221.574219 187.765625 221.71875 C 187.613281 222.066406 187.589844 222.398438 187.589844 222.800781 C 187.601562 222.878906 187.613281 222.953125 187.613281 223.011719 C 188.277344 223.46875 188.976562 223.246094 189.667969 222.757812 Z M 190.796875 169.003906 C 192.148438 167.257812 193.402344 165.382812 194.613281 163.359375 C 192.777344 163.152344 190.941406 162.757812 189.078125 162.105469 C 184.566406 160.542969 186.855469 165.703125 188.832031 167.464844 C 189.457031 168.027344 190.132812 168.523438 190.796875 169.003906 Z M 193.453125 207.175781 C 193.253906 206.796875 193.066406 206.4375 192.851562 206.070312 C 191.839844 204.257812 191.335938 201.546875 189.824219 200.148438 C 189.382812 200.539062 188.953125 200.945312 188.523438 201.335938 C 188.042969 201.773438 187.539062 202.191406 187.039062 202.625 C 186.964844 203.394531 186.914062 204.125 186.964844 204.75 C 187.089844 206.734375 187.765625 208.628906 188.03125 210.554688 C 189.773438 209.261719 191.644531 208.140625 193.453125 207.175781 Z M 196.117188 160.75 C 196.289062 160.449219 196.445312 160.148438 196.617188 159.851562 C 196.105469 159.605469 195.695312 159.394531 195.5 159.238281 C 193.832031 157.957031 192.269531 156.617188 190.683594 155.246094 C 190.199219 154.84375 189.761719 154.410156 189.359375 153.957031 C 189.027344 154.621094 188.730469 155.273438 188.390625 155.925781 C 187.972656 156.75 187.550781 157.554688 187.121094 158.363281 C 190.5 159.371094 193.128906 160.382812 196.117188 160.75 Z M 198.03125 177.636719 C 196.289062 178.410156 194.089844 177.953125 192.839844 176.441406 C 192.453125 175.972656 192.453125 175.421875 192.675781 174.976562 C 192.644531 174.902344 192.628906 174.835938 192.617188 174.753906 C 191.765625 174.914062 190.941406 174.9375 190.160156 174.863281 C 189.066406 176.097656 187.898438 177.207031 186.609375 178.054688 C 186.335938 178.25 186.035156 178.433594 185.75 178.617188 C 185.832031 178.707031 185.90625 178.796875 185.988281 178.890625 C 186.949219 178.371094 188.082031 178.082031 188.882812 178.136719 C 190.90625 178.265625 191.214844 180.492188 191.175781 182.101562 C 191.152344 183.027344 191.074219 183.964844 190.40625 184.679688 C 189.65625 185.503906 188.65625 185.617188 187.589844 185.636719 C 187.367188 185.636719 187.183594 185.578125 187.027344 185.515625 C 185.308594 185.085938 184.140625 183.585938 184.089844 181.847656 C 183.242188 181.695312 182.371094 181.539062 181.496094 181.34375 C 180 182.265625 178.507812 183.191406 177.023438 184.121094 C 177.152344 184.535156 177.246094 184.953125 177.320312 185.359375 C 177.371094 185.382812 177.429688 185.410156 177.480469 185.441406 C 178.792969 185.28125 180.070312 185.710938 180.675781 187.105469 C 181.054688 187.953125 181.445312 189.089844 180.871094 189.960938 C 180.328125 190.785156 179.507812 191.386719 178.558594 191.632812 C 177.644531 191.867188 176.570312 192.007812 175.683594 191.609375 C 174.863281 191.214844 174.523438 190.394531 174.410156 189.53125 C 174.371094 189.246094 174.351562 188.972656 174.371094 188.695312 C 173.574219 188.4375 172.550781 188.054688 171.476562 187.65625 C 169.804688 188.777344 168.148438 189.949219 166.535156 191.179688 C 166.574219 191.800781 166.605469 192.414062 166.625 193.039062 C 167.996094 192.792969 169.65625 193.105469 170.339844 194.257812 C 170.699219 194.878906 170.738281 195.699219 170.699219 196.417969 C 170.648438 197.277344 170.371094 197.992188 169.605469 198.449219 C 168.929688 198.855469 168.035156 198.855469 167.277344 198.960938 C 166.449219 199.0625 165.480469 199.011719 165.027344 198.191406 C 164.742188 197.671875 164.648438 197.132812 164.597656 196.613281 C 164.222656 196.054688 163.84375 195.492188 163.480469 194.933594 C 162.53125 197.132812 162.636719 199.601562 163.195312 202.105469 C 176.683594 196.785156 189.976562 190.09375 198.03125 177.636719 Z M 197.355469 175.039062 C 197.382812 175.015625 197.332031 174.210938 197.316406 174.066406 C 197.273438 173.710938 197.148438 173.214844 196.792969 173.050781 C 196.507812 172.90625 195.601562 172.957031 195.234375 173.296875 C 195.207031 173.398438 195.15625 173.519531 195.09375 173.621094 C 195.0625 173.917969 195.15625 174.25 195.246094 174.535156 C 195.316406 174.691406 195.351562 174.851562 195.441406 175.003906 C 195.453125 175.027344 195.46875 175.039062 195.480469 175.070312 C 195.695312 175.148438 195.871094 175.25 196.003906 175.394531 C 196.433594 175.457031 196.902344 175.355469 197.355469 175.039062 Z M 196.640625 205.585938 C 197.613281 205.132812 198.589844 204.632812 199.582031 204.113281 C 197.550781 203.199219 195.550781 202.207031 193.570312 201.179688 C 193.609375 201.402344 193.648438 201.609375 193.71875 201.804688 C 194.222656 203.175781 194.9375 204.644531 195.675781 206.042969 C 196.003906 205.886719 196.328125 205.726562 196.640625 205.585938 Z M 197.746094 157.671875 C 198.644531 155.863281 199.480469 154.007812 200.167969 152.105469 C 197.054688 151.464844 193.882812 150.277344 192.332031 149.71875 C 191.941406 149.574219 191.644531 149.496094 191.371094 149.445312 C 191.140625 150.003906 190.894531 150.554688 190.660156 151.097656 C 191.214844 152.023438 192.113281 153.042969 192.515625 153.410156 C 194.152344 154.894531 195.859375 156.433594 197.746094 157.671875 Z M 200.867188 214.519531 C 200.867188 214.503906 200.894531 214.503906 200.957031 214.503906 C 200.933594 214.503906 200.894531 214.503906 200.867188 214.503906 Z M 201.019531 216.894531 C 201.570312 216.527344 201.765625 215.234375 201.261719 214.777344 C 201.179688 214.714844 200.882812 214.585938 200.855469 214.53125 C 200.570312 215.082031 199.851562 215.46875 199.164062 215.257812 C 199.296875 215.980469 200.242188 217.234375 201.019531 216.894531 Z M 203.71875 167.558594 C 201.792969 167.375 200.75 165.886719 200.710938 163.929688 C 200.699219 163.734375 200.722656 163.558594 200.738281 163.359375 C 199.664062 163.476562 198.589844 163.527344 197.550781 163.527344 C 196.238281 165.71875 194.828125 168.289062 193.230469 170.726562 C 193.4375 170.886719 193.648438 171.054688 193.84375 171.222656 C 194.988281 170.347656 196.558594 170.035156 197.917969 170.703125 C 199.113281 171.273438 199.726562 172.488281 199.882812 173.765625 C 199.902344 173.988281 199.933594 174.222656 199.933594 174.445312 C 201.242188 172.171875 202.480469 169.867188 203.71875 167.558594 Z M 202.480469 202.535156 C 202.859375 202.3125 203.238281 202.089844 203.597656 201.871094 C 202.53125 200.28125 201.296875 198.375 200.75 196.625 C 200.476562 195.75 200.242188 194.902344 200.035156 194.074219 C 198.980469 193.730469 198.03125 193.421875 197.222656 193.140625 C 195.71875 194.726562 194.113281 196.234375 192.515625 197.707031 C 195.78125 199.40625 199.074219 201.117188 202.480469 202.535156 Z M 204.394531 164.632812 C 204.515625 164.558594 204.382812 164.191406 204.394531 163.996094 C 204.40625 163.476562 204.484375 162.472656 203.660156 162.746094 C 203.132812 162.917969 203.277344 163.734375 203.328125 164.191406 C 203.351562 164.457031 203.390625 164.652344 203.496094 164.765625 C 203.496094 164.765625 203.511719 164.765625 203.523438 164.765625 C 203.78125 164.753906 204.171875 164.78125 204.394531 164.632812 Z M 204.734375 149.914062 C 204.765625 149.863281 204.8125 149.820312 204.847656 149.769531 C 204.785156 149.585938 204.40625 149.191406 203.679688 148.488281 C 203.597656 148.871094 203.511719 149.238281 203.429688 149.609375 C 204.066406 149.78125 204.527344 149.914062 204.734375 149.914062 Z M 205.839844 200.476562 C 207.527344 199.378906 209.171875 198.175781 210.746094 196.898438 C 208.152344 196.402344 205.425781 195.6875 202.933594 194.960938 C 203.558594 196.757812 204.445312 198.492188 205.527344 200.070312 C 205.621094 200.199219 205.722656 200.332031 205.839844 200.476562 Z M 208.722656 152.9375 C 208.722656 153.214844 208.878906 153.175781 208.710938 152.808594 C 208.386719 152.035156 208.273438 151.371094 207.476562 151.296875 C 207.230469 151.582031 206.945312 151.800781 206.605469 151.984375 C 206.53125 152.351562 206.484375 152.757812 206.714844 153.054688 C 207.1875 153.707031 207.984375 153.683594 208.722656 153.574219 C 208.722656 153.367188 208.722656 153.15625 208.722656 152.9375 Z M 210.144531 156.417969 C 209.574219 156.652344 208.9375 156.667969 208.242188 156.566406 C 208.007812 156.539062 207.832031 156.394531 207.671875 156.222656 C 207.0625 156.210938 206.460938 156.097656 205.941406 155.765625 C 204.976562 155.171875 204.320312 154.359375 204.003906 153.265625 C 203.941406 153.042969 203.925781 152.796875 203.914062 152.550781 C 203.523438 152.550781 203.117188 152.523438 202.6875 152.5 C 202.554688 152.921875 202.417969 153.339844 202.257812 153.734375 C 201.53125 155.480469 200.800781 157.21875 199.996094 158.925781 C 200.933594 159.371094 201.804688 159.757812 202.417969 160.449219 C 202.808594 160.238281 203.289062 160.125 203.832031 160.097656 C 204.800781 160.0625 205.746094 160.542969 206.335938 161.296875 C 206.542969 161.570312 206.667969 161.847656 206.765625 162.132812 C 206.964844 161.777344 207.160156 161.417969 207.382812 161.0625 C 208.292969 159.59375 209.257812 158.039062 210.144531 156.417969 Z M 211.066406 207.542969 C 211.339844 207.203125 210.859375 206.214844 210.546875 206.042969 C 210.105469 205.796875 209.53125 205.738281 209.144531 206.03125 C 209.125 206.082031 209.125 206.132812 209.113281 206.1875 C 209.050781 206.421875 208.90625 206.601562 208.742188 206.757812 C 208.742188 206.890625 208.742188 207.03125 208.765625 207.164062 C 208.84375 207.214844 208.917969 207.242188 209 207.308594 C 209.519531 207.828125 210.472656 208.3125 211.066406 207.542969 Z M 214.394531 130.417969 C 213.757812 127.132812 212.652344 123.371094 210.09375 121.25 C 202.871094 115.25 199.371094 124.902344 197.796875 130.335938 C 196.238281 135.707031 194.570312 141.1875 192.542969 146.496094 C 195.21875 147.316406 198.019531 148.84375 200.425781 149.066406 C 200.671875 149.089844 200.90625 149.117188 201.128906 149.140625 C 201.152344 149.089844 201.164062 149.039062 201.179688 148.988281 C 201.753906 146.898438 201.976562 144.59375 202.75 142.574219 C 202.625 142.414062 202.519531 142.257812 202.480469 142.074219 C 200.894531 134.878906 207.96875 131.273438 214.394531 130.417969 Z M 211.546875 153.683594 C 213.320312 149.914062 214.476562 145.898438 213.757812 141.851562 C 213.746094 141.8125 213.757812 141.789062 213.757812 141.75 C 210.859375 142.765625 207.984375 143.460938 205.265625 143.265625 C 205.03125 143.757812 204.8125 144.277344 204.628906 144.828125 C 204.734375 145 204.800781 145.191406 204.824219 145.410156 C 204.875 146.027344 206.265625 147.617188 207.175781 148.6875 C 207.21875 148.6875 207.242188 148.671875 207.28125 148.671875 C 208.351562 148.671875 209.257812 148.921875 210.011719 149.707031 C 210.710938 150.433594 211.535156 151.933594 211.535156 152.9375 C 211.535156 153.175781 211.546875 153.421875 211.546875 153.683594 Z M 215.085938 192.90625 C 214.996094 192.832031 214.921875 192.753906 214.824219 192.660156 C 211.742188 189.714844 207.578125 186.585938 205.828125 182.527344 C 204.535156 184.160156 203.21875 185.761719 202.023438 187.339844 C 201.898438 188.371094 201.886719 189.410156 201.960938 190.445312 C 203.25 190.824219 204.515625 191.304688 205.941406 191.933594 C 208.273438 192.921875 210.757812 194.125 213.320312 194.667969 C 213.929688 194.097656 214.515625 193.507812 215.085938 192.90625 Z M 214.230469 251.425781 C 218.753906 249.535156 223.113281 246.757812 227.613281 244.464844 C 225.195312 238.851562 214.164062 235.699219 209.160156 236.050781 C 204.238281 236.402344 199.503906 236.621094 194.765625 238.1875 C 192.097656 239.0625 189.957031 240.835938 187.132812 240.402344 C 186.660156 240.339844 186.375 239.898438 186.222656 239.492188 C 185.722656 238.1875 184.972656 236.902344 184.253906 235.597656 C 181.472656 236.375 178.9375 238.148438 176.113281 238.945312 C 172.628906 239.910156 169.265625 241.460938 165.675781 242.089844 C 158.746094 243.296875 151.808594 244.121094 144.757812 243.875 C 135.9375 243.578125 123.984375 240.980469 118.039062 233.613281 C 117.964844 233.949219 117.78125 234.277344 117.496094 234.5 C 117.273438 234.925781 117.054688 235.375 116.824219 235.84375 C 115.59375 238.503906 115.386719 240.878906 114.578125 243.578125 C 114.527344 243.742188 114.511719 243.898438 114.476562 244.058594 C 114.644531 244.449219 114.671875 244.894531 114.414062 245.253906 C 114.589844 246.640625 115.632812 247.59375 116.90625 248.765625 C 128.054688 259.082031 147.714844 259.265625 162.023438 261.3125 C 171.027344 262.601562 182.046875 262.550781 190.929688 260.773438 C 198.941406 259.15625 206.667969 254.578125 214.230469 251.425781 Z M 216.703125 191.109375 C 218.027344 189.519531 219.222656 187.835938 220.226562 186.035156 C 216.53125 185.503906 212.917969 184.40625 209.960938 181.980469 C 209.257812 181.449219 208.582031 180.875 207.933594 180.285156 C 208.464844 182.4375 209.398438 184.066406 211.222656 185.789062 C 213.054688 187.550781 215.046875 189.183594 216.703125 191.109375 Z M 217.859375 153.957031 C 216.664062 154.019531 215.242188 153.96875 214.460938 152.96875 C 213.839844 154.398438 213.132812 155.835938 212.40625 157.304688 C 208.855469 164.414062 205.007812 171.859375 200.585938 178.484375 C 196.066406 185.257812 191.539062 190.796875 184.226562 194.578125 C 177.453125 198.089844 170.945312 201.761719 163.871094 204.605469 C 164.609375 206.929688 165.5625 209.210938 166.289062 211.300781 C 168.996094 210.34375 171.667969 209.304688 174.238281 208.0625 C 174.289062 207.84375 174.410156 207.621094 174.578125 207.476562 C 175.617188 206.589844 176.90625 206.082031 178.257812 205.9375 C 180.503906 204.605469 182.652344 203.066406 184.699219 201.269531 C 184.828125 200.171875 184.972656 199.089844 185.085938 198.019531 C 185.148438 197.488281 185.441406 196.847656 186.054688 196.757812 C 187.050781 196.613281 188.316406 196.613281 189.507812 196.835938 C 191.140625 195.296875 192.738281 193.71875 194.285156 192.117188 C 193.128906 191.933594 193.167969 189.542969 194.417969 189.542969 C 195.21875 189.542969 195.945312 189.570312 196.640625 189.59375 C 197.628906 188.5 198.589844 187.378906 199.53125 186.230469 C 199.695312 185.28125 199.945312 184.320312 200.320312 183.324219 C 200.671875 182.398438 201.703125 182.265625 202.367188 182.660156 C 203.238281 181.550781 204.136719 180.429688 205.007812 179.296875 C 204.964844 178.667969 204.949219 178.03125 205.046875 177.363281 C 205.121094 176.726562 205.398438 176.359375 205.992188 176.109375 C 206.125 176.058594 206.253906 176.007812 206.382812 175.957031 C 206.667969 175.824219 207.011719 175.902344 207.28125 176.046875 C 207.648438 175.476562 207.996094 174.902344 208.3125 174.324219 C 209.113281 172.796875 209.703125 171.207031 210.277344 169.617188 C 210.234375 169.332031 210.207031 169.03125 210.15625 168.707031 C 209.972656 167.242188 210.484375 166.640625 211.273438 166.527344 C 212.367188 163.90625 213.929688 160.738281 215.546875 158.484375 C 216.519531 157.109375 217.207031 155.546875 217.859375 153.957031 Z M 220.175781 148.894531 C 220.847656 147.75 221.410156 146.5625 221.925781 145.375 C 220.355469 145.726562 219.015625 146.601562 217.953125 147.917969 C 217.070312 148.972656 216.53125 150.078125 216.652344 151.480469 C 216.621094 151.195312 218.445312 151.257812 218.976562 151.28125 C 219.34375 150.460938 219.730469 149.65625 220.175781 148.894531 Z M 221.433594 183.585938 C 221.515625 183.386719 221.59375 183.210938 221.667969 183.015625 C 221.605469 182.957031 221.542969 182.90625 221.460938 182.855469 C 218.324219 180.390625 214.527344 178.066406 212.070312 174.851562 C 211.851562 174.546875 211.652344 174.261719 211.484375 173.988281 C 210.859375 175.28125 210.132812 176.527344 209.324219 177.746094 C 212.210938 180.222656 215.453125 182.671875 219.261719 183.285156 C 219.980469 183.425781 220.707031 183.519531 221.433594 183.585938 Z M 222.621094 180.457031 C 223.128906 178.917969 223.570312 177.378906 223.960938 175.839844 C 220.386719 174.792969 216.878906 172.578125 214.726562 170.6875 C 213.902344 169.953125 213.398438 169.617188 213.132812 169.554688 C 213.070312 169.707031 213.019531 169.878906 212.957031 170.035156 C 213.410156 171.328125 215.785156 174.679688 216.777344 175.710938 C 218.484375 177.511719 220.550781 179.035156 222.621094 180.457031 Z M 224.871094 137.835938 C 224.898438 137.773438 224.921875 137.691406 224.960938 137.601562 C 222.148438 138.386719 219.160156 139.6875 216.152344 140.863281 C 216.191406 140.953125 216.246094 141.035156 216.273438 141.160156 C 216.542969 142.75 216.59375 144.265625 216.46875 145.726562 C 218.175781 143.902344 220.460938 142.75 223.027344 142.613281 C 223.621094 141.023438 224.195312 139.414062 224.871094 137.835938 Z M 230.019531 243.285156 C 230.621094 243.011719 231.234375 242.753906 231.839844 242.507812 C 227.625 236.128906 218.496094 233.273438 211.324219 232.789062 C 203.289062 232.257812 194.378906 231.339844 187.132812 235.148438 C 188.195312 237.351562 188.105469 238.257812 191.816406 236.453125 C 196.574219 234.132812 203.84375 233 209.160156 233.441406 C 215.402344 233.960938 227.210938 236.351562 230.019531 243.285156 Z M 234.195312 176.207031 C 234.664062 175.996094 234.910156 175.085938 234.480469 174.71875 C 233.988281 174.300781 233.140625 174.820312 232.941406 175.292969 C 232.859375 175.488281 232.792969 175.722656 232.808594 175.945312 C 233.15625 176.28125 233.679688 176.414062 234.195312 176.207031 Z M 238.410156 260.671875 C 238.273438 259.390625 238.164062 258.101562 237.90625 258.183594 C 237.191406 258.378906 236.496094 258.601562 235.808594 258.835938 C 235.953125 258.871094 236.085938 258.921875 236.175781 258.988281 C 236.507812 259.207031 236.800781 259.5 237.140625 259.707031 C 237.601562 260.007812 237.996094 260.375 238.410156 260.671875 Z M 243.054688 150.226562 C 241.808594 147.578125 241.039062 144.917969 239.257812 142.378906 C 237.464844 139.832031 234.183594 136 231.359375 134.769531 C 228.5 133.523438 227.058594 139.035156 226.582031 140.535156 C 223.621094 149.820312 217.882812 157.738281 214.085938 166.554688 C 214.085938 166.75 214.0625 166.957031 213.964844 167.15625 C 213.964844 167.167969 213.964844 167.179688 213.953125 167.179688 C 215.105469 167.710938 216.152344 168.445312 216.558594 168.832031 C 218.902344 171.09375 221.617188 172.476562 224.625 173.078125 C 225.257812 170.175781 225.820312 167.257812 226.46875 164.273438 C 224.269531 163.671875 222.785156 162.082031 224.582031 158.976562 C 227.847656 153.304688 236.957031 151.542969 243.054688 150.226562 Z M 235.042969 126.554688 C 237.515625 125.867188 241.128906 125.300781 244.269531 124.195312 C 239.972656 122.242188 234.445312 122.65625 229.96875 122.761719 C 224.675781 122.875 220.707031 124.585938 215.980469 126.296875 C 216.429688 127.601562 216.753906 128.917969 217 130.222656 C 217.132812 130.210938 217.269531 130.210938 217.402344 130.210938 C 223.375 130.210938 229.34375 128.160156 235.042969 126.554688 Z M 240.78125 161.023438 C 240.546875 161.085938 240.3125 161.167969 240.078125 161.234375 C 236.210938 162.339844 233.289062 164.347656 229.320312 164.546875 C 229.242188 164.546875 229.148438 164.546875 229.074219 164.546875 C 228.851562 165.539062 228.644531 166.527344 228.449219 167.515625 C 228.460938 167.574219 228.5 167.609375 228.511719 167.675781 C 228.902344 169.277344 231.164062 170.765625 232.414062 172.355469 C 232.75 172.226562 233.089844 172.109375 233.484375 172.082031 C 234.457031 171.992188 235.632812 172.070312 236.320312 172.878906 C 237.929688 174.753906 237.398438 177.648438 235.09375 178.632812 C 234.195312 179.003906 233.222656 178.96875 232.339844 178.65625 C 232.3125 178.65625 232.289062 178.667969 232.246094 178.667969 C 231.164062 178.667969 230.582031 177.953125 230.347656 177.035156 C 230.191406 176.777344 230.078125 176.492188 229.984375 176.191406 C 228.902344 176.464844 227.757812 176.503906 226.570312 176.371094 C 226.101562 178.316406 225.574219 180.207031 224.921875 182.058594 C 225.699219 182.648438 226.367188 183.3125 226.703125 184.1875 C 227.316406 183.902344 227.980469 183.742188 228.617188 183.886719 C 231.140625 184.472656 232.105469 187.796875 231.234375 190 C 231.207031 190.050781 231.164062 190.09375 231.140625 190.144531 C 231.125 190.195312 231.113281 190.246094 231.101562 190.304688 C 229.433594 194.085938 223.867188 191.304688 224.089844 187.808594 C 224.132812 187.351562 224.234375 186.882812 224.417969 186.441406 C 223.988281 186.414062 223.542969 186.390625 223.101562 186.351562 C 221.875 188.816406 220.316406 191.132812 218.273438 193.289062 C 218.523438 193.742188 218.730469 194.226562 218.863281 194.695312 C 219.785156 194.359375 220.917969 194.085938 221.800781 194.59375 C 222.660156 195.085938 223.140625 195.972656 223.28125 196.941406 C 223.425781 197.917969 223.4375 199.078125 222.855469 199.949219 C 222.332031 200.722656 221.371094 201.738281 220.417969 201.933594 C 218.925781 202.238281 217.832031 201.375 217.21875 200.171875 C 217.113281 200.097656 217.011719 200.007812 216.921875 199.875 C 216.507812 199.261719 216.246094 198.398438 216.203125 197.582031 C 215.515625 197.550781 214.761719 197.5 213.980469 197.410156 C 211.964844 199.195312 209.816406 200.933594 207.605469 202.496094 C 207.882812 202.808594 208.128906 203.136719 208.363281 203.472656 C 208.597656 203.371094 208.855469 203.289062 209.125 203.261719 C 210.183594 203.160156 211.222656 203.328125 212.097656 203.953125 C 213.65625 205.082031 214.394531 207.90625 212.917969 209.394531 C 212.109375 210.203125 211.117188 210.515625 209.984375 210.515625 C 209.519531 210.515625 209.113281 210.414062 208.742188 210.253906 C 208.582031 210.269531 208.425781 210.28125 208.273438 210.253906 C 206.839844 210.035156 206.050781 208.222656 206.113281 206.65625 C 204.976562 206.304688 203.871094 205.910156 202.769531 205.46875 C 202.367188 205.675781 201.976562 205.910156 201.570312 206.09375 C 200.308594 206.722656 198.671875 207.449219 196.914062 208.296875 C 197.613281 209.550781 198.386719 210.90625 199.347656 212.027344 C 200.96875 211.636719 202.859375 212.078125 203.660156 213.644531 C 204.527344 215.339844 204.1875 217.457031 202.832031 218.730469 C 202.714844 218.886719 202.574219 219.046875 202.335938 219.136719 C 202.113281 219.292969 201.898438 219.34375 201.703125 219.355469 C 200.011719 219.800781 198.347656 219.136719 197.355469 217.558594 C 196.558594 216.277344 196.3125 214.625 197.121094 213.433594 C 196.136719 212.238281 195.339844 210.855469 194.613281 209.445312 C 190.628906 211.535156 186.546875 214.21875 184.765625 217.632812 C 185.441406 218.132812 186.140625 218.566406 186.855469 218.953125 C 188.300781 218.117188 190.222656 218.457031 191.398438 219.761719 C 192.675781 221.195312 192.910156 223.652344 191.203125 224.859375 C 190.449219 225.378906 189.1875 226.019531 188.238281 225.945312 C 187.640625 225.90625 187.144531 225.746094 186.671875 225.488281 C 186.402344 225.460938 186.140625 225.367188 185.90625 225.132812 C 185.542969 224.757812 185.179688 224.316406 185.035156 223.789062 C 184.898438 223.285156 184.984375 222.667969 184.984375 222.148438 C 184.984375 221.796875 185.074219 221.414062 185.207031 221.054688 C 184.777344 220.820312 184.347656 220.554688 183.917969 220.292969 C 183.824219 220.945312 183.824219 221.625 183.929688 222.347656 C 184.164062 223.910156 184.320312 225.746094 184.566406 227.570312 C 184.6875 227.558594 184.800781 227.535156 184.898438 227.546875 C 191.316406 225.511719 197.824219 222.199219 203.769531 219.121094 C 207.125 217.386719 210.035156 214.972656 213.277344 213.03125 C 216.570312 211.066406 220.070312 209.132812 222.710938 206.289062 C 233.484375 194.695312 240.484375 176.464844 240.78125 161.023438 Z M 247.207031 122.851562 C 248.039062 122.355469 248.753906 121.785156 249.328125 121.117188 C 245.140625 117.765625 238.507812 117.167969 233.570312 117.167969 C 226.101562 117.167969 219.910156 117.652344 213.277344 120.988281 C 213.953125 121.875 214.527344 122.851562 215.007812 123.882812 C 221.054688 121.761719 225.625 120.101562 232.339844 120.179688 C 237.304688 120.234375 242.769531 119.929688 247.105469 122.773438 C 247.144531 122.800781 247.167969 122.824219 247.207031 122.851562 Z M 250.433594 132.960938 C 250.546875 132.320312 250.730469 131.691406 250.925781 131.085938 C 246.320312 133.972656 240.660156 132.636719 235.683594 134.523438 C 236.289062 135.074219 236.863281 135.644531 237.398438 136.207031 C 240.976562 133.71875 245.738281 133.054688 250.433594 132.960938 Z M 250.976562 124.847656 C 250.863281 124.574219 250.730469 124.3125 250.617188 124.042969 C 249.355469 125.582031 246.167969 125.941406 244.527344 126.46875 C 239.625 128.019531 234.601562 129.109375 229.710938 130.628906 C 223.519531 132.542969 217.195312 132.710938 210.964844 134.289062 C 208.007812 134.574219 206.605469 136.691406 206.789062 140.628906 C 207.945312 140.210938 209.125 139.855469 210.328125 139.570312 C 212.234375 138.882812 214.148438 138.191406 216.078125 137.5625 C 219.3125 136.492188 222.648438 135.296875 225.988281 134.683594 C 226.457031 133.535156 227.03125 132.453125 227.683594 132.058594 C 229.488281 131.003906 231.480469 131.539062 233.335938 132.710938 C 235.472656 131.71875 237.917969 131.546875 240.273438 131.394531 C 242.847656 131.222656 247.035156 130.78125 249.234375 129.230469 C 248.792969 129.558594 250.042969 126.921875 250.976562 124.847656 Z M 258.027344 147.203125 C 258.078125 147.171875 261.050781 146.195312 263.625 144.917969 C 257.664062 141.1875 249.910156 142.207031 243.175781 143.265625 C 243.496094 143.757812 243.8125 144.253906 244.109375 144.765625 C 244.980469 146.285156 244.980469 148.117188 245.695312 149.667969 C 249.820312 148.894531 254.046875 148.488281 258.027344 147.203125 Z M 268.136719 138.648438 C 274.410156 143.429688 265.238281 147.578125 260.890625 149.003906 C 254.195312 151.195312 247.21875 151.777344 240.453125 153.683594 C 236.996094 154.660156 232.894531 155.496094 229.8125 157.425781 C 222.253906 162.183594 228.695312 162.144531 230.511719 162.019531 C 231.335938 161.492188 232.195312 161.050781 233.089844 160.6875 C 244.332031 156.691406 255.925781 153.632812 267.214844 149.925781 C 275.75 147.121094 274.707031 140.238281 268.011719 137.550781 C 264.289062 136.050781 260.621094 135.855469 256.640625 135.855469 C 251.046875 135.855469 244.136719 135.042969 239.167969 138.179688 C 239.308594 138.332031 239.441406 138.488281 239.574219 138.632812 C 240.21875 139.375 240.855469 140.148438 241.480469 140.925781 C 241.507812 140.925781 241.519531 140.902344 241.546875 140.902344 C 249.601562 139.621094 258.753906 138.140625 265.757812 143.207031 C 265.875 143.289062 265.964844 143.390625 266.039062 143.5 C 267.265625 142.597656 267.839844 141.65625 266.824219 140.890625 C 265.507812 139.882812 266.8125 137.613281 268.136719 138.648438 Z M 273.957031 192.351562 C 272.890625 186.15625 271.933594 179.867188 271.171875 173.671875 C 270.214844 166.046875 270.671875 159.128906 270.910156 151.492188 C 268.035156 152.757812 264.675781 153.4375 261.761719 154.476562 C 259.40625 155.3125 257.144531 156.433594 254.710938 156.996094 C 250.925781 157.882812 247.167969 159.09375 243.410156 160.238281 C 243.34375 169.265625 239.882812 177.574219 237.515625 186.847656 C 235.78125 193.628906 230.671875 201.324219 225.9375 206.421875 C 223.101562 209.46875 219.898438 212.003906 216.324219 214.136719 C 212.613281 216.355469 209.050781 219.628906 205.082031 221.328125 C 198.359375 224.183594 192.050781 228.054688 185.035156 230.207031 C 185.257812 231.144531 185.527344 232.035156 185.90625 232.839844 C 193.945312 228.605469 204.800781 228.875 213.59375 230.363281 C 221.1875 231.65625 230.058594 234.550781 234.355469 241.582031 C 234.808594 241.421875 235.289062 241.289062 235.757812 241.164062 C 239.675781 240.117188 243.578125 239.011719 247.476562 237.890625 C 245.53125 217.855469 251.566406 195.800781 273.957031 192.351562 Z M 274.632812 196.132812 C 274.539062 195.714844 274.449219 195.308594 274.378906 194.890625 C 253.53125 197.929688 248.433594 218.914062 250.015625 237.148438 C 250.71875 236.9375 251.433594 236.730469 252.132812 236.519531 C 249.234375 219.628906 255.484375 198.867188 274.632812 196.132812 Z M 278.933594 211.035156 C 278.796875 209.566406 278.542969 208.113281 278.074219 206.785156 C 277.152344 204.074219 276.097656 201.386719 275.296875 198.644531 C 257.707031 201.191406 252.019531 220.257812 254.636719 235.773438 C 255.261719 235.597656 255.898438 235.425781 256.507812 235.230469 C 259.785156 234.253906 263.0625 233.125 266.269531 231.96875 C 272.1875 229.839844 277.363281 228.800781 278.664062 222.003906 C 277.265625 222.566406 275.75 222.707031 274.277344 223.113281 C 272.414062 223.652344 270.445312 224.101562 268.515625 224.246094 C 265.863281 224.46875 263.53125 224.652344 262.546875 221.832031 C 261.441406 218.679688 262.269531 217.234375 265.210938 216.304688 C 269.867188 214.835938 274.757812 213.65625 278.933594 211.035156 Z M 278.972656 219.097656 C 279.023438 217.46875 279.09375 215.722656 279.082031 213.972656 C 277.203125 215.011719 275.238281 215.847656 273.199219 216.511719 C 272.1875 216.84375 264.535156 218.589844 264.675781 219.75 C 265.078125 222.851562 269.503906 221.636719 271.6875 221.105469 C 273.640625 220.625 276.648438 220.292969 278.324219 219.28125 C 278.542969 219.136719 278.765625 219.097656 278.972656 219.097656 Z M 253.882812 240.917969 C 259.90625 239.503906 280.863281 235.804688 280.171875 227.273438 C 277.894531 232.019531 271.574219 233.089844 266.96875 234.488281 C 262.597656 235.8125 258.25 237.210938 253.890625 238.578125 C 253.863281 238.578125 253.851562 238.59375 253.828125 238.59375 C 251.785156 239.230469 249.746094 239.859375 247.6875 240.460938 C 240.390625 242.609375 233.835938 245.230469 226.847656 248.113281 C 212.039062 254.230469 198.203125 264.308594 181.625 264.308594 C 167.371094 264.308594 153.84375 263.453125 139.867188 260.570312 C 132.976562 259.144531 114.746094 255.78125 112.167969 246.925781 C 105.003906 253.171875 123.050781 259.929688 127.769531 261.53125 C 137.503906 264.832031 147.621094 267.136719 157.9375 267.136719 C 168.648438 267.136719 180.183594 268.5 190.601562 265.878906 C 195.941406 264.546875 202.195312 263.464844 206.984375 260.582031 C 221.492188 251.84375 237.425781 244.75 253.882812 240.917969 Z M 281.082031 244.601562 C 281.90625 241.042969 282.746094 235.792969 281.613281 231.785156 C 277.4375 237.964844 264.550781 241.359375 258.875 242.519531 C 248.558594 244.628906 239.585938 248.464844 229.671875 251.867188 C 220.226562 255.128906 212.261719 262.761719 202.53125 265.238281 C 199.101562 266.125 195.695312 267.898438 192.136719 268.304688 C 186.363281 268.96875 181.445312 269.746094 175.566406 269.746094 C 161.878906 269.746094 149.078125 270.039062 135.824219 266.433594 C 130.921875 265.105469 114.917969 260.191406 109.308594 254.046875 C 109.09375 255.339844 108.898438 256.65625 108.726562 257.921875 C 108.410156 260.191406 110.425781 260.710938 112.082031 261.9375 C 116.207031 264.960938 121.640625 267.519531 126.535156 269.082031 C 128.222656 268.355469 129.980469 267.113281 131.894531 267.480469 C 132.652344 267.613281 133.328125 268.441406 133.550781 269.132812 C 133.738281 269.710938 134.011719 270.253906 134.179688 270.832031 C 136.355469 270.816406 138.722656 270.832031 140.652344 271.769531 C 142.089844 272.488281 143.429688 272.554688 144.890625 273.046875 C 146.414062 273.566406 146.34375 272.839844 147.308594 272.085938 C 149.855469 270.089844 152.839844 270.894531 153.375 274.3125 C 156.246094 274.832031 164.089844 276.125 164.457031 275.398438 C 165.328125 273.648438 166.386719 272.539062 168.515625 272.539062 C 171.3125 272.539062 170.429688 275.617188 172.726562 275.617188 C 176.089844 275.617188 179.433594 275.644531 182.773438 275.433594 C 183.132812 272.40625 185.257812 269.785156 188.757812 271.222656 C 189.273438 271.445312 189.824219 271.851562 190.121094 272.34375 C 190.761719 273.453125 190.394531 274.105469 192.113281 273.492188 C 194.519531 272.628906 197.019531 272.554688 199.382812 271.851562 C 199.347656 269.929688 199.554688 268.09375 201.792969 267.480469 C 203.199219 267.085938 205.046875 268.613281 205.03125 268.613281 C 212.757812 263.453125 222.699219 261.671875 231.050781 257.75 C 232.941406 256.863281 238.949219 253.171875 240.414062 256.261719 C 241.691406 258.949219 239.390625 260.945312 242.992188 260.152344 C 245.671875 259.550781 249.09375 259.289062 251.851562 258.441406 C 251.824219 257.726562 251.886719 257.164062 252.265625 256.484375 C 252.695312 255.691406 253.683594 255.691406 254.308594 256.210938 C 255.351562 257.085938 255.167969 257.699219 256.726562 257.1875 C 258.066406 256.746094 259.417969 256.300781 260.789062 255.953125 C 261.984375 255.636719 263.113281 255.414062 264.316406 255.230469 C 264.675781 255.167969 265.054688 255.15625 265.421875 255.179688 C 264.796875 252.714844 267.839844 252.335938 269.269531 254.046875 C 269.28125 254.058594 269.28125 254.085938 269.3125 254.097656 C 273.898438 253.734375 280.1875 248.480469 281.082031 244.601562 Z M 282.914062 228.222656 C 285.855469 233.125 285.101562 242.152344 282.914062 247.148438 C 281.457031 250.449219 279.871094 251.703125 276.589844 253.484375 C 273.976562 254.90625 271.246094 257.097656 268.136719 256.707031 C 268.125 256.707031 268.125 256.695312 268.113281 256.695312 C 268.035156 256.851562 267.917969 257.015625 267.722656 257.1875 C 266.433594 258.347656 264.105469 257.777344 262.507812 258.195312 C 260.398438 258.738281 258.003906 260.019531 255.855469 260.175781 C 255.351562 260.214844 254.972656 260.175781 254.660156 260.082031 C 254.597656 260.140625 254.554688 260.191406 254.476562 260.214844 C 252.046875 261.273438 249.457031 261.191406 246.910156 261.867188 C 244.957031 262.394531 242.992188 263.109375 240.988281 263.355469 C 240.792969 263.6875 240.453125 263.90625 239.945312 263.882812 C 238.386719 263.773438 236.96875 263.097656 235.839844 262.015625 C 234.910156 261.140625 233.703125 260.855469 232.882812 259.90625 C 231.949219 260.265625 231.011719 260.632812 230.058594 261 C 225.445312 262.785156 220.71875 264.351562 216.191406 266.359375 C 213.019531 267.777344 208.632812 268.640625 206.175781 271.101562 C 205.757812 271.507812 205.109375 271.597656 204.601562 271.300781 C 203.574219 270.363281 202.714844 270.792969 202 272.566406 C 202.023438 273.28125 201.570312 273.675781 201.039062 273.777344 C 200.882812 273.984375 200.699219 274.167969 200.402344 274.261719 C 198.570312 274.871094 196.640625 274.730469 194.808594 275.316406 C 193.230469 275.828125 191.839844 276.398438 190.179688 276.347656 C 189.382812 276.335938 188.460938 275.851562 188.167969 275.09375 C 187.777344 274.066406 185.648438 272.65625 185.371094 274.625 C 185.308594 275.238281 185.28125 275.867188 185.308594 276.472656 C 185.320312 277.195312 184.839844 277.589844 184.308594 277.691406 C 184.113281 277.859375 183.878906 277.976562 183.582031 278 C 179.53125 278.304688 175.5 278.160156 171.457031 278.253906 C 170.832031 278.265625 169.890625 277.875 169.425781 277.40625 C 169.359375 277.339844 167.175781 272.699219 166.828125 276.671875 C 166.707031 278.109375 165.46875 278.417969 164.273438 278.5 C 160.457031 278.734375 155.636719 277.457031 151.785156 276.644531 C 150.976562 276.472656 150.746094 275.769531 150.898438 275.164062 C 150.898438 275.136719 150.886719 275.125 150.886719 275.09375 C 150.515625 272.421875 148.441406 275.226562 147.632812 275.695312 C 146.917969 276.113281 145.839844 276.125 145.074219 275.867188 C 141.15625 274.523438 137.214844 273.453125 133.050781 273.441406 C 132.191406 273.441406 131.773438 272.738281 131.804688 272.070312 C 131.804688 272.058594 131.804688 272.058594 131.804688 272.039062 C 131.710938 271.402344 131.339844 270.9375 131.179688 270.335938 C 131.058594 269.855469 131.058594 269.957031 130.582031 270.128906 C 129.398438 270.558594 128.28125 271.160156 127.117188 271.652344 C 126.78125 271.792969 126.503906 271.78125 126.277344 271.679688 C 126.171875 271.679688 126.09375 271.691406 125.988281 271.652344 C 119.574219 269.613281 114.058594 266.226562 108.492188 262.601562 C 107.191406 261.753906 105.460938 260.621094 105.914062 258.808594 C 106.601562 256.09375 106.75 253.261719 107.410156 250.550781 C 107.242188 249.574219 107.410156 248.582031 107.972656 247.578125 C 103.101562 245.945312 98.578125 243.285156 94.023438 240.992188 C 89.183594 238.566406 91.046875 234.183594 91.421875 229.527344 C 91.445312 229.21875 91.578125 228.984375 91.75 228.789062 C 91.65625 225.660156 93.175781 221.746094 95.660156 221.15625 C 95.816406 216.316406 99.007812 211.933594 100.722656 207.152344 C 103.132812 200.445312 116.558594 198.089844 122.242188 196.316406 C 132.039062 193.261719 142.902344 192.609375 152.433594 188.929688 C 154.511719 188.136719 156.507812 187.195312 158.417969 186.15625 C 158.121094 185.464844 157.824219 184.769531 157.519531 184.109375 C 156.804688 182.609375 159.042969 181.277344 159.757812 182.804688 C 160.074219 183.457031 160.371094 184.148438 160.667969 184.851562 C 161.582031 184.300781 162.453125 183.71875 163.320312 183.117188 C 163.429688 182.476562 163.859375 181.824219 164.597656 181.878906 C 164.730469 181.894531 164.84375 181.898438 164.964844 181.929688 C 167.261719 180.183594 169.425781 178.25 171.457031 176.179688 C 171.390625 175.503906 171.363281 174.804688 171.425781 174.101562 C 171.535156 172.980469 172.773438 172.378906 173.65625 173.191406 C 173.757812 173.285156 173.847656 173.375 173.953125 173.476562 C 174.996094 172.292969 175.996094 171.0625 176.953125 169.800781 C 176.953125 169.148438 177.074219 168.472656 177.308594 167.75 C 177.53125 167.089844 178.207031 166.628906 178.90625 166.839844 C 178.957031 166.855469 179.015625 166.882812 179.066406 166.894531 C 180.058594 165.46875 180.992188 164.011719 181.902344 162.523438 C 181.707031 161.46875 181.832031 160.398438 182.445312 159.328125 C 183.03125 158.300781 183.722656 157.921875 184.53125 157.871094 C 185.648438 155.78125 186.683594 153.65625 187.652344 151.503906 C 187.0625 150.289062 186.765625 148.964844 186.9375 147.488281 C 186.988281 147.058594 187.144531 146.546875 187.589844 146.355469 C 188.328125 146.039062 189.136719 145.9375 189.96875 145.988281 C 192.113281 140.546875 193.855469 135.019531 195.289062 129.632812 C 196.78125 124.015625 199.085938 115.628906 206.8125 116.929688 C 208.621094 117.246094 210.132812 118 211.394531 119.03125 C 219.992188 114.515625 227.6875 114.558594 237.351562 114.558594 C 241.886719 114.558594 248.335938 116.566406 251.851562 119.84375 C 254.402344 120.691406 255.039062 124.535156 254.230469 127.246094 C 254.246094 127.367188 254.257812 127.46875 254.257812 127.601562 C 254.257812 129.53125 253.371094 131.148438 253.03125 132.960938 C 255.089844 132.996094 257.09375 133.105469 258.914062 133.167969 C 264.070312 133.351562 272.484375 134.398438 275.113281 139.546875 C 277.066406 143.367188 276.503906 147.4375 273.507812 149.964844 C 273.519531 150.042969 273.566406 150.109375 273.550781 150.199219 C 273.40625 155.46875 272.691406 160.6875 272.691406 165.953125 C 272.691406 170.125 274.046875 174.617188 274.695312 178.71875 C 276.109375 187.550781 277.089844 195.910156 280.015625 204.410156 C 281.941406 210.007812 282.359375 216.878906 281.328125 222.929688 C 282.566406 224.835938 283.035156 226.597656 282.902344 228.210938 C 282.914062 228.222656 282.914062 228.222656 282.914062 228.222656 Z M 230.019531 173.335938 C 229.109375 173.324219 228.289062 172.601562 227.601562 171.691406 C 227.5 172.253906 227.378906 172.8125 227.265625 173.375 C 228.164062 173.414062 229.074219 173.414062 230.019531 173.335938 Z M 228.105469 186.414062 C 228.105469 186.414062 228.082031 186.453125 227.898438 186.523438 C 227.210938 186.769531 226.53125 187.460938 226.714844 188.113281 C 226.875 188.644531 227.355469 189.246094 227.835938 189.410156 C 228.421875 189.609375 228.535156 189.609375 228.761719 189.183594 C 228.941406 188.632812 229.085938 187.707031 228.789062 187.238281 C 228.628906 186.972656 228.410156 186.699219 228.164062 186.492188 C 228.105469 186.453125 228.105469 186.429688 228.105469 186.414062 Z M 219.761719 199.367188 C 219.875 199.285156 220.007812 199.195312 220.121094 199.121094 C 220.71875 198.675781 220.867188 198.101562 220.734375 197.386719 C 220.671875 197.003906 220.707031 196.886719 220.417969 196.953125 C 220.03125 197.042969 219.652344 197.175781 219.261719 197.316406 C 219.222656 197.328125 219.171875 197.339844 219.121094 197.359375 C 219.183594 197.511719 219.234375 197.695312 219.234375 197.90625 C 219.25 198.296875 219.261719 198.703125 219.496094 199.027344 C 219.652344 199.246094 219.859375 199.246094 219.761719 199.367188"
       id="path13" />
  </g>
  <g
     id="g23">
    <g
       id="g21">
      <g
         id="g19">
        <path
           d="M -30.890625 -33.839844 C -30.707031 -34.320312 -30.753906 -34.757812 -31.015625 -35.171875 L -34.386719 -41.046875 C -34.863281 -41.804688 -35.425781 -41.703125 -35.730469 -40.898438 L -37.46875 -36.304688 C -37.671875 -35.777344 -37.578125 -35.320312 -37.261719 -34.910156 L -33.539062 -30.246094 C -33.066406 -29.621094 -32.449219 -29.726562 -32.171875 -30.460938 Z M -28.167969 -32.152344 C -29.746094 -32.011719 -30.144531 -30.957031 -29.046875 -29.832031 L -0.847656 -1.160156 C -0.292969 -0.609375 0.277344 -0.734375 0.539062 -1.425781 L 3.105469 -8.199219 C 3.304688 -8.730469 3.191406 -9.191406 2.777344 -9.558594 L -0.535156 -12.597656 L 4.597656 -26.152344 L 9.09375 -26.234375 C 9.644531 -26.238281 10.039062 -26.507812 10.238281 -27.039062 L 12.804688 -33.8125 C 13.074219 -34.527344 12.71875 -34.976562 11.949219 -34.953125 Z M -15.011719 -25.832031 L -2.503906 -26.058594 L -5.78125 -17.398438 Z M -15.011719 -25.832031"
           transform="translate(46.554 159.486)"
           id="path17" />
      </g>
    </g>
  </g>
  <g
     id="g31">
    <g
       id="g29">
      <g
         id="g27">
        <path
           d="M 6.304688 -9.375 C 6.675781 -9.925781 6.582031 -10.402344 6.03125 -10.773438 L -3.691406 -17.3125 L 3.191406 -27.542969 C 3.5625 -28.09375 3.46875 -28.570312 2.917969 -28.941406 L -1.238281 -31.738281 C -1.789062 -32.109375 -2.265625 -32.015625 -2.636719 -31.464844 L -9.519531 -21.234375 L -18.28125 -27.128906 L -10.222656 -39.113281 C -9.851562 -39.664062 -9.964844 -40.152344 -10.496094 -40.511719 L -14.980469 -43.527344 C -15.53125 -43.894531 -16.007812 -43.804688 -16.378906 -43.253906 L -28.660156 -24.992188 C -29.03125 -24.441406 -28.9375 -23.964844 -28.386719 -23.59375 L 1.25 -3.660156 C 1.796875 -3.289062 2.277344 -3.382812 2.644531 -3.933594 Z M 6.304688 -9.375"
           transform="translate(60.175 124.733)"
           id="path25" />
      </g>
    </g>
  </g>
  <g
     id="g39">
    <g
       id="g37">
      <g
         id="g35">
        <path
           d="M 9.898438 -28.382812 C 11.417969 -32.472656 10.25 -36.835938 6.449219 -40.878906 C 1.671875 -45.960938 -4.464844 -47.578125 -12.128906 -40.378906 L -22.382812 -30.738281 C -22.867188 -30.285156 -22.882812 -29.800781 -22.425781 -29.316406 L 2.03125 -3.289062 C 2.484375 -2.808594 2.972656 -2.792969 3.453125 -3.246094 L 8.269531 -7.773438 C 8.734375 -8.207031 8.769531 -8.710938 8.3125 -9.195312 L 0.390625 -17.625 L 4.578125 -21.5625 L 17.019531 -17.039062 C 17.550781 -16.832031 17.972656 -16.890625 18.382812 -17.277344 L 23.859375 -22.421875 C 24.398438 -22.929688 24.292969 -23.503906 23.554688 -23.789062 Z M -8.03125 -34.046875 C -6.332031 -35.644531 -3.144531 -38.605469 0.269531 -34.972656 C 3.886719 -31.125 0.394531 -27.808594 -0.964844 -26.53125 L -4.6875 -23.03125 L -11.753906 -30.550781 Z M -8.03125 -34.046875"
           transform="translate(76.178 100.256)"
           id="path33" />
      </g>
    </g>
  </g>
  <g
     id="g47">
    <g
       id="g45">
      <g
         id="g43">
        <path
           d="M 9.503906 -6.109375 C 10.0625 -6.464844 10.167969 -6.941406 9.808594 -7.5 L -9.496094 -37.546875 C -9.855469 -38.105469 -10.332031 -38.207031 -10.890625 -37.847656 L -16.40625 -34.304688 C -16.964844 -33.945312 -17.070312 -33.46875 -16.710938 -32.914062 L 2.597656 -2.867188 C 2.957031 -2.308594 3.429688 -2.203125 3.988281 -2.5625 Z M 9.503906 -6.109375"
           transform="translate(103.23 76.13)"
           id="path41" />
      </g>
    </g>
  </g>
  <g
     id="g55">
    <g
       id="g53">
      <g
         id="g51">
        <path
           d="M 21.171875 -7.304688 C 27.457031 -9.777344 31.6875 -14.1875 33.441406 -19.394531 C 33.636719 -19.972656 33.367188 -20.316406 32.710938 -20.503906 L 26.34375 -21.933594 C 25.730469 -22.085938 25.34375 -21.855469 25.136719 -21.246094 C 24.050781 -18.363281 21.707031 -15.9375 18.324219 -14.605469 C 12.015625 -12.121094 5.796875 -14.714844 3.125 -21.503906 C 0.441406 -28.3125 3.234375 -34.429688 9.523438 -36.902344 C 12.925781 -38.242188 16.273438 -38.058594 19.054688 -36.695312 C 19.621094 -36.390625 20.082031 -36.496094 20.40625 -37.015625 L 24.085938 -42.425781 C 24.421875 -42.980469 24.339844 -43.449219 23.75 -43.746094 C 18.882812 -46.316406 12.84375 -46.632812 6.652344 -44.195312 C -4.363281 -39.859375 -9.265625 -29.507812 -4.875 -18.355469 C -0.484375 -7.199219 10.132812 -2.960938 21.171875 -7.304688 Z M 21.171875 -7.304688"
           transform="translate(116.412 66.296)"
           id="path49" />
      </g>
    </g>
  </g>
  <g
     id="g63">
    <g
       id="g61">
      <g
         id="g59">
        <path
           d="M 15.730469 -39.746094 C 14.886719 -41.085938 13.765625 -40.957031 13.265625 -39.46875 L 0.644531 -1.285156 C 0.410156 -0.539062 0.78125 -0.0898438 1.511719 -0.171875 L 8.714844 -0.984375 C 9.273438 -1.046875 9.636719 -1.359375 9.773438 -1.894531 L 10.964844 -6.230469 L 25.363281 -7.859375 L 27.492188 -3.894531 C 27.746094 -3.40625 28.167969 -3.179688 28.726562 -3.246094 L 35.929688 -4.058594 C 36.683594 -4.144531 36.921875 -4.664062 36.550781 -5.339844 Z M 16.117188 -25.15625 L 22.035156 -14.132812 L 12.832031 -13.09375 Z M 16.117188 -25.15625"
           transform="translate(152.826 51.997)"
           id="path57" />
      </g>
    </g>
  </g>
  <g
     id="g71">
    <g
       id="g69">
      <g
         id="g67">
        <path
           d="M 18.003906 4.652344 C 28.371094 7.332031 32.359375 2.601562 33.636719 -2.34375 C 34.578125 -5.984375 33.683594 -9.691406 29.582031 -12.375 C 33.050781 -13.230469 35.613281 -15.6875 36.597656 -19.492188 C 37.933594 -24.675781 36.050781 -29.652344 27.011719 -31.988281 L 14.027344 -35.34375 C 13.386719 -35.507812 12.964844 -35.261719 12.800781 -34.621094 L 3.867188 -0.0429688 C 3.699219 0.601562 3.949219 1.019531 4.589844 1.1875 Z M 19.496094 -26.269531 L 25.015625 -24.84375 C 28.699219 -23.890625 29.355469 -22.097656 28.800781 -19.957031 C 28.230469 -17.746094 26.765625 -16.398438 23.460938 -17.253906 L 17.5625 -18.777344 Z M 15.914062 -12.402344 L 21.957031 -10.84375 C 25.453125 -9.941406 26.191406 -7.898438 25.578125 -5.519531 C 24.992188 -3.257812 23.519531 -1.585938 19.667969 -2.582031 L 13.769531 -4.105469 Z M 15.914062 -12.402344"
           transform="translate(207.03 49.24)"
           id="path65" />
      </g>
    </g>
  </g>
  <g
     id="g79">
    <g
       id="g77">
      <g
         id="g75">
        <path
           d="M 18.964844 11.964844 C 29.324219 17.894531 40.457031 15.210938 46.398438 4.832031 C 52.34375 -5.550781 49.023438 -16.507812 38.664062 -22.441406 C 28.324219 -28.359375 17.214844 -25.664062 11.269531 -15.285156 C 5.328125 -4.902344 8.625 6.042969 18.964844 11.964844 Z M 22.859375 5.164062 C 16.972656 1.792969 15.105469 -4.679688 18.730469 -11.011719 C 22.367188 -17.363281 28.867188 -19.023438 34.769531 -15.640625 C 40.675781 -12.261719 42.578125 -5.792969 38.9375 0.558594 C 35.300781 6.910156 28.761719 8.542969 22.859375 5.164062 Z M 22.859375 5.164062"
           transform="translate(239.68 56.821)"
           id="path73" />
      </g>
    </g>
  </g>
  <g
     id="g87">
    <g
       id="g85">
      <g
         id="g83">
        <path
           d="M 12.503906 12.085938 C 12.964844 12.527344 13.46875 12.539062 13.929688 12.058594 L 34.292969 -9.011719 L 39.945312 -3.550781 C 40.421875 -3.089844 40.925781 -3.113281 41.371094 -3.574219 L 45.125 -7.460938 C 45.585938 -7.9375 45.578125 -8.421875 45.101562 -8.882812 L 27.578125 -25.816406 C 27.117188 -26.261719 26.613281 -26.269531 26.152344 -25.792969 L 22.398438 -21.90625 C 21.957031 -21.445312 21.964844 -20.925781 22.421875 -20.480469 L 28.074219 -15.019531 L 7.710938 6.050781 C 7.25 6.527344 7.277344 7.03125 7.738281 7.476562 Z M 12.503906 12.085938"
           transform="translate(277.492 79.565)"
           id="path81" />
      </g>
    </g>
  </g>
  <g
     id="g95">
    <g
       id="g93">
      <g
         id="g91">
        <path
           d="M 42.585938 -3.710938 C 43.40625 -5.0625 42.789062 -6.007812 41.234375 -5.789062 L 1.4375 0.00390625 C 0.667969 0.125 0.429688 0.660156 0.828125 1.277344 L 4.777344 7.351562 C 5.085938 7.828125 5.527344 8.007812 6.066406 7.894531 L 10.476562 7.019531 L 18.375 19.171875 L 15.78125 22.847656 C 15.457031 23.292969 15.445312 23.769531 15.753906 24.242188 L 19.699219 30.320312 C 20.117188 30.957031 20.6875 30.9375 21.125 30.300781 Z M 29.707031 3.164062 L 22.496094 13.386719 L 17.449219 5.621094 Z M 29.707031 3.164062"
           transform="translate(298.004 98.598)"
           id="path89" />
      </g>
    </g>
  </g>
  <g
     id="g103">
    <g
       id="g101">
      <g
         id="g99">
        <path
           d="M 4.144531 14.53125 C 6.457031 21.035156 11.546875 26.632812 19.253906 23.894531 C 25.6875 21.605469 26.796875 15.84375 27.386719 10.757812 C 27.90625 5.910156 28.007812 2.09375 30.601562 1.171875 C 32.640625 0.445312 34.023438 2.066406 34.886719 4.496094 C 35.667969 6.695312 36.066406 9.578125 35.988281 12.292969 C 35.984375 12.945312 36.363281 13.277344 36.992188 13.289062 L 42.363281 13.074219 C 43.015625 13.078125 43.367188 12.746094 43.363281 12.070312 C 43.316406 8.488281 42.6875 4.59375 41.699219 1.816406 C 39.457031 -4.503906 34.441406 -9.445312 27.105469 -6.839844 C 21.503906 -4.851562 20.074219 -0.0664062 19.347656 4.933594 C 18.625 10.015625 18.6875 14.8125 15.957031 15.785156 C 13.78125 16.558594 12.085938 14.945312 11.050781 12.027344 C 10.164062 9.527344 9.683594 6.046875 9.8125 2.378906 C 9.816406 1.726562 9.519531 1.335938 8.84375 1.339844 L 3.136719 1.414062 C 2.453125 1.398438 2.132812 1.746094 2.113281 2.429688 C 2.203125 7.296875 2.921875 11.082031 4.144531 14.53125 Z M 4.144531 14.53125"
           transform="translate(318.018 130.018)"
           id="path97" />
      </g>
    </g>
  </g>
  <g
     id="g111">
    <g
       id="g109">
      <g
         id="g107">
        <path
           d="M 5.828125 12.167969 C 9.359375 19.535156 14.433594 19.660156 18.6875 17.621094 C 21.179688 16.429688 23.453125 13.804688 23.183594 10.332031 C 25.835938 11.988281 28.746094 11.757812 31.316406 10.527344 C 35.699219 8.425781 37.789062 4.40625 34.523438 -2.414062 L 30.765625 -10.253906 C 30.523438 -10.765625 30.132812 -10.902344 29.621094 -10.660156 L 2.148438 2.5 C 1.640625 2.746094 1.503906 3.136719 1.746094 3.644531 Z M 28.710938 -5.671875 L 31.011719 -0.871094 C 33.28125 3.871094 31.976562 5.84375 29.367188 7.09375 C 26.496094 8.46875 24.117188 8.308594 22.316406 4.546875 L 19.53125 -1.273438 Z M 16.355469 0.25 L 19.160156 6.105469 C 21.117188 10.1875 19.804688 12.535156 17.082031 13.839844 C 14.550781 15.050781 11.667969 15.480469 9.222656 10.378906 L 6.605469 4.917969 Z M 16.355469 0.25"
           transform="translate(25.138 254.58)"
           id="path105" />
      </g>
    </g>
  </g>
  <g
     id="g119">
    <g
       id="g117">
      <g
         id="g115">
        <path
           d="M 10.992188 14.972656 C 16.777344 22.28125 26.796875 23.839844 34.53125 17.714844 C 42.253906 11.605469 43.0625 1.484375 37.277344 -5.824219 C 31.492188 -13.136719 21.46875 -14.664062 13.75 -8.554688 C 6.011719 -2.429688 5.207031 7.660156 10.992188 14.972656 Z M 14.097656 12.515625 C 9.769531 7.042969 10.363281 -0.640625 16.296875 -5.332031 C 22.261719 -10.050781 29.832031 -8.855469 34.171875 -3.367188 C 38.5 2.101562 37.9375 9.761719 31.972656 14.480469 C 26.007812 19.199219 18.425781 17.984375 14.097656 12.515625 Z M 14.097656 12.515625"
           transform="translate(39.626 284.427)"
           id="path113" />
      </g>
    </g>
  </g>
  <g
     id="g127">
    <g
       id="g125">
      <g
         id="g123">
        <path
           d="M 14.445312 11.675781 C 21.898438 17.273438 31.984375 16.222656 37.90625 8.332031 C 43.816406 0.457031 42.019531 -9.539062 34.5625 -15.132812 C 27.105469 -20.730469 17.023438 -19.648438 11.113281 -11.773438 C 5.191406 -3.882812 6.988281 6.082031 14.445312 11.675781 Z M 16.820312 8.511719 C 11.242188 4.324219 9.859375 -3.261719 14.398438 -9.308594 C 18.964844 -15.394531 26.589844 -16.164062 32.1875 -11.964844 C 37.765625 -7.777344 39.171875 -0.230469 34.605469 5.855469 C 30.042969 11.9375 22.398438 12.695312 16.820312 8.511719 Z M 16.820312 8.511719"
           transform="translate(68.166 318.913)"
           id="path121" />
      </g>
    </g>
  </g>
  <g
     id="g135">
    <g
       id="g133">
      <g
         id="g131">
        <path
           d="M 10.804688 5.035156 C 11.316406 5.273438 11.707031 5.132812 11.945312 4.617188 L 23.554688 -20.296875 L 30.164062 -17.21875 C 30.675781 -16.976562 31.074219 -17.140625 31.304688 -17.632812 L 32.195312 -19.550781 C 32.4375 -20.0625 32.292969 -20.453125 31.78125 -20.691406 L 14.824219 -28.59375 C 14.3125 -28.832031 13.921875 -28.691406 13.683594 -28.175781 L 12.789062 -26.257812 C 12.558594 -25.765625 12.691406 -25.355469 13.203125 -25.117188 L 19.8125 -22.039062 L 8.207031 2.875 C 7.964844 3.386719 8.128906 3.785156 8.621094 4.015625 Z M 10.804688 5.035156"
           transform="translate(104.118 344.001)"
           id="path129" />
      </g>
    </g>
  </g>
  <g
     id="g143">
    <g
       id="g141">
      <g
         id="g139">
        <path
           d="M 11.566406 3.910156 C 16.714844 5.339844 21.785156 3.835938 23.289062 -1.570312 C 24.742188 -6.800781 20.882812 -10.4375 17.449219 -13.804688 C 14.539062 -16.636719 11.960938 -19.179688 12.867188 -22.429688 C 13.628906 -25.175781 16.277344 -25.632812 19.003906 -24.875 C 21.042969 -24.308594 23.195312 -23.058594 25.128906 -21.414062 C 25.566406 -21.03125 25.980469 -21.109375 26.347656 -21.488281 L 27.699219 -23.222656 C 28.046875 -23.625 28.039062 -24.0625 27.601562 -24.441406 C 25.183594 -26.378906 22.5 -27.839844 20.039062 -28.523438 C 15.214844 -29.863281 10.316406 -28.660156 8.8125 -23.25 C 7.414062 -18.226562 10.617188 -14.8125 13.886719 -11.554688 C 17.234375 -8.257812 20.136719 -5.644531 19.25 -2.457031 C 18.488281 0.289062 15.832031 1.246094 12.296875 0.265625 C 10.28125 -0.296875 7.941406 -1.425781 5.195312 -4.058594 C 4.761719 -4.460938 4.324219 -4.453125 3.953125 -4.054688 L 2.535156 -2.316406 C 2.164062 -1.921875 2.152344 -1.488281 2.585938 -1.085938 C 5.960938 1.789062 8.660156 3.101562 11.566406 3.910156 Z M 11.566406 3.910156"
           transform="translate(129.201 355.24)"
           id="path137" />
      </g>
    </g>
  </g>
  <g
     id="g151">
    <g
       id="g149">
      <g
         id="g147">
        <path
           d="M 24.914062 -7.828125 L 29.460938 -13.214844 C 29.847656 -13.644531 29.835938 -14.019531 29.449219 -14.410156 L 27.921875 -15.855469 C 27.511719 -16.242188 27.089844 -16.3125 26.707031 -15.84375 L 22.117188 -10.4375 L 10.890625 -20.898438 C 8.933594 -22.773438 8.460938 -23.828125 8.425781 -25.128906 C 8.359375 -27.578125 9.941406 -29.464844 12.601562 -29.539062 C 15.09375 -29.609375 16.875 -28.0625 16.9375 -25.84375 C 16.960938 -25.027344 16.671875 -24.097656 16.171875 -23.203125 C 15.929688 -22.777344 15.984375 -22.339844 16.351562 -22.011719 L 17.835938 -20.566406 C 18.222656 -20.179688 18.707031 -20.191406 19.046875 -20.683594 C 20.195312 -22.433594 20.710938 -24.269531 20.660156 -26.070312 C 20.550781 -30.113281 17.066406 -33.328125 12.542969 -33.203125 C 7.832031 -33.074219 4.488281 -29.652344 4.621094 -24.898438 C 4.675781 -22.78125 5.761719 -20.675781 6.859375 -19.574219 L 5.027344 -17.722656 C 2.988281 -15.652344 2.015625 -12.816406 2.09375 -10.011719 C 2.25 -4.273438 6.972656 0.480469 13.105469 0.3125 C 15.976562 0.234375 18.582031 -0.972656 21.234375 -3.683594 L 22.4375 -4.933594 L 27.167969 -0.492188 C 27.578125 -0.128906 28.015625 -0.140625 28.382812 -0.546875 L 29.808594 -2.074219 C 30.195312 -2.484375 30.183594 -2.921875 29.773438 -3.289062 Z M 18.542969 -6.335938 C 16.605469 -4.25 14.828125 -3.464844 13.003906 -3.417969 C 9.109375 -3.308594 6.007812 -6.304688 5.90625 -10.097656 C 5.855469 -11.9375 6.457031 -13.695312 7.761719 -15.070312 L 9.59375 -16.964844 L 19.640625 -7.558594 Z M 18.542969 -6.335938"
           transform="translate(175.675 365.11)"
           id="path145" />
      </g>
    </g>
  </g>
  <g
     id="g159">
    <g
       id="g157">
      <g
         id="g155">
        <path
           d="M 11.765625 -3.269531 C 16.824219 -4.980469 20.175781 -9.074219 18.375 -14.394531 C 16.640625 -19.535156 11.402344 -20.371094 6.667969 -21.226562 C 2.671875 -21.933594 -0.890625 -22.585938 -1.96875 -25.78125 C -2.882812 -28.480469 -0.949219 -30.351562 1.730469 -31.257812 C 3.734375 -31.933594 6.21875 -32.109375 8.742188 -31.835938 C 9.320312 -31.765625 9.617188 -32.066406 9.707031 -32.582031 L 9.851562 -34.773438 C 9.914062 -35.304688 9.660156 -35.664062 9.085938 -35.734375 C 5.996094 -35.972656 2.957031 -35.675781 0.535156 -34.855469 C -4.207031 -33.253906 -7.582031 -29.5 -5.785156 -24.183594 C -4.113281 -19.242188 0.453125 -18.21875 4.988281 -17.363281 C 9.609375 -16.515625 13.480469 -15.988281 14.539062 -12.851562 C 15.453125 -10.15625 13.792969 -7.867188 10.320312 -6.695312 C 8.335938 -6.023438 5.765625 -5.640625 2.015625 -6.277344 C 1.429688 -6.367188 1.074219 -6.113281 0.988281 -5.574219 L 0.792969 -3.34375 C 0.710938 -2.804688 0.945312 -2.441406 1.527344 -2.351562 C 5.933594 -1.875 8.90625 -2.304688 11.765625 -3.269531 Z M 11.765625 -3.269531"
           transform="translate(231.236 359.406)"
           id="path153" />
      </g>
    </g>
  </g>
  <g
     id="g167">
    <g
       id="g165">
      <g
         id="g163">
        <path
           d="M 5.585938 -3.191406 C 6.058594 -3.460938 6.183594 -3.871094 5.90625 -4.363281 L 1.25 -12.511719 L 14.894531 -20.304688 L 19.546875 -12.152344 C 19.828125 -11.664062 20.230469 -11.554688 20.71875 -11.835938 L 22.792969 -13.019531 C 23.285156 -13.300781 23.394531 -13.699219 23.113281 -14.191406 L 8.007812 -40.640625 C 7.726562 -41.132812 7.324219 -41.242188 6.835938 -40.960938 L 4.761719 -39.777344 C 4.269531 -39.496094 4.160156 -39.09375 4.441406 -38.605469 L 12.992188 -23.632812 L -0.652344 -15.839844 L -9.203125 -30.8125 C -9.484375 -31.304688 -9.902344 -31.402344 -10.375 -31.132812 L -12.449219 -29.945312 C -12.9375 -29.667969 -13.046875 -29.265625 -12.769531 -28.777344 L 2.339844 -2.324219 C 2.621094 -1.832031 3.019531 -1.726562 3.511719 -2.003906 Z M 5.585938 -3.191406"
           transform="translate(259.738 349.444)"
           id="path161" />
      </g>
    </g>
  </g>
  <g
     id="g175">
    <g
       id="g173">
      <g
         id="g171">
        <path
           d="M 13.980469 -12.226562 C 20.769531 -18.617188 21.464844 -28.730469 14.707031 -35.917969 C 7.960938 -43.089844 -2.195312 -43.03125 -8.984375 -36.644531 C -15.777344 -30.257812 -16.441406 -20.140625 -9.695312 -12.96875 C -2.933594 -5.78125 7.1875 -5.839844 13.980469 -12.226562 Z M 11.265625 -15.113281 C 6.183594 -10.332031 -1.523438 -10.273438 -6.703125 -15.78125 C -11.914062 -21.320312 -11.371094 -28.964844 -6.273438 -33.761719 C -1.191406 -38.539062 6.488281 -38.628906 11.699219 -33.089844 C 16.910156 -27.550781 16.347656 -19.890625 11.265625 -15.113281 Z M 11.265625 -15.113281"
           transform="translate(292.121 330.427)"
           id="path169" />
      </g>
    </g>
  </g>
  <g
     id="g183">
    <g
       id="g181">
      <g
         id="g179">
        <path
           d="M 11.167969 -16.117188 C 11.480469 -16.5625 11.417969 -16.988281 10.953125 -17.3125 L 9.214844 -18.515625 C 8.765625 -18.828125 8.328125 -18.746094 8.019531 -18.300781 L 1 -8.175781 L -4.300781 -11.851562 L 1.761719 -20.597656 C 2.070312 -21.046875 2.007812 -21.472656 1.542969 -21.792969 L -0.125 -22.949219 C -0.589844 -23.273438 -1.011719 -23.183594 -1.320312 -22.734375 L -7.382812 -13.988281 L -19.144531 -22.136719 L -12.125 -32.261719 C -11.816406 -32.710938 -11.894531 -33.148438 -12.34375 -33.457031 L -14.082031 -34.664062 C -14.546875 -34.984375 -14.96875 -34.894531 -15.277344 -34.445312 L -24.144531 -21.652344 C -24.464844 -21.1875 -24.390625 -20.78125 -23.925781 -20.457031 L 1.109375 -3.105469 C 1.574219 -2.785156 1.980469 -2.859375 2.304688 -3.324219 Z M 11.167969 -16.117188"
           transform="translate(323.04 299.292)"
           id="path177" />
      </g>
    </g>
  </g>
  <g
     id="g191">
    <g
       id="g189">
      <g
         id="g187">
        <path
           d="M 5.789062 -10.75 C 8.058594 -15.585938 7.421875 -20.839844 2.339844 -23.226562 C -2.570312 -25.53125 -6.800781 -22.332031 -10.695312 -19.511719 C -13.972656 -17.113281 -16.910156 -15 -19.964844 -16.433594 C -22.542969 -17.644531 -22.554688 -20.332031 -21.351562 -22.894531 C -20.453125 -24.808594 -18.859375 -26.722656 -16.914062 -28.351562 C -16.464844 -28.71875 -16.472656 -29.140625 -16.785156 -29.566406 L -18.265625 -31.1875 C -18.605469 -31.601562 -19.039062 -31.664062 -19.488281 -31.296875 C -21.800781 -29.234375 -23.6875 -26.835938 -24.773438 -24.523438 C -26.902344 -19.992188 -26.535156 -14.957031 -21.453125 -12.570312 C -16.730469 -10.355469 -12.832031 -12.945312 -9.074219 -15.625 C -5.261719 -18.371094 -2.199219 -20.796875 0.796875 -19.390625 C 3.375 -18.179688 3.875 -15.398438 2.316406 -12.082031 C 1.425781 -10.183594 -0.078125 -8.066406 -3.132812 -5.796875 C -3.601562 -5.441406 -3.667969 -5.007812 -3.335938 -4.574219 L -1.859375 -2.886719 C -1.53125 -2.453125 -1.109375 -2.371094 -0.640625 -2.730469 C 2.757812 -5.578125 4.507812 -8.019531 5.789062 -10.75 Z M 5.789062 -10.75"
           transform="translate(338.743 275.855)"
           id="path185" />
      </g>
    </g>
  </g>
  <g
     id="g199">
    <g
       id="g197">
      <g
         id="g195">
        <path
           d="M 17.515625 -9.234375 C 16.1875 -5.425781 12.234375 -3.636719 8.769531 -3.636719 C 6.117188 -3.636719 4.675781 -5.050781 4.675781 -7.011719 C 4.675781 -9.578125 6.230469 -11.023438 9.058594 -11.023438 C 10.039062 -10.445312 10.878906 -10.183594 11.597656 -10.183594 C 13.332031 -10.183594 14.28125 -11.597656 14.28125 -12.953125 C 14.28125 -14.136719 13.5625 -15.292969 11.945312 -15.351562 C 10.214844 -15.351562 9.320312 -16.53125 9.320312 -17.890625 C 9.320312 -19.765625 10.386719 -21.179688 12.292969 -21.179688 C 13.1875 -21.179688 14.050781 -20.542969 14.253906 -19.851562 C 14.65625 -18.410156 15.464844 -17.746094 16.476562 -17.746094 C 17.484375 -17.746094 18.464844 -18.4375 18.550781 -19.707031 C 18.726562 -22.765625 15.984375 -25.042969 12.378906 -25.042969 C 8.253906 -25.042969 4.675781 -21.753906 4.675781 -17.773438 C 4.675781 -16.5625 5.078125 -15.496094 5.800781 -14.628906 C 1.5 -13.820312 -0.0585938 -9.839844 -0.0585938 -6.78125 C -0.0585938 -2.886719 3.40625 0 8.683594 0 C 14.082031 0 19.332031 -3.085938 21.003906 -8.570312 C 21.089844 -8.800781 21.121094 -9.03125 21.121094 -9.234375 C 21.121094 -10.242188 20.3125 -10.792969 19.445312 -10.792969 C 18.640625 -10.792969 17.800781 -10.300781 17.515625 -9.234375 Z M 17.515625 -9.234375"
           transform="translate(3.507 209.176)"
           id="path193" />
      </g>
    </g>
  </g>
  <g
     id="g207">
    <g
       id="g205">
      <g
         id="g203">
        <path
           d="M 14.3125 -25.042969 C 11.453125 -25.042969 8.570312 -23.429688 7.617188 -20.515625 C 7.445312 -19.9375 7.328125 -19.390625 7.328125 -18.839844 C 7.328125 -16.332031 9.058594 -14.425781 10.703125 -12.40625 C 12.0625 -10.761719 13.332031 -9.40625 13.332031 -7.675781 C 13.332031 -5.335938 11.28125 -3.925781 9.40625 -3.925781 C 7.328125 -3.953125 5.683594 -5.164062 5.714844 -7.214844 C 5.742188 -7.359375 5.742188 -7.5 5.742188 -7.617188 C 5.742188 -9.261719 4.644531 -10.011719 3.519531 -10.011719 C 2.367188 -10.011719 1.183594 -9.175781 1.183594 -7.558594 C 1.039062 -2.972656 5.078125 0 9.433594 0 C 14.050781 0 18.234375 -3.636719 18.234375 -8.078125 C 18.234375 -11.078125 16.246094 -13.386719 14.484375 -15.351562 L 14.136719 -15.726562 C 13.042969 -16.90625 12.175781 -18.207031 12.175781 -19.273438 C 12.175781 -20.542969 13.648438 -21.089844 14.3125 -21.0625 C 15.207031 -21.003906 15.839844 -20.371094 16.332031 -19.390625 C 16.707031 -18.496094 17.457031 -18.089844 18.234375 -18.089844 C 19.273438 -18.089844 20.3125 -18.871094 20.3125 -20.195312 C 20.3125 -20.484375 20.285156 -20.746094 20.195312 -21.0625 C 19.535156 -23.3125 17.253906 -25.042969 14.3125 -25.042969 Z M 14.3125 -25.042969"
           transform="translate(22 209.176)"
           id="path201" />
      </g>
    </g>
  </g>
  <g
     id="g215">
    <g
       id="g213">
      <g
         id="g211">
        <path
           d="M 20.285156 -24.46875 L 6.289062 -24.46875 C 4.644531 -24.410156 3.953125 -23.488281 3.953125 -22.5625 C 3.953125 -21.699219 4.585938 -20.859375 5.625 -20.859375 L 10.097656 -20.859375 L 3.78125 -2.683594 C 3.664062 -2.394531 3.636719 -2.105469 3.636719 -1.875 C 3.636719 -0.664062 4.703125 0 5.800781 0 C 6.78125 0 7.761719 -0.519531 8.136719 -1.617188 L 14.859375 -20.859375 L 19.5625 -20.859375 C 21.179688 -20.859375 21.871094 -21.84375 21.871094 -22.765625 C 21.871094 -23.628906 21.265625 -24.46875 20.285156 -24.46875 Z M 20.285156 -24.46875"
           transform="translate(43.895 209.176)"
           id="path209" />
      </g>
    </g>
  </g>
  <g
     id="g223">
    <g
       id="g221">
      <g
         id="g219">
        <path
           d="M 9.695312 -26.832031 L 9.722656 -26.804688 C 9.261719 -27.4375 8.539062 -27.757812 7.761719 -27.757812 C 7.328125 -27.757812 6.867188 -27.640625 6.433594 -27.382812 C 5.714844 -26.949219 5.28125 -26.167969 5.28125 -25.363281 C 5.28125 -24.957031 5.394531 -24.554688 5.625 -24.179688 L 5.597656 -24.179688 C 5.828125 -23.804688 6.203125 -23.457031 6.550781 -23.285156 C 6.203125 -22.996094 5.65625 -22.765625 5.164062 -22.9375 C 4.039062 -23.3125 3.203125 -21.351562 4.644531 -20.917969 C 5.050781 -20.804688 5.453125 -20.832031 5.800781 -20.832031 C 7.847656 -20.832031 9.523438 -21.84375 10.128906 -23.515625 C 10.273438 -23.949219 10.328125 -24.4375 10.328125 -24.871094 C 10.328125 -25.621094 10.128906 -26.34375 9.695312 -26.832031 Z M 9.695312 -26.832031"
           transform="translate(320.679 209.176)"
           id="path217" />
      </g>
    </g>
  </g>
  <g
     id="g231">
    <g
       id="g229">
      <g
         id="g227">
        <path
           d="M 12.4375 -25.042969 C 9.722656 -25.042969 5.945312 -24.035156 4.585938 -20.253906 L 3.375 -16.878906 C 3.085938 -16.070312 2.941406 -15.261719 2.941406 -14.511719 C 2.941406 -10.992188 6.03125 -8.65625 9.261719 -8.65625 C 9.898438 -8.65625 10.589844 -8.742188 11.28125 -8.972656 L 10.445312 -6.722656 C 9.78125 -5.078125 8.253906 -4.269531 7.097656 -4.269531 C 6.089844 -4.269531 5.480469 -4.644531 5.25 -5.367188 C 4.875 -8.828125 0.835938 -8.425781 0.953125 -5.105469 C 1.066406 -1.761719 4.300781 0 7.328125 0 C 10.097656 0 13.53125 -1.472656 14.917969 -5.425781 L 18.871094 -16.675781 C 19.128906 -17.425781 19.273438 -18.265625 19.273438 -18.957031 C 19.273438 -22.5625 16.128906 -25.042969 12.4375 -25.042969 Z M 14.398438 -17.714844 L 13.070312 -13.992188 L 13.15625 -14.082031 C 12.464844 -12.925781 11.078125 -12.117188 9.550781 -12.292969 C 8.453125 -12.378906 7.472656 -13.242188 7.472656 -14.542969 C 7.472656 -14.886719 7.53125 -15.292969 7.703125 -15.726562 L 8.769531 -18.871094 C 9.320312 -20.515625 10.703125 -21.464844 12.175781 -21.4375 C 13.589844 -21.410156 14.65625 -20.457031 14.65625 -19.042969 C 14.65625 -18.667969 14.570312 -18.207031 14.398438 -17.714844 Z M 14.398438 -17.714844"
           transform="translate(326.998 209.176)"
           id="path225" />
      </g>
    </g>
  </g>
  <g
     id="g239">
    <g
       id="g237">
      <g
         id="g235">
        <path
           d="M 8.972656 -16.792969 L 10.328125 -20.714844 L 16.1875 -20.714844 C 19.390625 -20.714844 19.160156 -24.613281 17.253906 -24.613281 L 7.734375 -24.613281 C 7.472656 -24.613281 7.183594 -24.410156 7.125 -24.179688 L 4.558594 -16.707031 C 4.210938 -15.695312 4.066406 -15.0625 4.066406 -14.484375 C 4.066406 -13.90625 4.5 -12.578125 6.089844 -12.636719 L 9.289062 -13.242188 C 11.339844 -13.417969 12.667969 -12.203125 12.667969 -10.503906 C 12.667969 -9.203125 12.003906 -7.761719 11.597656 -6.605469 C 10.933594 -4.644531 9.089844 -4.039062 7.125 -4.039062 C 5.105469 -4.039062 4.125 -5.136719 4.269531 -6.492188 C 5.222656 -10.183594 -0.171875 -10.820312 0.0859375 -5.914062 C 0.257812 -2.539062 3.117188 0.0273438 7.214844 0.0273438 C 10.761719 0.0273438 14.742188 -1.960938 16.042969 -5.914062 C 17.167969 -9.464844 17.28125 -10.097656 17.28125 -10.734375 C 17.28125 -13.964844 14.742188 -16.9375 10.675781 -16.9375 C 10.300781 -16.9375 9.984375 -16.90625 9.636719 -16.878906 Z M 8.972656 -16.792969"
           transform="translate(346.644 209.176)"
           id="path233" />
      </g>
    </g>
  </g>
</svg>
