<svg xmlns="http://www.w3.org/2000/svg" width="375" viewBox="0 0 375 375" height="375" version="1.0"><defs><clipPath id="a"><path d="M 79 42.039062 L 296 42.039062 L 296 224.289062 L 79 224.289062 Z M 79 42.039062"/></clipPath></defs><path fill="#FFF" d="M-37.5 -37.5H412.5V412.5H-37.5z"/><path fill="#FFF" d="M-37.5 -37.5H412.5V412.5H-37.5z"/><g clip-path="url(#a)"><path d="M 103.457031 184.496094 C 103.746094 183.1875 104.054688 181.859375 104.382812 180.523438 C 100.804688 179.0625 96.054688 179.988281 92.402344 178.585938 C 88.996094 177.285156 85.839844 176.027344 83.199219 173.636719 C 83.144531 174.566406 83.058594 175.476562 82.828125 176.328125 C 82.046875 179.386719 85.945312 180.511719 88.160156 181.683594 C 92.128906 183.769531 96.5625 186 100.921875 187.300781 C 101.570312 186.722656 102.359375 186.140625 103.28125 185.578125 C 103.324219 185.210938 103.386719 184.851562 103.457031 184.496094 Z M 105.152344 177.71875 C 105.441406 176.765625 105.777344 175.824219 106.136719 174.914062 C 102.648438 174.101562 99.640625 173.277344 96.027344 172.035156 C 92.964844 171.007812 87.519531 168.789062 86.191406 165.679688 C 85.867188 164.914062 85.65625 164.175781 85.480469 163.453125 C 83.785156 164.796875 83.261719 169.808594 84.636719 171.066406 C 87.070312 173.304688 90.011719 174.839844 93.167969 175.792969 C 96.863281 176.925781 101.472656 176.449219 105.152344 177.71875 Z M 134.5 159.765625 C 130.53125 160.269531 126.492188 160.269531 122.363281 160.269531 C 116.699219 160.269531 111.363281 159.75 105.863281 158.457031 C 100.066406 157.085938 96.027344 154.191406 91.03125 151.414062 C 90.777344 151.992188 90.550781 152.566406 90.320312 153.179688 C 89.144531 156.335938 85.984375 161.816406 89.460938 164.796875 C 94.6875 169.265625 100.953125 170.820312 107.382812 172.238281 C 108.683594 169.863281 110.40625 167.761719 112.8125 166.257812 C 115.058594 164.851562 119.246094 164.5625 121.855469 163.945312 C 126.203125 162.90625 130.402344 161.472656 134.5 159.765625 Z M 158.996094 128.765625 C 158.636719 128.230469 158.285156 127.695312 157.925781 127.175781 C 157.273438 126.261719 156.738281 125.238281 156.230469 124.175781 C 154.710938 125.003906 153.136719 125.796875 151.496094 126.523438 C 143.109375 130.183594 133.359375 130.691406 124.5625 132.960938 C 116.4375 135.0625 105.777344 136.945312 98.734375 141.644531 C 97.453125 142.496094 96.386719 143.425781 95.429688 144.4375 C 104.355469 151.976562 116.628906 150.902344 127.519531 150.964844 C 137.574219 151.007812 148.492188 145.390625 157.503906 141.28125 C 156.507812 138.203125 156.027344 135.089844 157.117188 132.339844 C 157.625 131.035156 158.257812 129.855469 158.996094 128.765625 Z M 159.300781 145.984375 C 159.03125 145.335938 158.75 144.683594 158.492188 144.023438 C 155.875 145.308594 153.320312 146.964844 150.582031 147.90625 C 146.179688 149.433594 141.730469 150.367188 137.453125 152.355469 C 132.9375 154.464844 127.792969 153.753906 122.972656 153.753906 C 112.554688 153.753906 102.007812 153.628906 93.605469 146.648438 C 93.113281 147.332031 92.691406 148.070312 92.28125 148.808594 C 95.738281 150.789062 98.707031 153.292969 102.589844 154.535156 C 105.019531 155.316406 107.425781 155.679688 109.914062 156.230469 C 115.578125 157.445312 121.058594 157.417969 126.820312 157.375 C 133.792969 157.347656 139.980469 156.230469 146.136719 152.988281 C 150.496094 150.707031 154.726562 147.78125 159.300781 145.984375 Z M 161.101562 150.367188 C 160.898438 149.804688 160.664062 149.230469 160.417969 148.644531 C 157.175781 149.875 154.148438 151.6875 151.101562 153.480469 C 154.453125 152.441406 157.792969 151.441406 161.101562 150.367188 Z M 160.867188 126.367188 C 160.882812 126.347656 160.898438 126.320312 160.910156 126.304688 C 160.722656 124.773438 160.515625 123.242188 160.433594 121.6875 C 159.882812 122.054688 159.335938 122.382812 158.765625 122.734375 C 159.257812 123.773438 159.800781 124.800781 160.417969 125.714844 C 160.582031 125.933594 160.707031 126.148438 160.867188 126.367188 Z M 163.835938 123.558594 C 164.578125 122.964844 165.34375 122.382812 166.136719 121.835938 C 164.617188 121.210938 163.492188 120.703125 163.472656 120.578125 C 163.621094 121.546875 163.738281 122.558594 163.835938 123.558594 Z M 165.851562 132.714844 C 165.851562 132.546875 165.863281 132.300781 165.835938 132.082031 C 165.808594 132.066406 165.75 132.039062 165.675781 132.019531 C 165.492188 131.992188 165.054688 131.976562 164.722656 132.019531 C 164.738281 132.125 164.753906 132.207031 164.753906 132.300781 C 164.78125 132.382812 164.792969 132.480469 164.792969 132.585938 C 164.808594 132.671875 164.808594 132.777344 164.824219 132.863281 C 165.082031 132.847656 165.328125 132.820312 165.574219 132.777344 C 165.675781 132.75 165.765625 132.726562 165.851562 132.714844 Z M 169.429688 119.734375 C 170.226562 119.261719 171.035156 118.800781 171.835938 118.335938 C 171.28125 117.261719 170.746094 116.261719 170.59375 115.550781 C 170.457031 114.976562 170.3125 114.414062 170.183594 113.84375 C 168.761719 115.234375 167.285156 116.570312 165.738281 117.828125 C 166.984375 118.378906 168.214844 119.058594 169.429688 119.734375 Z M 177.253906 115.164062 C 177.09375 115.109375 176.945312 115.046875 176.804688 114.976562 C 175.164062 114.195312 174.097656 113.339844 173.125 112.390625 C 173.605469 113.789062 174.222656 115.222656 174.808594 116.628906 C 175.628906 116.148438 176.472656 115.671875 177.253906 115.164062 Z M 177.488281 124.46875 C 177.410156 124.429688 177.3125 124.007812 177.3125 123.980469 C 177.253906 123.832031 177.191406 123.703125 177.121094 123.585938 C 177.148438 123.628906 176.859375 123.558594 176.707031 123.585938 C 176.460938 123.640625 176.242188 123.734375 176.011719 123.804688 C 175.933594 124.007812 175.847656 124.160156 175.714844 124.308594 C 175.714844 124.511719 175.714844 124.703125 175.726562 124.90625 C 175.726562 124.933594 175.726562 124.933594 175.726562 124.960938 C 176.066406 124.960938 176.398438 124.933594 176.714844 124.828125 C 176.847656 124.785156 177.382812 124.609375 177.488281 124.46875 Z M 180.183594 158.589844 C 180.292969 158.167969 180.441406 157.761719 180.597656 157.359375 C 177.65625 154.972656 175.019531 151.949219 173.519531 148.75 C 172.097656 149.503906 170.664062 150.226562 169.214844 150.902344 C 162.128906 154.234375 154.367188 155.363281 147.015625 157.878906 C 137.820312 161.023438 129.109375 165.871094 119.492188 167.691406 C 118.449219 167.894531 117.519531 168.140625 116.683594 168.429688 C 118.765625 173.867188 128.300781 176.257812 133.484375 177.214844 C 139.71875 178.339844 147.027344 177.804688 153.25 176.847656 C 162.957031 175.371094 172.265625 172.132812 181.425781 168.546875 C 180.730469 165.316406 179.484375 161.175781 180.183594 158.589844 Z M 180.484375 112.9375 C 180.703125 112.777344 180.914062 112.601562 181.117188 112.445312 C 179.40625 110.648438 177.585938 108.867188 176.542969 106.816406 C 175.820312 107.710938 175.082031 108.609375 174.328125 109.464844 C 175.777344 110.957031 177.226562 112.257812 179.667969 112.75 C 179.949219 112.804688 180.222656 112.882812 180.484375 112.9375 Z M 182.539062 173.714844 C 182.25 172.976562 182.03125 172.222656 181.921875 171.4375 C 168.910156 176.503906 155.984375 180.523438 141.800781 180.523438 C 133.125 180.523438 118.035156 178.921875 114.109375 169.660156 C 113.234375 170.222656 112.496094 170.875 111.816406 171.65625 C 118.957031 181.773438 136.503906 183.25 147.597656 182.679688 C 155.480469 182.296875 164.203125 181.207031 171.484375 178.078125 C 174.878906 176.625 178.816406 174.699219 182.539062 173.714844 Z M 185.070312 151.0625 C 184.136719 150.417969 183.304688 149.617188 182.539062 148.75 C 181.828125 147.957031 178.640625 146.550781 177.179688 146.714844 C 176.960938 146.839844 176.726562 146.980469 176.496094 147.113281 C 176.367188 147.429688 176.480469 147.957031 177.035156 148.75 C 178.394531 150.746094 180.117188 152.785156 182.0625 154.570312 C 182.90625 153.304688 183.933594 152.152344 185.070312 151.0625 Z M 184.699219 146.824219 C 184.3125 145.308594 183.875 143.789062 183.960938 142.207031 C 183.109375 142.863281 182.222656 143.464844 181.335938 144.078125 C 182.828125 144.710938 183.714844 145.773438 184.699219 146.824219 Z M 183.207031 110.78125 C 184.339844 109.839844 185.4375 108.855469 186.480469 107.828125 C 183.945312 106.613281 181.582031 104.800781 178.980469 103.617188 C 178.875 103.757812 178.773438 103.90625 178.667969 104.035156 C 178.9375 106.570312 181.105469 108.726562 183.207031 110.78125 Z M 188.652344 116.824219 C 188.652344 116.507812 188.695312 116.148438 188.625 115.828125 C 188.609375 115.757812 188.597656 115.644531 188.570312 115.523438 C 188.175781 115.59375 187.289062 115.902344 186.804688 116.234375 C 186.738281 116.382812 186.640625 116.507812 186.519531 116.628906 C 186.535156 116.804688 186.507812 117.160156 186.519531 117.160156 C 186.753906 117.449219 187.148438 118.03125 187.554688 118.074219 C 187.972656 118.074219 188.554688 118.203125 188.625 117.738281 C 188.679688 117.449219 188.652344 117.121094 188.652344 116.824219 Z M 188.554688 105.613281 C 188.828125 105.3125 189.105469 105.019531 189.378906 104.703125 C 186.929688 102.894531 184.191406 100.710938 182.566406 98.347656 C 181.933594 99.347656 181.28125 100.332031 180.609375 101.300781 C 183.207031 102.707031 185.789062 104.6875 188.554688 105.613281 Z M 189.871094 162.160156 C 190.128906 161.976562 189.996094 161.816406 189.976562 161.324219 C 189.976562 161.0625 189.730469 160.832031 189.527344 160.683594 C 189.1875 160.425781 188.816406 160.285156 188.484375 160.328125 C 188.308594 160.613281 188.0625 160.847656 187.753906 161.007812 C 187.582031 161.394531 187.554688 161.761719 187.554688 162.210938 C 187.570312 162.292969 187.582031 162.378906 187.582031 162.441406 C 188.324219 162.949219 189.105469 162.703125 189.871094 162.160156 Z M 191.128906 102.515625 C 192.636719 100.574219 194.027344 98.496094 195.378906 96.253906 C 193.332031 96.023438 191.292969 95.585938 189.214844 94.863281 C 184.191406 93.125 186.738281 98.855469 188.941406 100.808594 C 189.636719 101.433594 190.390625 101.980469 191.128906 102.515625 Z M 194.085938 144.871094 C 193.867188 144.449219 193.65625 144.050781 193.417969 143.640625 C 192.289062 141.632812 191.726562 138.625 190.046875 137.070312 C 189.554688 137.507812 189.074219 137.957031 188.597656 138.390625 C 188.0625 138.878906 187.5 139.339844 186.945312 139.820312 C 186.859375 140.675781 186.804688 141.484375 186.859375 142.179688 C 187 144.378906 187.753906 146.480469 188.046875 148.617188 C 189.988281 147.183594 192.074219 145.941406 194.085938 144.871094 Z M 197.054688 93.359375 C 197.242188 93.019531 197.421875 92.691406 197.609375 92.359375 C 197.039062 92.085938 196.582031 91.855469 196.363281 91.679688 C 194.507812 90.257812 192.769531 88.769531 191.003906 87.25 C 190.460938 86.800781 189.976562 86.324219 189.527344 85.816406 C 189.160156 86.554688 188.828125 87.28125 188.449219 88.003906 C 187.984375 88.917969 187.511719 89.808594 187.035156 90.710938 C 190.800781 91.828125 193.726562 92.949219 197.054688 93.359375 Z M 199.1875 112.09375 C 197.242188 112.953125 194.796875 112.445312 193.402344 110.765625 C 192.972656 110.246094 192.972656 109.636719 193.21875 109.144531 C 193.183594 109.058594 193.171875 108.988281 193.15625 108.898438 C 192.207031 109.074219 191.292969 109.101562 190.417969 109.015625 C 189.203125 110.386719 187.902344 111.617188 186.464844 112.558594 C 186.164062 112.777344 185.824219 112.980469 185.507812 113.183594 C 185.601562 113.28125 185.683594 113.378906 185.777344 113.484375 C 186.84375 112.910156 188.105469 112.585938 188.996094 112.648438 C 191.25 112.789062 191.59375 115.265625 191.550781 117.050781 C 191.523438 118.074219 191.441406 119.117188 190.695312 119.910156 C 189.855469 120.824219 188.746094 120.949219 187.554688 120.972656 C 187.308594 120.972656 187.105469 120.90625 186.929688 120.835938 C 185.015625 120.359375 183.714844 118.695312 183.65625 116.769531 C 182.714844 116.597656 181.742188 116.421875 180.773438 116.207031 C 179.105469 117.230469 177.445312 118.257812 175.792969 119.292969 C 175.933594 119.746094 176.039062 120.210938 176.121094 120.660156 C 176.179688 120.691406 176.242188 120.71875 176.296875 120.753906 C 177.761719 120.578125 179.183594 121.054688 179.859375 122.601562 C 180.28125 123.542969 180.71875 124.800781 180.078125 125.769531 C 179.472656 126.683594 178.558594 127.351562 177.5 127.625 C 176.480469 127.886719 175.285156 128.039062 174.300781 127.597656 C 173.386719 127.164062 173.003906 126.25 172.878906 125.292969 C 172.835938 124.976562 172.816406 124.675781 172.835938 124.363281 C 171.949219 124.078125 170.808594 123.65625 169.613281 123.210938 C 167.75 124.457031 165.90625 125.757812 164.113281 127.121094 C 164.15625 127.808594 164.191406 128.492188 164.210938 129.1875 C 165.738281 128.910156 167.585938 129.257812 168.347656 130.535156 C 168.75 131.222656 168.792969 132.136719 168.75 132.933594 C 168.691406 133.886719 168.382812 134.683594 167.53125 135.1875 C 166.777344 135.636719 165.78125 135.636719 164.933594 135.757812 C 164.011719 135.871094 162.9375 135.8125 162.429688 134.898438 C 162.113281 134.324219 162.007812 133.726562 161.953125 133.148438 C 161.535156 132.53125 161.113281 131.90625 160.707031 131.289062 C 159.652344 133.726562 159.769531 136.46875 160.390625 139.242188 C 175.410156 133.339844 190.214844 125.917969 199.1875 112.09375 Z M 198.433594 109.214844 C 198.460938 109.183594 198.40625 108.292969 198.390625 108.132812 C 198.339844 107.738281 198.199219 107.1875 197.808594 107.007812 C 197.492188 106.84375 196.476562 106.902344 196.070312 107.28125 C 196.039062 107.394531 195.984375 107.527344 195.914062 107.640625 C 195.878906 107.96875 195.984375 108.335938 196.082031 108.652344 C 196.160156 108.828125 196.203125 109.003906 196.300781 109.171875 C 196.316406 109.199219 196.328125 109.214844 196.34375 109.25 C 196.582031 109.332031 196.78125 109.445312 196.925781 109.605469 C 197.40625 109.675781 197.925781 109.566406 198.433594 109.214844 Z M 197.636719 143.109375 C 198.722656 142.601562 199.804688 142.046875 200.910156 141.472656 C 198.652344 140.457031 196.421875 139.355469 194.21875 138.21875 C 194.261719 138.460938 194.304688 138.695312 194.378906 138.914062 C 194.941406 140.429688 195.738281 142.0625 196.5625 143.613281 C 196.925781 143.4375 197.285156 143.261719 197.636719 143.109375 Z M 198.871094 89.941406 C 199.867188 87.933594 200.796875 85.875 201.5625 83.765625 C 198.09375 83.054688 194.5625 81.734375 192.839844 81.117188 C 192.402344 80.953125 192.074219 80.871094 191.769531 80.8125 C 191.511719 81.433594 191.234375 82.042969 190.976562 82.648438 C 191.59375 83.675781 192.59375 84.804688 193.042969 85.214844 C 194.867188 86.859375 196.765625 88.566406 198.871094 89.941406 Z M 202.34375 153.015625 C 202.34375 153.003906 202.375 153.003906 202.445312 153.003906 C 202.414062 153.003906 202.375 153.003906 202.34375 153.003906 Z M 202.515625 155.652344 C 203.125 155.246094 203.34375 153.8125 202.78125 153.304688 C 202.691406 153.234375 202.359375 153.09375 202.332031 153.03125 C 202.015625 153.644531 201.210938 154.070312 200.445312 153.839844 C 200.59375 154.640625 201.648438 156.03125 202.515625 155.652344 Z M 205.519531 100.914062 C 203.371094 100.710938 202.210938 99.058594 202.167969 96.886719 C 202.15625 96.667969 202.183594 96.472656 202.199219 96.253906 C 201 96.378906 199.804688 96.4375 198.652344 96.4375 C 197.1875 98.867188 195.617188 101.722656 193.839844 104.425781 C 194.070312 104.601562 194.304688 104.792969 194.519531 104.976562 C 195.792969 104.003906 197.546875 103.660156 199.058594 104.398438 C 200.390625 105.03125 201.070312 106.382812 201.246094 107.800781 C 201.269531 108.046875 201.304688 108.308594 201.304688 108.550781 C 202.761719 106.03125 204.140625 103.472656 205.519531 100.914062 Z M 204.140625 139.722656 C 204.5625 139.476562 204.984375 139.230469 205.382812 138.984375 C 204.195312 137.21875 202.824219 135.105469 202.210938 133.164062 C 201.910156 132.195312 201.648438 131.253906 201.417969 130.332031 C 200.242188 129.953125 199.1875 129.609375 198.285156 129.296875 C 196.609375 131.054688 194.824219 132.726562 193.042969 134.367188 C 196.679688 136.25 200.347656 138.148438 204.140625 139.722656 Z M 206.269531 97.667969 C 206.40625 97.582031 206.257812 97.175781 206.269531 96.957031 C 206.285156 96.378906 206.371094 95.269531 205.453125 95.574219 C 204.863281 95.761719 205.027344 96.667969 205.082031 97.175781 C 205.109375 97.46875 205.152344 97.6875 205.273438 97.8125 C 205.273438 97.8125 205.285156 97.8125 205.300781 97.8125 C 205.589844 97.800781 206.023438 97.828125 206.269531 97.667969 Z M 206.652344 81.335938 C 206.6875 81.277344 206.734375 81.230469 206.777344 81.171875 C 206.707031 80.96875 206.285156 80.53125 205.476562 79.753906 C 205.382812 80.175781 205.285156 80.582031 205.195312 80.996094 C 205.90625 81.1875 206.417969 81.335938 206.652344 81.335938 Z M 207.882812 137.4375 C 209.761719 136.222656 211.589844 134.886719 213.34375 133.464844 C 210.457031 132.917969 207.417969 132.125 204.644531 131.316406 C 205.34375 133.3125 206.328125 135.238281 207.53125 136.988281 C 207.636719 137.128906 207.75 137.273438 207.882812 137.4375 Z M 211.089844 84.6875 C 211.089844 84.996094 211.265625 84.953125 211.078125 84.546875 C 210.71875 83.6875 210.589844 82.949219 209.703125 82.867188 C 209.429688 83.183594 209.113281 83.429688 208.734375 83.632812 C 208.648438 84.039062 208.601562 84.488281 208.851562 84.820312 C 209.382812 85.542969 210.265625 85.515625 211.089844 85.394531 C 211.089844 85.164062 211.089844 84.933594 211.089844 84.6875 Z M 212.671875 88.550781 C 212.039062 88.8125 211.328125 88.824219 210.554688 88.714844 C 210.296875 88.683594 210.097656 88.523438 209.921875 88.332031 C 209.238281 88.320312 208.570312 88.191406 207.996094 87.828125 C 206.917969 87.167969 206.1875 86.265625 205.835938 85.050781 C 205.765625 84.804688 205.75 84.53125 205.738281 84.257812 C 205.300781 84.257812 204.851562 84.230469 204.371094 84.203125 C 204.222656 84.671875 204.070312 85.136719 203.894531 85.570312 C 203.082031 87.511719 202.269531 89.4375 201.375 91.335938 C 202.414062 91.828125 203.386719 92.253906 204.070312 93.019531 C 204.503906 92.789062 205.039062 92.664062 205.644531 92.632812 C 206.722656 92.59375 207.777344 93.125 208.429688 93.964844 C 208.664062 94.265625 208.804688 94.574219 208.910156 94.890625 C 209.132812 94.496094 209.351562 94.097656 209.597656 93.703125 C 210.613281 92.074219 211.6875 90.351562 212.671875 88.550781 Z M 213.699219 145.28125 C 214.003906 144.898438 213.46875 143.804688 213.125 143.613281 C 212.632812 143.339844 211.992188 143.277344 211.5625 143.601562 C 211.539062 143.65625 211.539062 143.710938 211.527344 143.777344 C 211.457031 144.035156 211.292969 144.234375 211.113281 144.410156 C 211.113281 144.554688 211.113281 144.710938 211.140625 144.859375 C 211.222656 144.914062 211.308594 144.941406 211.398438 145.019531 C 211.976562 145.597656 213.039062 146.128906 213.699219 145.28125 Z M 217.410156 59.703125 C 216.699219 56.054688 215.46875 51.878906 212.617188 49.527344 C 204.574219 42.871094 200.675781 53.582031 198.925781 59.609375 C 197.1875 65.570312 195.332031 71.648438 193.070312 77.539062 C 196.054688 78.453125 199.171875 80.144531 201.851562 80.390625 C 202.128906 80.421875 202.386719 80.449219 202.632812 80.476562 C 202.660156 80.421875 202.675781 80.363281 202.691406 80.308594 C 203.332031 77.988281 203.578125 75.429688 204.441406 73.1875 C 204.300781 73.011719 204.179688 72.835938 204.140625 72.632812 C 202.375 64.648438 210.253906 60.652344 217.410156 59.703125 Z M 214.234375 85.515625 C 216.210938 81.335938 217.5 76.878906 216.699219 72.386719 C 216.683594 72.34375 216.699219 72.316406 216.699219 72.273438 C 213.46875 73.398438 210.265625 74.171875 207.242188 73.953125 C 206.980469 74.503906 206.734375 75.078125 206.53125 75.691406 C 206.652344 75.878906 206.722656 76.089844 206.75 76.335938 C 206.804688 77.019531 208.355469 78.78125 209.367188 79.96875 C 209.417969 79.96875 209.445312 79.957031 209.488281 79.957031 C 210.675781 79.957031 211.6875 80.230469 212.527344 81.101562 C 213.308594 81.910156 214.222656 83.574219 214.222656 84.6875 C 214.222656 84.953125 214.234375 85.226562 214.234375 85.515625 Z M 218.175781 129.039062 C 218.078125 128.953125 217.992188 128.871094 217.886719 128.765625 C 214.453125 125.496094 209.816406 122.023438 207.867188 117.519531 C 206.425781 119.332031 204.960938 121.109375 203.632812 122.859375 C 203.492188 124.007812 203.476562 125.160156 203.5625 126.304688 C 204.996094 126.726562 206.40625 127.261719 207.996094 127.957031 C 210.589844 129.050781 213.355469 130.386719 216.210938 130.992188 C 216.886719 130.359375 217.542969 129.707031 218.175781 129.039062 Z M 217.226562 193.96875 C 222.261719 191.875 227.117188 188.789062 232.128906 186.246094 C 229.433594 180.019531 217.148438 176.519531 211.574219 176.910156 C 206.09375 177.296875 200.824219 177.542969 195.546875 179.28125 C 192.578125 180.25 190.195312 182.21875 187.050781 181.738281 C 186.519531 181.667969 186.203125 181.175781 186.035156 180.726562 C 185.480469 179.28125 184.644531 177.855469 183.839844 176.40625 C 180.746094 177.269531 177.921875 179.238281 174.777344 180.125 C 170.894531 181.191406 167.152344 182.914062 163.15625 183.609375 C 155.4375 184.953125 147.710938 185.863281 139.859375 185.589844 C 130.039062 185.261719 116.726562 182.378906 110.105469 174.207031 C 110.019531 174.578125 109.816406 174.945312 109.5 175.191406 C 109.253906 175.660156 109.007812 176.160156 108.753906 176.679688 C 107.382812 179.632812 107.148438 182.265625 106.25 185.261719 C 106.191406 185.445312 106.179688 185.621094 106.136719 185.796875 C 106.328125 186.230469 106.355469 186.722656 106.066406 187.125 C 106.261719 188.664062 107.425781 189.714844 108.84375 191.015625 C 121.257812 202.464844 143.152344 202.667969 159.089844 204.9375 C 169.113281 206.371094 181.386719 206.316406 191.277344 204.339844 C 200.199219 202.550781 208.804688 197.46875 217.226562 193.96875 Z M 219.976562 127.042969 C 221.453125 125.277344 222.785156 123.410156 223.902344 121.414062 C 219.785156 120.824219 215.761719 119.605469 212.46875 116.914062 C 211.6875 116.324219 210.9375 115.6875 210.210938 115.03125 C 210.800781 117.421875 211.84375 119.226562 213.875 121.140625 C 215.917969 123.09375 218.132812 124.90625 219.976562 127.042969 Z M 221.265625 85.816406 C 219.933594 85.886719 218.351562 85.832031 217.480469 84.722656 C 216.789062 86.308594 216 87.90625 215.191406 89.535156 C 211.238281 97.421875 206.953125 105.683594 202.027344 113.035156 C 196.996094 120.550781 191.953125 126.699219 183.8125 130.894531 C 176.269531 134.789062 169.023438 138.863281 161.144531 142.019531 C 161.964844 144.597656 163.027344 147.128906 163.835938 149.449219 C 166.847656 148.386719 169.824219 147.234375 172.6875 145.855469 C 172.746094 145.609375 172.878906 145.363281 173.070312 145.203125 C 174.222656 144.21875 175.65625 143.65625 177.164062 143.496094 C 179.667969 142.019531 182.0625 140.3125 184.339844 138.316406 C 184.480469 137.097656 184.644531 135.898438 184.769531 134.710938 C 184.839844 134.121094 185.164062 133.410156 185.847656 133.3125 C 186.957031 133.148438 188.363281 133.148438 189.695312 133.394531 C 191.511719 131.6875 193.289062 129.9375 195.015625 128.160156 C 193.726562 127.957031 193.769531 125.308594 195.160156 125.308594 C 196.054688 125.308594 196.863281 125.335938 197.636719 125.363281 C 198.734375 124.148438 199.804688 122.902344 200.851562 121.632812 C 201.035156 120.578125 201.316406 119.507812 201.734375 118.40625 C 202.128906 117.378906 203.273438 117.230469 204.011719 117.667969 C 204.984375 116.4375 205.984375 115.195312 206.953125 113.9375 C 206.90625 113.238281 206.890625 112.53125 206.996094 111.792969 C 207.082031 111.082031 207.390625 110.675781 208.050781 110.402344 C 208.199219 110.34375 208.339844 110.289062 208.488281 110.230469 C 208.804688 110.085938 209.183594 110.167969 209.488281 110.332031 C 209.894531 109.699219 210.28125 109.058594 210.632812 108.417969 C 211.527344 106.726562 212.179688 104.960938 212.820312 103.199219 C 212.773438 102.882812 212.742188 102.542969 212.6875 102.183594 C 212.484375 100.5625 213.054688 99.894531 213.933594 99.769531 C 215.148438 96.859375 216.886719 93.34375 218.6875 90.84375 C 219.773438 89.316406 220.539062 87.582031 221.265625 85.816406 Z M 223.847656 80.203125 C 224.59375 78.929688 225.21875 77.617188 225.796875 76.296875 C 224.042969 76.6875 222.550781 77.660156 221.371094 79.121094 C 220.386719 80.285156 219.785156 81.515625 219.921875 83.070312 C 219.886719 82.753906 221.917969 82.824219 222.511719 82.851562 C 222.917969 81.9375 223.347656 81.046875 223.847656 80.203125 Z M 225.246094 118.695312 C 225.339844 118.476562 225.421875 118.277344 225.507812 118.0625 C 225.4375 117.996094 225.367188 117.941406 225.273438 117.886719 C 221.785156 115.152344 217.554688 112.574219 214.820312 109.003906 C 214.574219 108.664062 214.355469 108.347656 214.164062 108.046875 C 213.46875 109.480469 212.660156 110.863281 211.757812 112.214844 C 214.972656 114.960938 218.582031 117.683594 222.828125 118.363281 C 223.628906 118.519531 224.4375 118.625 225.246094 118.695312 Z M 226.570312 115.222656 C 227.132812 113.515625 227.625 111.804688 228.0625 110.097656 C 224.078125 108.9375 220.175781 106.480469 217.773438 104.386719 C 216.859375 103.570312 216.296875 103.199219 216 103.128906 C 215.929688 103.296875 215.875 103.484375 215.804688 103.660156 C 216.3125 105.09375 218.957031 108.8125 220.0625 109.957031 C 221.960938 111.953125 224.261719 113.648438 226.570312 115.222656 Z M 229.074219 67.933594 C 229.101562 67.863281 229.128906 67.769531 229.171875 67.671875 C 226.042969 68.542969 222.714844 69.984375 219.363281 71.292969 C 219.40625 71.390625 219.46875 71.480469 219.5 71.621094 C 219.800781 73.386719 219.855469 75.066406 219.714844 76.6875 C 221.617188 74.664062 224.164062 73.386719 227.019531 73.230469 C 227.679688 71.46875 228.320312 69.683594 229.074219 67.933594 Z M 234.808594 184.9375 C 235.476562 184.636719 236.160156 184.347656 236.835938 184.074219 C 232.140625 176.996094 221.976562 173.828125 213.988281 173.292969 C 205.039062 172.703125 195.121094 171.683594 187.050781 175.90625 C 188.230469 178.351562 188.132812 179.359375 192.261719 177.355469 C 197.5625 174.78125 205.660156 173.523438 211.574219 174.015625 C 218.527344 174.59375 231.675781 177.242188 234.808594 184.9375 Z M 239.460938 110.507812 C 239.980469 110.273438 240.253906 109.261719 239.777344 108.855469 C 239.226562 108.390625 238.285156 108.96875 238.058594 109.496094 C 237.96875 109.710938 237.898438 109.972656 237.910156 110.21875 C 238.296875 110.589844 238.882812 110.738281 239.460938 110.507812 Z M 244.152344 204.230469 C 243.996094 202.808594 243.878906 201.375 243.589844 201.46875 C 242.792969 201.683594 242.019531 201.929688 241.253906 202.191406 C 241.414062 202.234375 241.5625 202.289062 241.660156 202.359375 C 242.035156 202.605469 242.359375 202.929688 242.738281 203.160156 C 243.25 203.492188 243.6875 203.898438 244.152344 204.230469 Z M 249.324219 81.679688 C 247.9375 78.742188 247.078125 75.789062 245.09375 72.972656 C 243.097656 70.144531 239.445312 65.894531 236.300781 64.53125 C 233.113281 63.144531 231.507812 69.261719 230.980469 70.925781 C 227.679688 81.230469 221.292969 90.011719 217.0625 99.796875 C 217.0625 100.015625 217.035156 100.246094 216.929688 100.464844 C 216.929688 100.476562 216.929688 100.492188 216.917969 100.492188 C 218.195312 101.082031 219.363281 101.898438 219.816406 102.324219 C 222.425781 104.835938 225.449219 106.367188 228.800781 107.035156 C 229.503906 103.816406 230.128906 100.574219 230.855469 97.265625 C 228.40625 96.597656 226.753906 94.835938 228.75 91.390625 C 232.386719 85.09375 242.535156 83.140625 249.324219 81.679688 Z M 240.402344 55.414062 C 243.152344 54.648438 247.175781 54.023438 250.675781 52.792969 C 245.890625 50.628906 239.734375 51.085938 234.753906 51.207031 C 228.855469 51.332031 224.4375 53.230469 219.175781 55.128906 C 219.675781 56.574219 220.035156 58.035156 220.308594 59.484375 C 220.457031 59.46875 220.609375 59.46875 220.757812 59.46875 C 227.40625 59.46875 234.054688 57.195312 240.402344 55.414062 Z M 246.789062 93.660156 C 246.53125 93.730469 246.269531 93.824219 246.007812 93.894531 C 241.703125 95.121094 238.445312 97.351562 234.027344 97.566406 C 233.941406 97.566406 233.835938 97.566406 233.753906 97.566406 C 233.507812 98.671875 233.273438 99.769531 233.054688 100.863281 C 233.070312 100.925781 233.113281 100.96875 233.128906 101.039062 C 233.5625 102.816406 236.082031 104.46875 237.476562 106.234375 C 237.847656 106.09375 238.226562 105.960938 238.664062 105.929688 C 239.746094 105.832031 241.054688 105.917969 241.824219 106.816406 C 243.617188 108.898438 243.027344 112.109375 240.457031 113.199219 C 239.460938 113.613281 238.375 113.570312 237.390625 113.226562 C 237.363281 113.226562 237.335938 113.238281 237.285156 113.238281 C 236.082031 113.238281 235.433594 112.445312 235.175781 111.425781 C 235 111.140625 234.871094 110.824219 234.765625 110.492188 C 233.5625 110.792969 232.289062 110.835938 230.96875 110.6875 C 230.445312 112.847656 229.855469 114.949219 229.128906 117 C 229.996094 117.652344 230.742188 118.390625 231.113281 119.363281 C 231.796875 119.046875 232.535156 118.871094 233.246094 119.03125 C 236.054688 119.675781 237.128906 123.367188 236.160156 125.8125 C 236.132812 125.867188 236.082031 125.917969 236.054688 125.972656 C 236.039062 126.03125 236.027344 126.085938 236.011719 126.148438 C 234.152344 130.347656 227.957031 127.261719 228.203125 123.382812 C 228.25 122.875 228.363281 122.355469 228.566406 121.863281 C 228.089844 121.835938 227.597656 121.808594 227.105469 121.765625 C 225.738281 124.5 224 127.070312 221.730469 129.460938 C 222.003906 129.964844 222.234375 130.5 222.382812 131.019531 C 223.410156 130.648438 224.667969 130.347656 225.65625 130.90625 C 226.613281 131.457031 227.148438 132.441406 227.300781 133.515625 C 227.464844 134.597656 227.476562 135.882812 226.828125 136.851562 C 226.246094 137.710938 225.175781 138.835938 224.113281 139.054688 C 222.453125 139.390625 221.238281 138.433594 220.554688 137.097656 C 220.433594 137.015625 220.320312 136.917969 220.222656 136.769531 C 219.757812 136.085938 219.46875 135.132812 219.421875 134.226562 C 218.652344 134.191406 217.816406 134.132812 216.945312 134.035156 C 214.699219 136.015625 212.308594 137.941406 209.84375 139.679688 C 210.15625 140.023438 210.429688 140.386719 210.691406 140.761719 C 210.949219 140.648438 211.238281 140.558594 211.539062 140.527344 C 212.714844 140.417969 213.875 140.597656 214.847656 141.296875 C 216.585938 142.546875 217.410156 145.679688 215.761719 147.332031 C 214.863281 148.230469 213.757812 148.574219 212.496094 148.574219 C 211.976562 148.574219 211.527344 148.464844 211.113281 148.289062 C 210.9375 148.300781 210.761719 148.316406 210.589844 148.289062 C 208.992188 148.042969 208.113281 146.03125 208.183594 144.296875 C 206.917969 143.902344 205.6875 143.464844 204.460938 142.976562 C 204.011719 143.207031 203.578125 143.464844 203.125 143.671875 C 201.71875 144.367188 199.898438 145.175781 197.941406 146.117188 C 198.722656 147.507812 199.578125 149.011719 200.648438 150.253906 C 202.457031 149.820312 204.5625 150.3125 205.453125 152.046875 C 206.417969 153.929688 206.039062 156.277344 204.535156 157.691406 C 204.398438 157.867188 204.246094 158.042969 203.976562 158.140625 C 203.730469 158.316406 203.492188 158.371094 203.273438 158.386719 C 201.386719 158.878906 199.539062 158.140625 198.433594 156.390625 C 197.546875 154.972656 197.273438 153.136719 198.171875 151.816406 C 197.074219 150.488281 196.1875 148.957031 195.378906 147.386719 C 190.941406 149.707031 186.394531 152.6875 184.410156 156.476562 C 185.164062 157.03125 185.945312 157.507812 186.738281 157.9375 C 188.351562 157.007812 190.488281 157.386719 191.796875 158.835938 C 193.21875 160.425781 193.480469 163.152344 191.582031 164.492188 C 190.742188 165.070312 189.335938 165.78125 188.28125 165.695312 C 187.613281 165.652344 187.0625 165.476562 186.535156 165.191406 C 186.234375 165.160156 185.945312 165.054688 185.683594 164.796875 C 185.277344 164.382812 184.875 163.890625 184.714844 163.304688 C 184.558594 162.742188 184.65625 162.0625 184.65625 161.484375 C 184.65625 161.09375 184.753906 160.671875 184.902344 160.269531 C 184.425781 160.011719 183.945312 159.714844 183.46875 159.425781 C 183.363281 160.152344 183.363281 160.902344 183.480469 161.703125 C 183.742188 163.441406 183.917969 165.476562 184.191406 167.5 C 184.328125 167.488281 184.453125 167.460938 184.558594 167.472656 C 191.707031 165.21875 198.953125 161.542969 205.574219 158.125 C 209.3125 156.199219 212.554688 153.523438 216.164062 151.367188 C 219.828125 149.1875 223.726562 147.042969 226.667969 143.886719 C 238.664062 131.019531 246.460938 110.792969 246.789062 93.660156 Z M 253.945312 51.304688 C 254.875 50.757812 255.667969 50.125 256.308594 49.378906 C 251.644531 45.660156 244.257812 45 238.761719 45 C 230.445312 45 223.550781 45.535156 216.164062 49.238281 C 216.917969 50.222656 217.554688 51.304688 218.089844 52.449219 C 224.824219 50.09375 229.910156 48.253906 237.390625 48.339844 C 242.921875 48.402344 249.007812 48.066406 253.832031 51.21875 C 253.875 51.25 253.902344 51.277344 253.945312 51.304688 Z M 257.542969 62.519531 C 257.667969 61.8125 257.871094 61.113281 258.089844 60.441406 C 252.960938 63.644531 246.65625 62.164062 241.113281 64.257812 C 241.789062 64.867188 242.429688 65.5 243.027344 66.125 C 247.007812 63.363281 252.3125 62.625 257.542969 62.519531 Z M 258.148438 53.519531 C 258.019531 53.214844 257.871094 52.929688 257.746094 52.625 C 256.339844 54.332031 252.792969 54.734375 250.964844 55.316406 C 245.503906 57.039062 239.910156 58.246094 234.464844 59.933594 C 227.570312 62.058594 220.527344 62.246094 213.589844 63.996094 C 210.296875 64.3125 208.734375 66.660156 208.9375 71.03125 C 210.226562 70.566406 211.539062 70.175781 212.878906 69.859375 C 215.003906 69.089844 217.132812 68.324219 219.28125 67.628906 C 222.882812 66.441406 226.597656 65.113281 230.320312 64.433594 C 230.839844 63.160156 231.480469 61.957031 232.207031 61.523438 C 234.21875 60.347656 236.433594 60.945312 238.503906 62.246094 C 240.878906 61.144531 243.601562 60.953125 246.226562 60.785156 C 249.089844 60.59375 253.757812 60.101562 256.203125 58.382812 C 255.710938 58.746094 257.105469 55.824219 258.148438 53.519531 Z M 266 78.324219 C 266.054688 78.289062 269.363281 77.207031 272.230469 75.789062 C 265.589844 71.648438 256.957031 72.78125 249.457031 73.953125 C 249.816406 74.503906 250.167969 75.050781 250.5 75.621094 C 251.46875 77.308594 251.46875 79.339844 252.265625 81.058594 C 256.859375 80.203125 261.566406 79.753906 266 78.324219 Z M 277.257812 68.832031 C 284.242188 74.136719 274.027344 78.742188 269.1875 80.320312 C 261.726562 82.753906 253.960938 83.398438 246.425781 85.515625 C 242.574219 86.597656 238.011719 87.527344 234.578125 89.667969 C 226.160156 94.945312 233.332031 94.90625 235.355469 94.765625 C 236.273438 94.179688 237.230469 93.6875 238.226562 93.289062 C 250.746094 88.855469 263.65625 85.460938 276.230469 81.347656 C 285.734375 78.234375 284.574219 70.59375 277.113281 67.617188 C 272.972656 65.949219 268.882812 65.730469 264.449219 65.730469 C 258.222656 65.730469 250.527344 64.832031 244.996094 68.3125 C 245.152344 68.480469 245.300781 68.65625 245.445312 68.816406 C 246.164062 69.640625 246.875 70.496094 247.570312 71.363281 C 247.601562 71.363281 247.613281 71.332031 247.640625 71.332031 C 256.613281 69.914062 266.808594 68.269531 274.601562 73.890625 C 274.738281 73.984375 274.835938 74.09375 274.921875 74.214844 C 276.285156 73.21875 276.925781 72.167969 275.792969 71.320312 C 274.328125 70.203125 275.777344 67.6875 277.257812 68.832031 Z M 283.734375 128.421875 C 282.546875 121.546875 281.484375 114.570312 280.632812 107.695312 C 279.570312 99.234375 280.078125 91.558594 280.34375 83.082031 C 277.144531 84.488281 273.398438 85.242188 270.15625 86.394531 C 267.53125 87.320312 265.011719 88.566406 262.304688 89.191406 C 258.089844 90.175781 253.902344 91.515625 249.71875 92.789062 C 249.648438 102.804688 245.792969 112.023438 243.152344 122.3125 C 241.226562 129.839844 235.535156 138.378906 230.261719 144.035156 C 227.105469 147.417969 223.535156 150.226562 219.554688 152.597656 C 215.425781 155.054688 211.457031 158.6875 207.039062 160.570312 C 199.550781 163.742188 192.523438 168.035156 184.714844 170.425781 C 184.960938 171.464844 185.261719 172.457031 185.683594 173.347656 C 194.632812 168.648438 206.722656 168.949219 216.515625 170.601562 C 224.972656 172.035156 234.851562 175.246094 239.636719 183.046875 C 240.140625 182.871094 240.675781 182.722656 241.195312 182.582031 C 245.558594 181.421875 249.90625 180.195312 254.25 178.949219 C 252.082031 156.722656 258.800781 132.25 283.734375 128.421875 Z M 284.488281 132.617188 C 284.382812 132.152344 284.285156 131.703125 284.207031 131.238281 C 260.988281 134.613281 255.3125 157.894531 257.078125 178.128906 C 257.859375 177.894531 258.652344 177.664062 259.433594 177.433594 C 256.203125 158.6875 263.164062 135.652344 284.488281 132.617188 Z M 289.28125 149.152344 C 289.125 147.523438 288.84375 145.914062 288.324219 144.4375 C 287.296875 141.429688 286.121094 138.449219 285.226562 135.40625 C 265.640625 138.230469 259.308594 159.382812 262.21875 176.601562 C 262.917969 176.40625 263.628906 176.214844 264.304688 176 C 267.953125 174.914062 271.605469 173.664062 275.171875 172.378906 C 281.765625 170.015625 287.527344 168.863281 288.976562 161.324219 C 287.421875 161.949219 285.734375 162.105469 284.09375 162.554688 C 282.019531 163.152344 279.824219 163.652344 277.679688 163.8125 C 274.722656 164.058594 272.125 164.261719 271.027344 161.132812 C 269.796875 157.632812 270.71875 156.03125 274 155 C 279.183594 153.367188 284.628906 152.0625 289.28125 149.152344 Z M 289.324219 158.097656 C 289.378906 156.292969 289.457031 154.351562 289.441406 152.414062 C 287.351562 153.566406 285.164062 154.492188 282.890625 155.230469 C 281.765625 155.597656 273.246094 157.535156 273.398438 158.824219 C 273.851562 162.265625 278.777344 160.917969 281.210938 160.328125 C 283.382812 159.792969 286.734375 159.425781 288.597656 158.300781 C 288.84375 158.140625 289.089844 158.097656 289.324219 158.097656 Z M 261.382812 182.308594 C 268.089844 180.742188 291.425781 176.636719 290.660156 167.171875 C 288.121094 172.433594 281.082031 173.621094 275.953125 175.175781 C 271.085938 176.644531 266.246094 178.199219 261.390625 179.714844 C 261.363281 179.714844 261.347656 179.730469 261.320312 179.730469 C 259.046875 180.441406 256.773438 181.136719 254.480469 181.804688 C 246.355469 184.1875 239.058594 187.09375 231.277344 190.292969 C 214.785156 197.082031 199.375 208.261719 180.914062 208.261719 C 165.039062 208.261719 149.976562 207.3125 134.414062 204.117188 C 126.738281 202.535156 106.4375 198.804688 103.570312 188.980469 C 95.589844 195.90625 115.683594 203.40625 120.941406 205.183594 C 131.78125 208.847656 143.046875 211.402344 154.535156 211.402344 C 166.460938 211.402344 179.308594 212.914062 190.910156 210.003906 C 196.855469 208.53125 203.824219 207.328125 209.15625 204.128906 C 225.308594 194.433594 243.054688 186.5625 261.382812 182.308594 Z M 291.671875 186.398438 C 292.585938 182.449219 293.523438 176.625 292.261719 172.175781 C 287.613281 179.035156 273.257812 182.800781 266.941406 184.085938 C 255.453125 186.425781 245.460938 190.6875 234.421875 194.460938 C 223.902344 198.078125 215.03125 206.546875 204.195312 209.296875 C 200.375 210.28125 196.582031 212.246094 192.621094 212.699219 C 186.191406 213.433594 180.71875 214.300781 174.167969 214.300781 C 158.925781 214.300781 144.671875 214.621094 129.910156 210.625 C 124.449219 209.148438 106.628906 203.695312 100.382812 196.878906 C 100.140625 198.3125 99.925781 199.773438 99.734375 201.179688 C 99.382812 203.695312 101.625 204.269531 103.46875 205.632812 C 108.0625 208.988281 114.117188 211.824219 119.566406 213.5625 C 121.445312 212.753906 123.402344 211.375 125.535156 211.785156 C 126.378906 211.929688 127.132812 212.851562 127.378906 213.617188 C 127.589844 214.257812 127.890625 214.863281 128.082031 215.5 C 130.5 215.488281 133.140625 215.5 135.285156 216.542969 C 136.890625 217.34375 138.382812 217.414062 140.007812 217.960938 C 141.703125 218.539062 141.625 217.730469 142.703125 216.894531 C 145.539062 214.679688 148.859375 215.570312 149.457031 219.367188 C 152.652344 219.941406 161.390625 221.375 161.796875 220.570312 C 162.769531 218.628906 163.941406 217.398438 166.3125 217.398438 C 169.429688 217.398438 168.445312 220.8125 171.007812 220.8125 C 174.75 220.8125 178.472656 220.84375 182.195312 220.609375 C 182.59375 217.25 184.960938 214.339844 188.855469 215.9375 C 189.433594 216.183594 190.046875 216.632812 190.378906 217.179688 C 191.085938 218.410156 190.679688 219.132812 192.59375 218.453125 C 195.273438 217.496094 198.058594 217.414062 200.691406 216.632812 C 200.648438 214.503906 200.882812 212.464844 203.371094 211.785156 C 204.941406 211.347656 206.996094 213.042969 206.980469 213.042969 C 215.585938 207.3125 226.652344 205.339844 235.957031 200.988281 C 238.058594 200.003906 244.75 195.90625 246.382812 199.335938 C 247.804688 202.316406 245.242188 204.53125 249.253906 203.652344 C 252.238281 202.984375 256.050781 202.695312 259.117188 201.753906 C 259.089844 200.960938 259.160156 200.335938 259.582031 199.582031 C 260.058594 198.703125 261.15625 198.703125 261.855469 199.28125 C 263.015625 200.25 262.8125 200.933594 264.550781 200.363281 C 266.039062 199.871094 267.546875 199.378906 269.074219 198.992188 C 270.402344 198.640625 271.664062 198.394531 273 198.191406 C 273.398438 198.121094 273.824219 198.109375 274.230469 198.136719 C 273.535156 195.402344 276.925781 194.980469 278.515625 196.878906 C 278.53125 196.890625 278.53125 196.917969 278.566406 196.933594 C 283.671875 196.535156 290.671875 190.699219 291.671875 186.398438 Z M 293.710938 168.226562 C 296.984375 173.664062 296.148438 183.679688 293.710938 189.222656 C 292.085938 192.886719 290.320312 194.277344 286.671875 196.253906 C 283.757812 197.832031 280.71875 200.265625 277.257812 199.828125 C 277.242188 199.828125 277.242188 199.816406 277.226562 199.816406 C 277.144531 199.992188 277.007812 200.171875 276.792969 200.363281 C 275.355469 201.648438 272.765625 201.015625 270.988281 201.480469 C 268.636719 202.085938 265.96875 203.503906 263.578125 203.679688 C 263.015625 203.722656 262.59375 203.679688 262.25 203.574219 C 262.179688 203.636719 262.128906 203.695312 262.042969 203.722656 C 259.335938 204.894531 256.449219 204.804688 253.617188 205.558594 C 251.441406 206.140625 249.253906 206.933594 247.023438 207.207031 C 246.804688 207.574219 246.425781 207.820312 245.863281 207.792969 C 244.125 207.671875 242.546875 206.921875 241.289062 205.71875 C 240.253906 204.75 238.910156 204.433594 237.996094 203.378906 C 236.953125 203.777344 235.914062 204.1875 234.851562 204.59375 C 229.714844 206.574219 224.453125 208.3125 219.40625 210.539062 C 215.875 212.113281 210.992188 213.070312 208.253906 215.804688 C 207.789062 216.253906 207.066406 216.351562 206.503906 216.019531 C 205.355469 214.980469 204.398438 215.460938 203.605469 217.425781 C 203.632812 218.222656 203.125 218.65625 202.535156 218.769531 C 202.359375 219 202.15625 219.203125 201.824219 219.308594 C 199.785156 219.984375 197.636719 219.832031 195.597656 220.476562 C 193.839844 221.046875 192.289062 221.679688 190.441406 221.621094 C 189.554688 221.609375 188.527344 221.074219 188.203125 220.230469 C 187.765625 219.09375 185.394531 217.523438 185.085938 219.710938 C 185.015625 220.394531 184.988281 221.089844 185.015625 221.761719 C 185.03125 222.5625 184.496094 223 183.902344 223.113281 C 183.6875 223.300781 183.425781 223.429688 183.09375 223.457031 C 178.585938 223.792969 174.097656 223.632812 169.59375 223.738281 C 168.898438 223.753906 167.847656 223.316406 167.328125 222.796875 C 167.257812 222.726562 164.824219 217.574219 164.4375 221.980469 C 164.300781 223.578125 162.921875 223.921875 161.59375 224.011719 C 157.34375 224.273438 151.976562 222.851562 147.683594 221.953125 C 146.78125 221.761719 146.53125 220.984375 146.699219 220.308594 C 146.699219 220.28125 146.683594 220.265625 146.683594 220.230469 C 146.269531 217.265625 143.960938 220.378906 143.0625 220.898438 C 142.265625 221.363281 141.0625 221.375 140.210938 221.089844 C 135.847656 219.597656 131.457031 218.410156 126.820312 218.398438 C 125.863281 218.398438 125.402344 217.617188 125.4375 216.878906 C 125.4375 216.863281 125.4375 216.863281 125.4375 216.84375 C 125.332031 216.132812 124.914062 215.621094 124.738281 214.953125 C 124.605469 214.417969 124.605469 214.53125 124.070312 214.722656 C 122.753906 215.199219 121.511719 215.867188 120.214844 216.414062 C 119.84375 216.570312 119.53125 216.554688 119.28125 216.441406 C 119.160156 216.441406 119.074219 216.457031 118.957031 216.414062 C 111.816406 214.152344 105.671875 210.390625 99.472656 206.371094 C 98.023438 205.429688 96.097656 204.171875 96.601562 202.164062 C 97.371094 199.148438 97.53125 196.007812 98.269531 193 C 98.082031 191.917969 98.269531 190.8125 98.898438 189.703125 C 93.472656 187.890625 88.433594 184.9375 83.363281 182.394531 C 77.972656 179.703125 80.046875 174.839844 80.460938 169.671875 C 80.492188 169.328125 80.636719 169.070312 80.828125 168.851562 C 80.722656 165.378906 82.417969 161.035156 85.183594 160.382812 C 85.359375 155.011719 88.914062 150.148438 90.820312 144.84375 C 93.507812 137.402344 108.457031 134.789062 114.785156 132.820312 C 125.695312 129.433594 137.789062 128.707031 148.40625 124.625 C 150.722656 123.746094 152.945312 122.699219 155.070312 121.546875 C 154.742188 120.78125 154.410156 120.007812 154.070312 119.277344 C 153.277344 117.613281 155.769531 116.136719 156.5625 117.828125 C 156.914062 118.554688 157.246094 119.320312 157.574219 120.097656 C 158.597656 119.488281 159.566406 118.839844 160.53125 118.171875 C 160.652344 117.464844 161.128906 116.738281 161.953125 116.804688 C 162.101562 116.816406 162.226562 116.824219 162.359375 116.859375 C 164.921875 114.917969 167.328125 112.777344 169.59375 110.476562 C 169.515625 109.726562 169.488281 108.953125 169.558594 108.171875 C 169.675781 106.929688 171.054688 106.261719 172.042969 107.160156 C 172.152344 107.265625 172.253906 107.363281 172.371094 107.476562 C 173.53125 106.164062 174.644531 104.800781 175.714844 103.402344 C 175.714844 102.675781 175.847656 101.925781 176.109375 101.125 C 176.355469 100.394531 177.105469 99.878906 177.886719 100.113281 C 177.945312 100.132812 178.007812 100.160156 178.0625 100.175781 C 179.167969 98.59375 180.210938 96.976562 181.222656 95.328125 C 181.003906 94.152344 181.144531 92.964844 181.828125 91.777344 C 182.484375 90.640625 183.25 90.21875 184.148438 90.160156 C 185.394531 87.839844 186.550781 85.488281 187.625 83.097656 C 186.972656 81.75 186.640625 80.28125 186.832031 78.640625 C 186.886719 78.164062 187.0625 77.59375 187.554688 77.382812 C 188.378906 77.03125 189.28125 76.921875 190.207031 76.976562 C 192.59375 70.941406 194.535156 64.804688 196.132812 58.832031 C 197.792969 52.597656 200.359375 43.292969 208.964844 44.734375 C 210.976562 45.085938 212.660156 45.921875 214.066406 47.066406 C 223.644531 42.054688 232.210938 42.105469 242.96875 42.105469 C 248.023438 42.105469 255.207031 44.332031 259.117188 47.964844 C 261.960938 48.90625 262.671875 53.171875 261.769531 56.179688 C 261.785156 56.316406 261.796875 56.425781 261.796875 56.574219 C 261.796875 58.71875 260.8125 60.511719 260.433594 62.519531 C 262.726562 62.5625 264.957031 62.683594 266.984375 62.753906 C 272.726562 62.957031 282.097656 64.117188 285.023438 69.828125 C 287.199219 74.066406 286.570312 78.585938 283.238281 81.390625 C 283.25 81.472656 283.300781 81.550781 283.285156 81.648438 C 283.125 87.496094 282.328125 93.289062 282.328125 99.128906 C 282.328125 103.757812 283.835938 108.742188 284.558594 113.296875 C 286.136719 123.09375 287.226562 132.371094 290.484375 141.800781 C 292.628906 148.011719 293.09375 155.640625 291.945312 162.351562 C 293.324219 164.464844 293.847656 166.417969 293.699219 168.210938 C 293.710938 168.226562 293.710938 168.226562 293.710938 168.226562 Z M 234.808594 107.324219 C 233.796875 107.308594 232.878906 106.507812 232.113281 105.496094 C 232 106.121094 231.867188 106.738281 231.742188 107.363281 C 232.738281 107.40625 233.753906 107.40625 234.808594 107.324219 Z M 232.675781 121.835938 C 232.675781 121.835938 232.648438 121.878906 232.445312 121.953125 C 231.675781 122.230469 230.925781 122.996094 231.128906 123.71875 C 231.304688 124.308594 231.839844 124.976562 232.375 125.160156 C 233.027344 125.378906 233.15625 125.378906 233.410156 124.90625 C 233.605469 124.292969 233.765625 123.269531 233.4375 122.75 C 233.261719 122.453125 233.015625 122.152344 232.738281 121.917969 C 232.675781 121.878906 232.675781 121.847656 232.675781 121.835938 Z M 223.382812 136.207031 C 223.507812 136.117188 223.65625 136.015625 223.785156 135.933594 C 224.453125 135.441406 224.613281 134.800781 224.464844 134.007812 C 224.394531 133.585938 224.4375 133.453125 224.113281 133.53125 C 223.683594 133.628906 223.261719 133.773438 222.828125 133.929688 C 222.785156 133.945312 222.726562 133.957031 222.671875 133.980469 C 222.742188 134.148438 222.796875 134.351562 222.796875 134.582031 C 222.8125 135.019531 222.828125 135.46875 223.085938 135.828125 C 223.261719 136.074219 223.496094 136.074219 223.382812 136.207031"/></g><g><g><g><path d="M 43.511719 -1.414062 C 43.75 -0.984375 44.089844 -0.746094 44.554688 -0.683594 L 50.875 0.511719 C 51.714844 0.636719 51.992188 0.164062 51.597656 -0.550781 L 49.355469 -4.644531 C 49.097656 -5.113281 48.710938 -5.332031 48.21875 -5.355469 L 42.550781 -5.546875 C 41.808594 -5.589844 41.503906 -5.078125 41.863281 -4.425781 Z M 40.613281 -0.492188 C 41.484375 -1.714844 40.96875 -2.65625 39.480469 -2.558594 L 1.363281 0.105469 C 0.621094 0.164062 0.359375 0.65625 0.695312 1.269531 L 4.003906 7.304688 C 4.261719 7.777344 4.667969 7.980469 5.1875 7.910156 L 9.429688 7.394531 L 16.046875 19.46875 L 13.332031 22.765625 C 12.992188 23.167969 12.945312 23.617188 13.203125 24.089844 L 16.515625 30.125 C 16.863281 30.761719 17.40625 30.78125 17.863281 30.210938 Z M 27.925781 5.105469 L 20.363281 14.28125 L 16.136719 6.566406 Z M 27.925781 5.105469" transform="translate(10.382 204.596)"/></g></g></g><g><g><g><path d="M 6.957031 8.175781 C 7.367188 8.65625 7.828125 8.695312 8.304688 8.285156 L 16.785156 1.070312 L 24.378906 9.992188 C 24.785156 10.472656 25.246094 10.511719 25.726562 10.101562 L 29.351562 7.015625 C 29.832031 6.609375 29.871094 6.148438 29.460938 5.667969 L 21.867188 -3.253906 L 29.511719 -9.757812 L 38.40625 0.691406 C 38.8125 1.171875 39.292969 1.195312 39.753906 0.800781 L 43.664062 -2.527344 C 44.144531 -2.933594 44.183594 -3.394531 43.773438 -3.875 L 30.222656 -19.800781 C 29.8125 -20.28125 29.351562 -20.316406 28.871094 -19.910156 L 3.027344 2.082031 C 2.546875 2.488281 2.511719 2.949219 2.917969 3.429688 Z M 6.957031 8.175781" transform="translate(32.177 241.95)"/></g></g></g><g><g><g><path d="M 28.066406 5.296875 C 32.121094 6.144531 36.058594 4.429688 39.320312 0.289062 C 43.421875 -4.917969 44.074219 -10.910156 36.230469 -17.09375 L 25.726562 -25.371094 C 25.230469 -25.761719 24.769531 -25.707031 24.382812 -25.210938 L 3.378906 1.445312 C 2.988281 1.9375 3.042969 2.398438 3.539062 2.789062 L 8.46875 6.671875 C 8.945312 7.050781 9.421875 7.007812 9.8125 6.515625 L 16.617188 -2.121094 L 20.90625 1.257812 L 18.414062 13.585938 C 18.292969 14.117188 18.40625 14.503906 18.828125 14.835938 L 24.4375 19.253906 C 24.988281 19.6875 25.515625 19.507812 25.675781 18.773438 Z M 30.859375 -12.351562 C 32.601562 -10.980469 35.832031 -8.40625 32.898438 -4.683594 C 29.792969 -0.742188 26.183594 -3.554688 24.792969 -4.652344 L 20.980469 -7.65625 L 27.046875 -15.355469 Z M 30.859375 -12.351562" transform="translate(55.408 268.588)"/></g></g></g><g><g><g><path d="M 9.394531 5.195312 C 9.945312 5.5 10.390625 5.375 10.695312 4.820312 L 27.121094 -24.875 C 27.425781 -25.425781 27.296875 -25.867188 26.746094 -26.171875 L 21.292969 -29.191406 C 20.742188 -29.496094 20.296875 -29.367188 19.992188 -28.816406 L 3.566406 0.878906 C 3.261719 1.429688 3.390625 1.875 3.941406 2.179688 Z M 9.394531 5.195312" transform="translate(88.141 292.725)"/></g></g></g><g><g><g><path d="M 19.804688 7.785156 C 25.875 9.875 31.652344 9.300781 36.128906 6.621094 C 36.625 6.324219 36.644531 5.910156 36.289062 5.367188 L 32.566406 0.40625 C 32.21875 -0.0820312 31.796875 -0.15625 31.269531 0.15625 C 28.710938 1.570312 25.519531 1.878906 22.253906 0.753906 C 16.164062 -1.34375 13.265625 -7.054688 15.523438 -13.609375 C 17.789062 -20.1875 23.582031 -22.882812 29.648438 -20.789062 C 32.9375 -19.65625 35.242188 -17.457031 36.410156 -14.757812 C 36.632812 -14.1875 37.027344 -13.976562 37.585938 -14.15625 L 43.578125 -15.792969 C 44.164062 -15.988281 44.398438 -16.378906 44.152344 -16.957031 C 42.222656 -21.816406 38.054688 -25.769531 32.074219 -27.828125 C 21.4375 -31.492188 11.511719 -27.039062 7.800781 -16.269531 C 4.09375 -5.503906 9.148438 4.113281 19.804688 7.785156 Z M 19.804688 7.785156" transform="translate(107.375 303.805)"/></g></g></g><g><g><g><path d="M 22.558594 -33.773438 C 22.042969 -35.1875 20.972656 -35.292969 20.210938 -34.007812 L 0.855469 -1.0625 C 0.488281 -0.421875 0.742188 0.0742188 1.441406 0.144531 L 8.289062 0.828125 C 8.824219 0.882812 9.222656 0.664062 9.457031 0.195312 L 11.429688 -3.597656 L 25.132812 -2.230469 L 26.316406 1.875 C 26.453125 2.382812 26.800781 2.675781 27.335938 2.726562 L 34.183594 3.414062 C 34.90625 3.484375 35.230469 3.046875 35.019531 2.347656 Z M 20 -20.144531 L 23.292969 -8.722656 L 14.539062 -9.597656 Z M 20 -20.144531" transform="translate(151.204 317.787)"/></g></g></g><g><g><g><path d="M 17.226562 -3.917969 C 27.148438 -6.175781 28.457031 -11.90625 27.378906 -16.640625 C 26.585938 -20.121094 24.214844 -22.863281 19.582031 -23.339844 C 22.140625 -25.574219 23.234375 -28.765625 22.402344 -32.40625 C 21.277344 -37.367188 17.515625 -40.75 8.867188 -38.78125 L -3.558594 -35.953125 C -4.171875 -35.816406 -4.417969 -35.425781 -4.28125 -34.808594 L 3.246094 -1.71875 C 3.386719 -1.105469 3.777344 -0.859375 4.390625 -1 Z M 5.015625 -30.675781 L 10.292969 -31.878906 C 13.820312 -32.679688 15.152344 -31.449219 15.621094 -29.402344 C 16.101562 -27.285156 15.453125 -25.511719 12.289062 -24.792969 L 6.644531 -23.507812 Z M 8.03125 -17.410156 L 13.8125 -18.722656 C 17.15625 -19.484375 18.671875 -18.082031 19.191406 -15.804688 C 19.683594 -13.644531 19.167969 -11.589844 15.480469 -10.75 L 9.839844 -9.464844 Z M 8.03125 -17.410156" transform="translate(215.074 319.339)"/></g></g></g><g><g><g><path d="M 19.476562 -8.632812 C 29.640625 -13.671875 33.414062 -23.875 28.367188 -34.058594 C 23.320312 -44.246094 12.914062 -47.421875 2.75 -42.386719 C -7.390625 -37.363281 -11.144531 -27.167969 -6.097656 -16.984375 C -1.050781 -6.796875 9.332031 -3.609375 19.476562 -8.632812 Z M 16.171875 -15.304688 C 10.398438 -12.445312 4.300781 -14.398438 1.222656 -20.609375 C -1.867188 -26.84375 0.265625 -32.847656 6.058594 -35.714844 C 11.851562 -38.585938 17.960938 -36.664062 21.046875 -30.433594 C 24.136719 -24.203125 21.964844 -18.175781 16.171875 -15.304688 Z M 16.171875 -15.304688" transform="translate(254.765 309.931)"/></g></g></g><g><g><g><path d="M 12.851562 -10.386719 C 13.324219 -10.765625 13.390625 -11.242188 12.996094 -11.730469 L -4.503906 -33.386719 L 1.304688 -38.082031 C 1.792969 -38.476562 1.828125 -38.957031 1.445312 -39.425781 L -1.78125 -43.421875 C -2.175781 -43.910156 -2.636719 -43.960938 -3.125 -43.5625 L -21.132812 -29.011719 C -21.605469 -28.632812 -21.671875 -28.15625 -21.277344 -27.667969 L -18.050781 -23.671875 C -17.667969 -23.199219 -17.175781 -23.148438 -16.703125 -23.53125 L -10.894531 -28.222656 L 6.605469 -6.566406 C 7 -6.078125 7.480469 -6.042969 7.949219 -6.425781 Z M 12.851562 -10.386719" transform="translate(299.068 286.064)"/></g></g></g><g><g><g><path d="M -15.460938 -37.558594 C -16.917969 -37.917969 -17.601562 -37.089844 -16.960938 -35.742188 L -0.40625 -1.304688 C -0.078125 -0.640625 0.476562 -0.574219 0.921875 -1.113281 L 5.308594 -6.421875 C 5.652344 -6.835938 5.691406 -7.285156 5.433594 -7.742188 L 3.386719 -11.492188 L 12.164062 -22.105469 L 16.230469 -20.800781 C 16.726562 -20.632812 17.164062 -20.753906 17.507812 -21.167969 L 21.894531 -26.476562 C 22.355469 -27.03125 22.171875 -27.546875 21.472656 -27.761719 Z M -5.570312 -27.835938 L 5.746094 -24.199219 L 0.140625 -17.417969 Z M -5.570312 -27.835938" transform="translate(325.486 264.344)"/></g></g></g><g><g><g><path d="M 7.464844 -12.265625 C 10.511719 -18.074219 11.132812 -25.234375 4.25 -28.84375 C -1.496094 -31.859375 -6.230469 -28.914062 -10.160156 -26.046875 C -13.878906 -23.28125 -16.609375 -20.890625 -18.921875 -22.105469 C -20.742188 -23.058594 -20.503906 -25.070312 -19.363281 -27.238281 C -18.335938 -29.203125 -16.582031 -31.339844 -14.636719 -33.035156 C -14.179688 -33.453125 -14.191406 -33.933594 -14.589844 -34.382812 L -18.203125 -37.992188 C -18.625 -38.449219 -19.082031 -38.476562 -19.550781 -38.039062 C -22.019531 -35.695312 -24.332031 -32.746094 -25.632812 -30.265625 C -28.59375 -24.621094 -28.808594 -17.933594 -22.253906 -14.496094 C -17.253906 -11.875 -12.996094 -13.960938 -9.039062 -16.683594 C -5.027344 -19.453125 -1.71875 -22.59375 0.71875 -21.3125 C 2.664062 -20.292969 2.628906 -18.070312 1.261719 -15.46875 C 0.09375 -13.234375 -2.027344 -10.65625 -4.667969 -8.378906 C -5.125 -7.960938 -5.207031 -7.503906 -4.769531 -7.035156 L -1.035156 -3.101562 C -0.605469 -2.609375 -0.15625 -2.613281 0.332031 -3.042969 C 3.671875 -6.242188 5.847656 -9.1875 7.464844 -12.265625 Z M 7.464844 -12.265625" transform="translate(352.235 230.254)"/></g></g></g></svg>