<svg xmlns="http://www.w3.org/2000/svg" width="375" viewBox="0 0 375 375" height="375" version="1.0"><defs><clipPath id="a"><path d="M 4 32.34375 L 372 32.34375 L 372 342.84375 L 4 342.84375 Z M 4 32.34375"/></clipPath></defs><path fill="#FFF" d="M-37.5 -37.5H412.5V412.5H-37.5z"/><path fill="#FFF" d="M-37.5 -37.5H412.5V412.5H-37.5z"/><g clip-path="url(#a)"><path d="M 44.675781 275.046875 C 45.167969 272.820312 45.691406 270.558594 46.253906 268.285156 C 40.164062 265.792969 32.085938 267.375 25.878906 264.980469 C 20.085938 262.765625 14.714844 260.621094 10.226562 256.550781 C 10.128906 258.128906 9.988281 259.6875 9.589844 261.136719 C 8.261719 266.34375 14.890625 268.261719 18.660156 270.257812 C 25.410156 273.816406 32.949219 277.609375 40.367188 279.824219 C 41.46875 278.84375 42.808594 277.851562 44.375 276.894531 C 44.449219 276.269531 44.554688 275.660156 44.675781 275.046875 Z M 47.558594 263.507812 C 48.050781 261.878906 48.625 260.273438 49.234375 258.730469 C 43.300781 257.339844 38.191406 255.9375 32.039062 253.820312 C 26.835938 252.070312 17.574219 248.289062 15.3125 242.996094 C 14.761719 241.691406 14.402344 240.433594 14.101562 239.199219 C 11.21875 241.488281 10.332031 250.023438 12.667969 252.167969 C 16.808594 255.988281 21.808594 258.597656 27.179688 260.226562 C 33.464844 262.152344 41.300781 261.339844 47.558594 263.507812 Z M 97.46875 232.914062 C 90.722656 233.777344 83.851562 233.777344 76.828125 233.777344 C 67.195312 233.777344 58.125 232.890625 48.769531 230.6875 C 38.910156 228.351562 32.039062 223.421875 23.542969 218.691406 C 23.113281 219.671875 22.730469 220.652344 22.335938 221.695312 C 20.335938 227.070312 14.964844 236.410156 20.875 241.488281 C 29.765625 249.101562 40.417969 251.75 51.351562 254.167969 C 53.566406 250.121094 56.5 246.539062 60.589844 243.976562 C 64.40625 241.582031 71.527344 241.09375 75.96875 240.039062 C 83.363281 238.265625 90.503906 235.824219 97.46875 232.914062 Z M 139.136719 180.101562 C 138.527344 179.191406 137.925781 178.28125 137.316406 177.394531 C 136.203125 175.839844 135.292969 174.089844 134.433594 172.28125 C 131.847656 173.695312 129.167969 175.046875 126.378906 176.28125 C 112.117188 182.519531 95.53125 183.382812 80.574219 187.25 C 66.753906 190.828125 48.625 194.039062 36.648438 202.046875 C 34.46875 203.496094 32.648438 205.078125 31.023438 206.800781 C 46.207031 219.648438 67.078125 217.816406 85.601562 217.925781 C 102.699219 217.996094 121.269531 208.429688 136.597656 201.425781 C 134.898438 196.179688 134.085938 190.875 135.941406 186.195312 C 136.800781 183.96875 137.878906 181.957031 139.136719 180.101562 Z M 139.648438 209.433594 C 139.195312 208.332031 138.71875 207.21875 138.273438 206.09375 C 133.824219 208.285156 129.480469 211.113281 124.824219 212.714844 C 117.332031 215.3125 109.769531 216.90625 102.496094 220.296875 C 94.8125 223.886719 86.066406 222.679688 77.871094 222.679688 C 60.148438 222.679688 42.210938 222.460938 27.921875 210.574219 C 27.085938 211.734375 26.367188 212.992188 25.675781 214.25 C 31.550781 217.625 36.597656 221.886719 43.203125 224.007812 C 47.332031 225.335938 51.425781 225.957031 55.660156 226.890625 C 65.292969 228.964844 74.613281 228.914062 84.414062 228.84375 C 96.273438 228.796875 106.792969 226.890625 117.261719 221.371094 C 124.679688 217.480469 131.871094 212.5 139.648438 209.433594 Z M 142.714844 216.90625 C 142.367188 215.949219 141.972656 214.96875 141.554688 213.972656 C 136.035156 216.070312 130.890625 219.15625 125.710938 222.210938 C 131.40625 220.4375 137.089844 218.738281 142.714844 216.90625 Z M 142.320312 176.019531 C 142.34375 175.980469 142.367188 175.933594 142.390625 175.910156 C 142.066406 173.300781 141.71875 170.691406 141.578125 168.042969 C 140.644531 168.667969 139.710938 169.230469 138.742188 169.828125 C 139.578125 171.601562 140.5 173.347656 141.554688 174.90625 C 141.828125 175.277344 142.042969 175.648438 142.320312 176.019531 Z M 147.367188 171.230469 C 148.625 170.222656 149.929688 169.230469 151.28125 168.296875 C 148.695312 167.230469 146.78125 166.367188 146.746094 166.152344 C 146.996094 167.804688 147.199219 169.527344 147.367188 171.230469 Z M 150.789062 186.828125 C 150.789062 186.542969 150.816406 186.125 150.765625 185.753906 C 150.71875 185.726562 150.625 185.679688 150.492188 185.644531 C 150.179688 185.597656 149.4375 185.574219 148.875 185.644531 C 148.898438 185.824219 148.925781 185.96875 148.925781 186.125 C 148.972656 186.265625 148.996094 186.433594 148.996094 186.613281 C 149.019531 186.757812 149.019531 186.9375 149.042969 187.082031 C 149.484375 187.058594 149.90625 187.007812 150.324219 186.9375 C 150.492188 186.890625 150.648438 186.855469 150.789062 186.828125 Z M 156.882812 164.714844 C 158.234375 163.914062 159.609375 163.121094 160.972656 162.332031 C 160.027344 160.5 159.117188 158.800781 158.855469 157.589844 C 158.628906 156.609375 158.378906 155.652344 158.160156 154.683594 C 155.746094 157.050781 153.230469 159.328125 150.597656 161.46875 C 152.71875 162.40625 154.8125 163.566406 156.882812 164.714844 Z M 170.1875 156.933594 C 169.914062 156.835938 169.660156 156.730469 169.421875 156.609375 C 166.632812 155.28125 164.816406 153.820312 163.164062 152.203125 C 163.976562 154.585938 165.03125 157.027344 166.023438 159.421875 C 167.421875 158.609375 168.859375 157.792969 170.1875 156.933594 Z M 170.582031 172.785156 C 170.449219 172.714844 170.285156 171.996094 170.285156 171.945312 C 170.1875 171.695312 170.078125 171.480469 169.960938 171.277344 C 170.007812 171.347656 169.515625 171.230469 169.253906 171.277344 C 168.835938 171.371094 168.464844 171.527344 168.070312 171.648438 C 167.9375 171.996094 167.792969 172.257812 167.566406 172.511719 C 167.566406 172.855469 167.566406 173.179688 167.589844 173.527344 C 167.589844 173.574219 167.589844 173.574219 167.589844 173.625 C 168.164062 173.625 168.726562 173.574219 169.265625 173.394531 C 169.492188 173.324219 170.402344 173.023438 170.582031 172.785156 Z M 175.164062 230.914062 C 175.355469 230.195312 175.609375 229.503906 175.871094 228.820312 C 170.871094 224.75 166.382812 219.601562 163.832031 214.152344 C 161.417969 215.433594 158.976562 216.667969 156.511719 217.816406 C 144.460938 223.492188 131.261719 225.417969 118.757812 229.707031 C 103.117188 235.058594 88.304688 243.320312 71.945312 246.421875 C 70.175781 246.769531 68.597656 247.1875 67.171875 247.679688 C 70.714844 256.945312 86.929688 261.015625 95.746094 262.644531 C 106.347656 264.558594 118.78125 263.648438 129.359375 262.023438 C 145.871094 259.507812 161.703125 253.988281 177.285156 247.882812 C 176.097656 242.375 173.980469 235.320312 175.164062 230.914062 Z M 175.679688 153.136719 C 176.050781 152.863281 176.410156 152.5625 176.757812 152.300781 C 173.847656 149.234375 170.75 146.203125 168.980469 142.707031 C 167.746094 144.230469 166.488281 145.761719 165.210938 147.222656 C 167.675781 149.761719 170.140625 151.976562 174.292969 152.8125 C 174.769531 152.910156 175.238281 153.042969 175.679688 153.136719 Z M 179.175781 256.683594 C 178.683594 255.425781 178.3125 254.144531 178.121094 252.800781 C 155.996094 261.433594 134.015625 268.285156 109.890625 268.285156 C 95.136719 268.285156 69.46875 265.554688 62.792969 249.773438 C 61.308594 250.730469 60.050781 251.84375 58.890625 253.171875 C 71.035156 270.414062 100.878906 272.929688 119.75 271.960938 C 133.152344 271.300781 147.992188 269.445312 160.375 264.117188 C 166.144531 261.640625 172.84375 258.359375 179.175781 256.683594 Z M 183.480469 218.09375 C 181.890625 216.992188 180.476562 215.625 179.175781 214.152344 C 177.964844 212.800781 172.542969 210.40625 170.054688 210.679688 C 169.683594 210.894531 169.289062 211.136719 168.894531 211.363281 C 168.679688 211.902344 168.871094 212.800781 169.816406 214.152344 C 172.125 217.554688 175.058594 221.027344 178.359375 224.066406 C 179.796875 221.910156 181.542969 219.949219 183.480469 218.09375 Z M 182.847656 210.871094 C 182.191406 208.285156 181.449219 205.699219 181.589844 203.003906 C 180.144531 204.121094 178.636719 205.148438 177.128906 206.191406 C 179.664062 207.269531 181.171875 209.074219 182.847656 210.871094 Z M 180.3125 149.460938 C 182.238281 147.855469 184.105469 146.179688 185.875 144.433594 C 181.566406 142.359375 177.546875 139.273438 173.121094 137.261719 C 172.941406 137.5 172.773438 137.75 172.59375 137.96875 C 173.046875 142.289062 176.734375 145.964844 180.3125 149.460938 Z M 189.574219 159.757812 C 189.574219 159.21875 189.644531 158.609375 189.523438 158.058594 C 189.5 157.9375 189.476562 157.746094 189.429688 157.542969 C 188.757812 157.664062 187.25 158.191406 186.425781 158.753906 C 186.316406 159.003906 186.148438 159.21875 185.945312 159.421875 C 185.972656 159.722656 185.921875 160.332031 185.945312 160.332031 C 186.339844 160.824219 187.011719 161.816406 187.707031 161.890625 C 188.410156 161.890625 189.40625 162.105469 189.523438 161.316406 C 189.621094 160.824219 189.574219 160.261719 189.574219 159.757812 Z M 189.40625 140.660156 C 189.871094 140.144531 190.339844 139.644531 190.804688 139.105469 C 186.640625 136.027344 181.984375 132.304688 179.222656 128.28125 C 178.144531 129.980469 177.03125 131.65625 175.894531 133.308594 C 180.3125 135.703125 184.703125 139.082031 189.40625 140.660156 Z M 191.644531 236.996094 C 192.085938 236.6875 191.859375 236.410156 191.820312 235.574219 C 191.820312 235.128906 191.402344 234.734375 191.054688 234.484375 C 190.480469 234.039062 189.847656 233.800781 189.285156 233.871094 C 188.984375 234.363281 188.566406 234.757812 188.039062 235.035156 C 187.753906 235.691406 187.707031 236.316406 187.707031 237.082031 C 187.730469 237.226562 187.753906 237.367188 187.753906 237.476562 C 189.011719 238.339844 190.339844 237.917969 191.644531 236.996094 Z M 193.785156 135.378906 C 196.34375 132.074219 198.714844 128.53125 201.011719 124.710938 C 197.53125 124.316406 194.058594 123.574219 190.53125 122.34375 C 181.984375 119.382812 186.316406 129.144531 190.0625 132.472656 C 191.246094 133.535156 192.527344 134.472656 193.785156 135.378906 Z M 198.808594 207.542969 C 198.4375 206.824219 198.082031 206.144531 197.671875 205.449219 C 195.757812 202.023438 194.800781 196.898438 191.941406 194.253906 C 191.105469 194.996094 190.289062 195.761719 189.476562 196.503906 C 188.566406 197.332031 187.609375 198.121094 186.664062 198.933594 C 186.519531 200.394531 186.425781 201.773438 186.519531 202.957031 C 186.761719 206.707031 188.039062 210.285156 188.542969 213.925781 C 191.847656 211.484375 195.386719 209.363281 198.808594 207.542969 Z M 203.859375 119.78125 C 204.183594 119.203125 204.480469 118.640625 204.804688 118.078125 C 203.835938 117.613281 203.058594 117.21875 202.6875 116.917969 C 199.527344 114.5 196.574219 111.960938 193.570312 109.375 C 192.648438 108.609375 191.820312 107.792969 191.054688 106.933594 C 190.433594 108.191406 189.871094 109.421875 189.226562 110.65625 C 188.4375 112.210938 187.632812 113.734375 186.820312 115.265625 C 193.222656 117.167969 198.199219 119.085938 203.859375 119.78125 Z M 207.484375 151.699219 C 204.183594 153.160156 200.019531 152.300781 197.648438 149.4375 C 196.917969 148.550781 196.917969 147.507812 197.339844 146.671875 C 197.277344 146.527344 197.253906 146.40625 197.230469 146.253906 C 195.617188 146.550781 194.058594 146.601562 192.574219 146.457031 C 190.503906 148.789062 188.292969 150.886719 185.851562 152.492188 C 185.335938 152.863281 184.761719 153.207031 184.222656 153.554688 C 184.378906 153.722656 184.523438 153.890625 184.679688 154.070312 C 186.496094 153.089844 188.640625 152.539062 190.160156 152.644531 C 193.988281 152.886719 194.574219 157.101562 194.503906 160.140625 C 194.453125 161.890625 194.3125 163.660156 193.042969 165.015625 C 191.617188 166.570312 189.726562 166.785156 187.707031 166.824219 C 187.285156 166.824219 186.941406 166.714844 186.640625 166.59375 C 183.386719 165.78125 181.171875 162.941406 181.078125 159.664062 C 179.472656 159.375 177.820312 159.074219 176.171875 158.703125 C 173.335938 160.453125 170.511719 162.199219 167.699219 163.960938 C 167.9375 164.738281 168.117188 165.53125 168.261719 166.296875 C 168.355469 166.34375 168.464844 166.390625 168.558594 166.453125 C 171.050781 166.152344 173.464844 166.964844 174.613281 169.601562 C 175.332031 171.203125 176.074219 173.347656 174.984375 175 C 173.957031 176.558594 172.402344 177.695312 170.605469 178.160156 C 168.871094 178.605469 166.835938 178.867188 165.160156 178.113281 C 163.605469 177.371094 162.960938 175.8125 162.746094 174.1875 C 162.671875 173.648438 162.636719 173.132812 162.671875 172.605469 C 161.164062 172.113281 159.226562 171.394531 157.191406 170.640625 C 154.019531 172.761719 150.886719 174.976562 147.835938 177.300781 C 147.90625 178.472656 147.964844 179.632812 148.003906 180.820312 C 150.597656 180.351562 153.746094 180.9375 155.039062 183.117188 C 155.71875 184.292969 155.792969 185.847656 155.71875 187.199219 C 155.625 188.828125 155.097656 190.183594 153.652344 191.042969 C 152.371094 191.8125 150.671875 191.8125 149.234375 192.015625 C 147.667969 192.207031 145.835938 192.109375 144.976562 190.554688 C 144.4375 189.570312 144.257812 188.554688 144.160156 187.570312 C 143.457031 186.519531 142.738281 185.453125 142.042969 184.398438 C 140.25 188.554688 140.453125 193.222656 141.503906 197.953125 C 167.050781 187.894531 192.230469 175.25 207.484375 151.699219 Z M 206.207031 146.792969 C 206.253906 146.742188 206.15625 145.222656 206.132812 144.949219 C 206.050781 144.277344 205.808594 143.34375 205.140625 143.03125 C 204.601562 142.757812 202.878906 142.851562 202.183594 143.5 C 202.136719 143.691406 202.042969 143.917969 201.921875 144.109375 C 201.863281 144.671875 202.042969 145.292969 202.207031 145.832031 C 202.339844 146.132812 202.410156 146.433594 202.578125 146.71875 C 202.601562 146.765625 202.628906 146.792969 202.652344 146.851562 C 203.058594 146.996094 203.394531 147.1875 203.644531 147.460938 C 204.457031 147.582031 205.34375 147.390625 206.207031 146.792969 Z M 204.851562 204.539062 C 206.695312 203.675781 208.539062 202.730469 210.417969 201.75 C 206.578125 200.023438 202.78125 198.144531 199.039062 196.203125 C 199.109375 196.625 199.179688 197.019531 199.3125 197.390625 C 200.269531 199.976562 201.621094 202.753906 203.023438 205.398438 C 203.644531 205.101562 204.253906 204.800781 204.851562 204.539062 Z M 206.945312 113.960938 C 208.644531 110.535156 210.226562 107.027344 211.53125 103.4375 C 205.632812 102.226562 199.625 99.976562 196.691406 98.921875 C 195.949219 98.648438 195.386719 98.503906 194.875 98.40625 C 194.429688 99.460938 193.964844 100.503906 193.519531 101.53125 C 194.574219 103.28125 196.273438 105.207031 197.039062 105.902344 C 200.136719 108.703125 203.371094 111.613281 206.945312 113.960938 Z M 212.859375 221.421875 C 212.859375 221.398438 212.90625 221.398438 213.027344 221.398438 C 212.976562 221.398438 212.90625 221.398438 212.859375 221.398438 Z M 213.144531 225.910156 C 214.1875 225.214844 214.558594 222.773438 213.601562 221.910156 C 213.445312 221.792969 212.882812 221.550781 212.835938 221.445312 C 212.296875 222.484375 210.933594 223.214844 209.628906 222.820312 C 209.878906 224.1875 211.671875 226.558594 213.144531 225.910156 Z M 218.253906 132.652344 C 214.605469 132.304688 212.632812 129.488281 212.558594 125.789062 C 212.535156 125.417969 212.582031 125.082031 212.605469 124.710938 C 210.574219 124.929688 208.539062 125.023438 206.578125 125.023438 C 204.085938 129.167969 201.417969 134.027344 198.390625 138.636719 C 198.785156 138.9375 199.179688 139.261719 199.550781 139.570312 C 201.71875 137.917969 204.699219 137.332031 207.269531 138.589844 C 209.53125 139.667969 210.691406 141.964844 210.992188 144.382812 C 211.027344 144.804688 211.085938 145.246094 211.085938 145.664062 C 213.5625 141.367188 215.910156 137.007812 218.253906 132.652344 Z M 215.910156 198.765625 C 216.628906 198.347656 217.34375 197.929688 218.027344 197.511719 C 216.003906 194.503906 213.671875 190.902344 212.632812 187.597656 C 212.117188 185.945312 211.671875 184.339844 211.277344 182.769531 C 209.28125 182.125 207.484375 181.539062 205.953125 181.011719 C 203.105469 184.003906 200.066406 186.855469 197.039062 189.644531 C 203.226562 192.851562 209.460938 196.085938 215.910156 198.765625 Z M 219.535156 127.121094 C 219.761719 126.976562 219.511719 126.28125 219.535156 125.910156 C 219.558594 124.929688 219.703125 123.035156 218.148438 123.550781 C 217.140625 123.875 217.417969 125.417969 217.511719 126.28125 C 217.5625 126.785156 217.632812 127.15625 217.835938 127.371094 C 217.835938 127.371094 217.859375 127.371094 217.882812 127.371094 C 218.375 127.347656 219.117188 127.394531 219.535156 127.121094 Z M 220.179688 99.292969 C 220.242188 99.199219 220.324219 99.113281 220.398438 99.019531 C 220.277344 98.671875 219.558594 97.929688 218.183594 96.597656 C 218.027344 97.316406 217.859375 98.011719 217.703125 98.71875 C 218.914062 99.042969 219.785156 99.292969 220.179688 99.292969 Z M 222.277344 194.875 C 225.46875 192.804688 228.582031 190.53125 231.5625 188.109375 C 226.65625 187.175781 221.484375 185.824219 216.769531 184.445312 C 217.957031 187.847656 219.632812 191.128906 221.675781 194.109375 C 221.855469 194.347656 222.046875 194.601562 222.277344 194.875 Z M 227.730469 105.003906 C 227.730469 105.53125 228.03125 105.460938 227.707031 104.765625 C 227.097656 103.304688 226.882812 102.046875 225.375 101.902344 C 224.90625 102.441406 224.371094 102.863281 223.722656 103.207031 C 223.578125 103.902344 223.496094 104.667969 223.925781 105.230469 C 224.824219 106.464844 226.332031 106.417969 227.730469 106.214844 C 227.730469 105.820312 227.730469 105.421875 227.730469 105.003906 Z M 230.425781 111.589844 C 229.347656 112.03125 228.140625 112.058594 226.824219 111.867188 C 226.378906 111.816406 226.046875 111.542969 225.746094 111.21875 C 224.585938 111.195312 223.449219 110.980469 222.46875 110.355469 C 220.636719 109.230469 219.390625 107.699219 218.792969 105.628906 C 218.675781 105.207031 218.648438 104.742188 218.625 104.273438 C 217.882812 104.273438 217.117188 104.226562 216.304688 104.179688 C 216.054688 104.980469 215.789062 105.769531 215.492188 106.511719 C 214.113281 109.816406 212.726562 113.097656 211.207031 116.332031 C 212.976562 117.167969 214.628906 117.898438 215.789062 119.203125 C 216.53125 118.808594 217.441406 118.59375 218.46875 118.546875 C 220.300781 118.472656 222.097656 119.382812 223.210938 120.808594 C 223.605469 121.324219 223.84375 121.851562 224.023438 122.390625 C 224.40625 121.71875 224.777344 121.035156 225.195312 120.367188 C 226.917969 117.589844 228.75 114.65625 230.425781 111.589844 Z M 232.171875 208.238281 C 232.6875 207.589844 231.777344 205.722656 231.191406 205.398438 C 230.351562 204.933594 229.265625 204.824219 228.535156 205.375 C 228.496094 205.472656 228.496094 205.566406 228.472656 205.675781 C 228.355469 206.117188 228.078125 206.453125 227.769531 206.753906 C 227.769531 207.003906 227.769531 207.269531 227.816406 207.519531 C 227.960938 207.617188 228.101562 207.664062 228.257812 207.796875 C 229.238281 208.777344 231.046875 209.6875 232.171875 208.238281 Z M 238.476562 62.441406 C 237.269531 56.226562 235.175781 49.113281 230.328125 45.101562 C 216.652344 33.765625 210.023438 52.011719 207.042969 62.285156 C 204.085938 72.4375 200.929688 82.792969 197.085938 92.828125 C 202.160156 94.382812 207.460938 97.269531 212.019531 97.6875 C 212.488281 97.738281 212.929688 97.785156 213.347656 97.832031 C 213.398438 97.738281 213.421875 97.640625 213.445312 97.546875 C 214.535156 93.59375 214.953125 89.234375 216.425781 85.417969 C 216.183594 85.117188 215.980469 84.816406 215.910156 84.46875 C 212.90625 70.867188 226.308594 64.054688 238.476562 62.441406 Z M 233.082031 106.417969 C 236.445312 99.292969 238.632812 91.703125 237.269531 84.050781 C 237.246094 83.980469 237.269531 83.933594 237.269531 83.859375 C 231.777344 85.777344 226.332031 87.09375 221.1875 86.722656 C 220.742188 87.65625 220.324219 88.636719 219.976562 89.679688 C 220.179688 90.003906 220.300781 90.363281 220.347656 90.78125 C 220.445312 91.941406 223.078125 94.945312 224.800781 96.96875 C 224.882812 96.96875 224.933594 96.945312 225.003906 96.945312 C 227.027344 96.945312 228.75 97.414062 230.171875 98.898438 C 231.5 100.273438 233.058594 103.113281 233.058594 105.003906 C 233.058594 105.460938 233.082031 105.925781 233.082031 106.417969 Z M 239.78125 180.566406 C 239.613281 180.425781 239.472656 180.28125 239.292969 180.101562 C 233.453125 174.535156 225.566406 168.617188 222.25 160.945312 C 219.796875 164.03125 217.308594 167.0625 215.046875 170.042969 C 214.808594 171.996094 214.785156 173.957031 214.929688 175.910156 C 217.371094 176.628906 219.761719 177.539062 222.46875 178.722656 C 226.882812 180.589844 231.585938 182.867188 236.445312 183.894531 C 237.59375 182.820312 238.703125 181.707031 239.78125 180.566406 Z M 238.167969 291.1875 C 246.734375 287.621094 254.992188 282.363281 263.511719 278.03125 C 258.925781 267.421875 238.035156 261.460938 228.558594 262.128906 C 219.234375 262.789062 210.273438 263.207031 201.300781 266.164062 C 196.25 267.816406 192.191406 271.167969 186.84375 270.355469 C 185.945312 270.234375 185.410156 269.398438 185.121094 268.632812 C 184.175781 266.164062 182.75 263.734375 181.386719 261.265625 C 176.121094 262.742188 171.324219 266.09375 165.976562 267.601562 C 159.371094 269.421875 153.003906 272.355469 146.207031 273.539062 C 133.082031 275.828125 119.941406 277.382812 106.589844 276.917969 C 89.882812 276.355469 67.242188 271.445312 55.984375 257.519531 C 55.839844 258.15625 55.492188 258.777344 54.953125 259.195312 C 54.535156 260 54.117188 260.847656 53.6875 261.734375 C 51.351562 266.761719 50.957031 271.253906 49.425781 276.355469 C 49.332031 276.664062 49.308594 276.964844 49.234375 277.265625 C 49.558594 278.007812 49.605469 278.84375 49.117188 279.527344 C 49.449219 282.148438 51.425781 283.945312 53.84375 286.160156 C 74.949219 305.664062 112.1875 306.011719 139.292969 309.878906 C 156.34375 312.320312 177.210938 312.226562 194.035156 308.859375 C 209.207031 305.808594 223.84375 297.152344 238.167969 291.1875 Z M 242.84375 177.167969 C 245.359375 174.164062 247.621094 170.976562 249.523438 167.578125 C 242.523438 166.570312 235.675781 164.5 230.078125 159.914062 C 228.75 158.910156 227.46875 157.820312 226.238281 156.707031 C 227.242188 160.777344 229.011719 163.851562 232.46875 167.109375 C 235.941406 170.4375 239.710938 173.527344 242.84375 177.167969 Z M 245.035156 106.933594 C 242.773438 107.050781 240.082031 106.957031 238.597656 105.066406 C 237.425781 107.769531 236.085938 110.488281 234.707031 113.265625 C 227.984375 126.699219 220.695312 140.78125 212.320312 153.304688 C 203.765625 166.105469 195.183594 176.582031 181.339844 183.730469 C 168.511719 190.363281 156.1875 197.304688 142.785156 202.683594 C 144.183594 207.078125 145.992188 211.386719 147.367188 215.339844 C 152.488281 213.53125 157.550781 211.566406 162.421875 209.21875 C 162.515625 208.800781 162.746094 208.382812 163.066406 208.105469 C 165.03125 206.429688 167.472656 205.472656 170.03125 205.195312 C 174.292969 202.683594 178.359375 199.773438 182.238281 196.371094 C 182.476562 194.300781 182.75 192.253906 182.96875 190.230469 C 183.085938 189.222656 183.636719 188.015625 184.796875 187.847656 C 186.6875 187.570312 189.082031 187.570312 191.34375 187.992188 C 194.429688 185.082031 197.457031 182.101562 200.390625 179.070312 C 198.199219 178.722656 198.273438 174.210938 200.640625 174.210938 C 202.160156 174.210938 203.535156 174.257812 204.851562 174.304688 C 206.71875 172.234375 208.539062 170.113281 210.320312 167.949219 C 210.632812 166.152344 211.113281 164.332031 211.816406 162.453125 C 212.488281 160.703125 214.4375 160.453125 215.695312 161.195312 C 217.34375 159.101562 219.042969 156.980469 220.695312 154.835938 C 220.613281 153.652344 220.589844 152.441406 220.769531 151.183594 C 220.910156 149.976562 221.4375 149.28125 222.5625 148.816406 C 222.8125 148.71875 223.054688 148.625 223.304688 148.527344 C 223.84375 148.277344 224.488281 148.417969 225.003906 148.695312 C 225.699219 147.617188 226.355469 146.527344 226.953125 145.4375 C 228.472656 142.554688 229.585938 139.546875 230.675781 136.542969 C 230.59375 136.003906 230.542969 135.429688 230.449219 134.816406 C 230.101562 132.050781 231.070312 130.914062 232.566406 130.699219 C 234.636719 125.742188 237.59375 119.753906 240.65625 115.492188 C 242.5 112.894531 243.800781 109.9375 245.035156 106.933594 Z M 249.425781 97.367188 C 250.695312 95.199219 251.761719 92.960938 252.742188 90.707031 C 249.761719 91.378906 247.226562 93.03125 245.214844 95.523438 C 243.539062 97.507812 242.523438 99.605469 242.75 102.25 C 242.691406 101.710938 246.148438 101.832031 247.152344 101.878906 C 247.847656 100.324219 248.578125 98.800781 249.425781 97.367188 Z M 251.808594 162.941406 C 251.964844 162.570312 252.105469 162.238281 252.25 161.867188 C 252.132812 161.757812 252.011719 161.660156 251.855469 161.566406 C 245.921875 156.910156 238.730469 152.515625 234.074219 146.433594 C 233.65625 145.855469 233.285156 145.320312 232.960938 144.804688 C 231.777344 147.246094 230.402344 149.605469 228.867188 151.902344 C 234.335938 156.585938 240.476562 161.21875 247.691406 162.378906 C 249.054688 162.644531 250.433594 162.824219 251.808594 162.941406 Z M 254.058594 157.027344 C 255.015625 154.117188 255.851562 151.210938 256.59375 148.300781 C 249.820312 146.324219 243.179688 142.132812 239.101562 138.566406 C 237.542969 137.175781 236.585938 136.542969 236.085938 136.421875 C 235.964844 136.710938 235.867188 137.03125 235.75 137.332031 C 236.609375 139.773438 241.109375 146.109375 242.988281 148.058594 C 246.21875 151.460938 250.132812 154.347656 254.058594 157.027344 Z M 258.316406 76.460938 C 258.363281 76.339844 258.414062 76.183594 258.484375 76.015625 C 253.160156 77.503906 247.5 79.957031 241.804688 82.183594 C 241.875 82.351562 241.984375 82.507812 242.03125 82.746094 C 242.546875 85.75 242.640625 88.613281 242.402344 91.378906 C 245.632812 87.929688 249.964844 85.75 254.824219 85.488281 C 255.949219 82.484375 257.035156 79.441406 258.316406 76.460938 Z M 268.070312 275.804688 C 269.207031 275.289062 270.367188 274.796875 271.515625 274.332031 C 263.535156 262.273438 246.242188 256.875 232.664062 255.964844 C 217.441406 254.957031 200.570312 253.222656 186.84375 260.417969 C 188.855469 264.585938 188.6875 266.296875 195.710938 262.882812 C 204.722656 258.5 218.496094 256.359375 228.558594 257.195312 C 240.378906 258.179688 262.746094 262.691406 268.070312 275.804688 Z M 275.980469 148.996094 C 276.863281 148.597656 277.332031 146.875 276.519531 146.179688 C 275.585938 145.390625 273.980469 146.371094 273.597656 147.269531 C 273.441406 147.640625 273.324219 148.085938 273.347656 148.503906 C 274.003906 149.136719 274.996094 149.390625 275.980469 148.996094 Z M 283.960938 308.667969 C 283.695312 306.25 283.492188 303.808594 283.003906 303.964844 C 281.652344 304.335938 280.335938 304.753906 279.03125 305.199219 C 279.304688 305.269531 279.558594 305.363281 279.722656 305.484375 C 280.359375 305.902344 280.910156 306.453125 281.554688 306.851562 C 282.429688 307.414062 283.171875 308.105469 283.960938 308.667969 Z M 292.753906 99.878906 C 290.398438 94.875 288.9375 89.847656 285.5625 85.046875 C 282.164062 80.230469 275.957031 72.988281 270.605469 70.664062 C 265.1875 68.304688 262.457031 78.722656 261.558594 81.5625 C 255.949219 99.113281 245.082031 114.082031 237.890625 130.746094 C 237.890625 131.117188 237.84375 131.511719 237.664062 131.882812 C 237.664062 131.910156 237.664062 131.933594 237.640625 131.933594 C 239.816406 132.9375 241.804688 134.328125 242.570312 135.058594 C 247.007812 139.332031 252.15625 141.941406 257.851562 143.078125 C 259.046875 137.597656 260.113281 132.074219 261.34375 126.4375 C 257.179688 125.300781 254.367188 122.292969 257.765625 116.425781 C 263.953125 105.699219 281.207031 102.371094 292.753906 99.878906 Z M 277.582031 55.136719 C 282.261719 53.832031 289.105469 52.765625 295.054688 50.671875 C 286.917969 46.980469 276.445312 47.761719 267.972656 47.964844 C 257.945312 48.179688 250.433594 51.414062 241.480469 54.644531 C 242.332031 57.113281 242.941406 59.601562 243.40625 62.070312 C 243.660156 62.042969 243.921875 62.042969 244.171875 62.042969 C 255.480469 62.042969 266.789062 58.164062 277.582031 55.136719 Z M 288.449219 120.292969 C 288.003906 120.414062 287.5625 120.570312 287.121094 120.691406 C 279.796875 122.785156 274.257812 126.582031 266.742188 126.953125 C 266.597656 126.953125 266.417969 126.953125 266.273438 126.953125 C 265.855469 128.832031 265.460938 130.699219 265.089844 132.566406 C 265.113281 132.675781 265.1875 132.746094 265.210938 132.867188 C 265.953125 135.894531 270.234375 138.710938 272.605469 141.714844 C 273.238281 141.476562 273.886719 141.246094 274.628906 141.199219 C 276.46875 141.03125 278.695312 141.175781 280 142.707031 C 283.050781 146.253906 282.046875 151.722656 277.679688 153.582031 C 275.980469 154.285156 274.136719 154.214844 272.460938 153.628906 C 272.414062 153.628906 272.367188 153.652344 272.28125 153.652344 C 270.234375 153.652344 269.132812 152.300781 268.691406 150.5625 C 268.394531 150.070312 268.175781 149.53125 267.996094 148.96875 C 265.953125 149.484375 263.785156 149.558594 261.535156 149.304688 C 260.652344 152.980469 259.644531 156.5625 258.414062 160.058594 C 259.886719 161.171875 261.152344 162.429688 261.789062 164.082031 C 262.949219 163.542969 264.203125 163.242188 265.414062 163.519531 C 270.1875 164.621094 272.019531 170.90625 270.367188 175.070312 C 270.320312 175.167969 270.234375 175.25 270.1875 175.347656 C 270.164062 175.441406 270.140625 175.539062 270.117188 175.648438 C 266.957031 182.792969 256.414062 177.539062 256.832031 170.929688 C 256.917969 170.066406 257.109375 169.179688 257.457031 168.34375 C 256.640625 168.296875 255.804688 168.246094 254.96875 168.175781 C 252.644531 172.832031 249.691406 177.214844 245.824219 181.285156 C 246.292969 182.148438 246.6875 183.058594 246.9375 183.945312 C 248.683594 183.308594 250.828125 182.792969 252.5 183.753906 C 254.128906 184.6875 255.039062 186.363281 255.300781 188.195312 C 255.578125 190.039062 255.601562 192.230469 254.5 193.882812 C 253.507812 195.34375 251.6875 197.257812 249.882812 197.628906 C 247.058594 198.203125 244.988281 196.574219 243.828125 194.300781 C 243.621094 194.15625 243.429688 193.988281 243.265625 193.738281 C 242.472656 192.578125 241.984375 190.949219 241.898438 189.402344 C 240.59375 189.34375 239.171875 189.25 237.6875 189.082031 C 233.871094 192.457031 229.800781 195.738281 225.613281 198.695312 C 226.140625 199.28125 226.605469 199.90625 227.050781 200.539062 C 227.492188 200.347656 227.984375 200.191406 228.496094 200.144531 C 230.496094 199.953125 232.46875 200.265625 234.121094 201.449219 C 237.078125 203.582031 238.476562 208.921875 235.675781 211.734375 C 234.144531 213.265625 232.265625 213.851562 230.125 213.851562 C 229.238281 213.851562 228.472656 213.660156 227.769531 213.363281 C 227.46875 213.386719 227.167969 213.410156 226.882812 213.363281 C 224.167969 212.945312 222.671875 209.519531 222.789062 206.5625 C 220.636719 205.890625 218.542969 205.148438 216.460938 204.3125 C 215.695312 204.707031 214.953125 205.148438 214.1875 205.496094 C 211.792969 206.679688 208.695312 208.058594 205.367188 209.664062 C 206.695312 212.035156 208.15625 214.597656 209.972656 216.714844 C 213.050781 215.972656 216.628906 216.8125 218.148438 219.769531 C 219.785156 222.976562 219.140625 226.976562 216.578125 229.382812 C 216.351562 229.683594 216.089844 229.980469 215.632812 230.148438 C 215.214844 230.449219 214.808594 230.542969 214.4375 230.566406 C 211.230469 231.40625 208.082031 230.148438 206.207031 227.167969 C 204.699219 224.75 204.230469 221.625 205.761719 219.375 C 203.894531 217.109375 202.386719 214.5 201.011719 211.828125 C 193.460938 215.78125 185.730469 220.859375 182.355469 227.3125 C 183.636719 228.257812 184.964844 229.070312 186.316406 229.800781 C 189.058594 228.222656 192.695312 228.867188 194.921875 231.335938 C 197.339844 234.039062 197.78125 238.6875 194.550781 240.972656 C 193.125 241.953125 190.734375 243.164062 188.9375 243.019531 C 187.800781 242.949219 186.867188 242.648438 185.972656 242.160156 C 185.457031 242.109375 184.964844 241.929688 184.523438 241.488281 C 183.828125 240.78125 183.148438 239.941406 182.871094 238.949219 C 182.609375 237.992188 182.777344 236.832031 182.777344 235.847656 C 182.777344 235.179688 182.941406 234.460938 183.195312 233.777344 C 182.382812 233.332031 181.566406 232.832031 180.753906 232.339844 C 180.574219 233.574219 180.574219 234.855469 180.777344 236.21875 C 181.21875 239.175781 181.519531 242.648438 181.984375 246.097656 C 182.214844 246.074219 182.429688 246.027344 182.609375 246.050781 C 194.765625 242.207031 207.089844 235.945312 218.351562 230.125 C 224.703125 226.84375 230.222656 222.28125 236.359375 218.605469 C 242.59375 214.894531 249.222656 211.242188 254.226562 205.867188 C 274.628906 183.945312 287.886719 149.484375 288.449219 120.292969 Z M 300.617188 48.132812 C 302.195312 47.199219 303.550781 46.121094 304.636719 44.851562 C 296.703125 38.515625 284.140625 37.390625 274.792969 37.390625 C 260.652344 37.390625 248.925781 38.300781 236.359375 44.613281 C 237.640625 46.289062 238.730469 48.132812 239.636719 50.082031 C 251.089844 46.074219 259.742188 42.933594 272.460938 43.078125 C 281.867188 43.1875 292.21875 42.613281 300.425781 47.988281 C 300.496094 48.035156 300.546875 48.082031 300.617188 48.132812 Z M 306.730469 67.242188 C 306.945312 66.03125 307.292969 64.847656 307.664062 63.695312 C 298.941406 69.15625 288.21875 66.628906 278.792969 70.199219 C 279.941406 71.238281 281.027344 72.316406 282.046875 73.382812 C 288.820312 68.679688 297.839844 67.421875 306.730469 67.242188 Z M 307.761719 51.902344 C 307.546875 51.386719 307.292969 50.898438 307.078125 50.382812 C 304.6875 53.292969 298.65625 53.976562 295.542969 54.96875 C 286.257812 57.902344 276.746094 59.960938 267.484375 62.835938 C 255.757812 66.449219 243.777344 66.773438 231.980469 69.753906 C 226.378906 70.292969 223.722656 74.292969 224.070312 81.742188 C 226.261719 80.949219 228.496094 80.28125 230.773438 79.742188 C 234.386719 78.4375 238.011719 77.132812 241.660156 75.945312 C 247.789062 73.921875 254.105469 71.660156 260.433594 70.496094 C 261.320312 68.332031 262.410156 66.28125 263.640625 65.539062 C 267.066406 63.542969 270.832031 64.558594 274.351562 66.773438 C 278.394531 64.894531 283.027344 64.570312 287.492188 64.285156 C 292.359375 63.960938 300.292969 63.121094 304.457031 60.1875 C 303.621094 60.8125 305.988281 55.832031 307.761719 51.902344 Z M 321.113281 94.167969 C 321.210938 94.109375 326.835938 92.265625 331.71875 89.847656 C 320.421875 82.792969 305.738281 84.722656 292.984375 86.722656 C 293.59375 87.65625 294.191406 88.589844 294.753906 89.558594 C 296.40625 92.433594 296.40625 95.894531 297.757812 98.828125 C 305.570312 97.367188 313.578125 96.597656 321.113281 94.167969 Z M 340.261719 77.992188 C 352.144531 87.03125 334.769531 94.875 326.535156 97.570312 C 313.851562 101.710938 300.640625 102.8125 287.824219 106.417969 C 281.28125 108.261719 273.515625 109.84375 267.675781 113.492188 C 253.363281 122.484375 265.558594 122.414062 269.003906 122.175781 C 270.558594 121.179688 272.1875 120.34375 273.886719 119.660156 C 295.171875 112.105469 317.128906 106.320312 338.511719 99.316406 C 354.679688 94.011719 352.707031 81 340.019531 75.921875 C 332.972656 73.082031 326.019531 72.710938 318.484375 72.710938 C 307.890625 72.710938 294.800781 71.179688 285.394531 77.105469 C 285.660156 77.394531 285.910156 77.695312 286.164062 77.96875 C 287.382812 79.371094 288.589844 80.832031 289.777344 82.304688 C 289.824219 82.304688 289.847656 82.253906 289.894531 82.253906 C 305.152344 79.835938 322.492188 77.035156 335.75 86.613281 C 335.976562 86.769531 336.144531 86.960938 336.289062 87.164062 C 338.609375 85.464844 339.699219 83.679688 337.773438 82.230469 C 335.28125 80.328125 337.746094 76.042969 340.261719 77.992188 Z M 351.28125 179.515625 C 349.257812 167.804688 347.453125 155.914062 346.003906 144.203125 C 344.199219 129.789062 345.058594 116.714844 345.515625 102.273438 C 340.070312 104.667969 333.703125 105.949219 328.1875 107.914062 C 323.722656 109.496094 319.441406 111.613281 314.832031 112.679688 C 307.664062 114.355469 300.546875 116.644531 293.425781 118.808594 C 293.304688 135.871094 286.75 151.582031 282.261719 169.109375 C 278.984375 181.933594 269.300781 196.480469 260.339844 206.117188 C 254.96875 211.878906 248.898438 216.667969 242.128906 220.703125 C 235.101562 224.894531 228.355469 231.082031 220.839844 234.292969 C 208.109375 239.691406 196.152344 247.007812 182.871094 251.078125 C 183.289062 252.851562 183.804688 254.539062 184.523438 256.058594 C 199.742188 248.050781 220.300781 248.5625 236.957031 251.378906 C 251.339844 253.820312 268.140625 259.292969 276.277344 272.582031 C 277.140625 272.28125 278.050781 272.03125 278.933594 271.792969 C 286.355469 269.816406 293.75 267.722656 301.132812 265.601562 C 297.445312 227.730469 308.875 186.039062 351.28125 179.515625 Z M 352.5625 186.664062 C 352.382812 185.871094 352.214844 185.105469 352.082031 184.316406 C 312.59375 190.0625 302.9375 229.730469 305.941406 264.199219 C 307.269531 263.804688 308.621094 263.410156 309.949219 263.015625 C 304.457031 231.082031 316.292969 191.835938 352.5625 186.664062 Z M 360.710938 214.835938 C 360.449219 212.058594 359.96875 209.316406 359.082031 206.800781 C 357.335938 201.675781 355.335938 196.601562 353.816406 191.414062 C 320.503906 196.230469 309.734375 232.269531 314.6875 261.601562 C 315.875 261.265625 317.082031 260.945312 318.230469 260.574219 C 324.441406 258.730469 330.652344 256.597656 336.71875 254.40625 C 347.929688 250.382812 357.730469 248.421875 360.195312 235.574219 C 357.550781 236.636719 354.679688 236.902344 351.890625 237.667969 C 348.363281 238.6875 344.628906 239.535156 340.980469 239.8125 C 335.953125 240.230469 331.539062 240.578125 329.671875 235.25 C 327.578125 229.285156 329.144531 226.558594 334.71875 224.796875 C 343.539062 222.019531 352.800781 219.792969 360.710938 214.835938 Z M 360.78125 230.078125 C 360.878906 227 361.007812 223.695312 360.984375 220.390625 C 357.433594 222.355469 353.710938 223.933594 349.84375 225.191406 C 347.929688 225.816406 333.441406 229.121094 333.703125 231.308594 C 334.46875 237.175781 342.84375 234.878906 346.984375 233.871094 C 350.683594 232.960938 356.378906 232.339844 359.550781 230.425781 C 359.96875 230.148438 360.386719 230.078125 360.78125 230.078125 Z M 313.265625 271.324219 C 324.667969 268.65625 364.359375 261.664062 363.054688 245.535156 C 358.734375 254.503906 346.769531 256.527344 338.046875 259.171875 C 329.765625 261.675781 321.535156 264.320312 313.277344 266.90625 C 313.230469 266.90625 313.207031 266.929688 313.15625 266.929688 C 309.292969 268.140625 305.425781 269.324219 301.527344 270.464844 C 287.707031 274.523438 275.296875 279.480469 262.0625 284.925781 C 234.015625 296.492188 207.808594 315.542969 176.410156 315.542969 C 149.414062 315.542969 123.796875 313.925781 97.328125 308.476562 C 84.273438 305.785156 49.75 299.425781 44.867188 282.6875 C 31.296875 294.492188 65.472656 307.269531 74.410156 310.296875 C 92.851562 316.535156 112.007812 320.894531 131.550781 320.894531 C 151.832031 320.894531 173.679688 323.46875 193.414062 318.511719 C 203.523438 315.996094 215.371094 313.949219 224.441406 308.503906 C 251.914062 291.980469 282.09375 278.570312 313.265625 271.324219 Z M 364.777344 278.292969 C 366.335938 271.566406 367.925781 261.640625 365.785156 254.058594 C 357.875 265.746094 333.464844 272.164062 322.71875 274.355469 C 303.179688 278.339844 286.1875 285.597656 267.410156 292.027344 C 249.523438 298.191406 234.433594 312.621094 216.003906 317.300781 C 209.507812 318.980469 203.058594 322.332031 196.320312 323.097656 C 185.382812 324.355469 176.074219 325.828125 164.933594 325.828125 C 139.015625 325.828125 114.773438 326.378906 89.667969 319.566406 C 80.382812 317.050781 50.074219 307.757812 39.445312 296.144531 C 39.039062 298.589844 38.667969 301.078125 38.347656 303.472656 C 37.746094 307.757812 41.566406 308.742188 44.699219 311.0625 C 52.515625 316.777344 62.804688 321.613281 72.078125 324.570312 C 75.273438 323.191406 78.601562 320.847656 82.226562 321.539062 C 83.660156 321.792969 84.941406 323.359375 85.359375 324.664062 C 85.71875 325.753906 86.234375 326.785156 86.558594 327.875 C 90.671875 327.851562 95.160156 327.875 98.808594 329.648438 C 101.539062 331.011719 104.074219 331.132812 106.839844 332.066406 C 109.722656 333.046875 109.589844 331.671875 111.421875 330.246094 C 116.246094 326.472656 121.894531 327.996094 122.910156 334.460938 C 128.34375 335.441406 143.203125 337.882812 143.898438 336.507812 C 145.550781 333.203125 147.546875 331.109375 151.582031 331.109375 C 156.882812 331.109375 155.207031 336.925781 159.5625 336.925781 C 165.925781 336.925781 172.257812 336.972656 178.585938 336.578125 C 179.269531 330.855469 183.289062 325.898438 189.917969 328.617188 C 190.902344 329.035156 191.941406 329.800781 192.503906 330.738281 C 193.710938 332.832031 193.019531 334.066406 196.273438 332.902344 C 200.832031 331.273438 205.570312 331.132812 210.046875 329.800781 C 209.972656 326.175781 210.371094 322.703125 214.605469 321.539062 C 217.273438 320.796875 220.769531 323.683594 220.742188 323.683594 C 235.378906 313.925781 254.199219 310.5625 270.019531 303.148438 C 273.597656 301.472656 284.976562 294.492188 287.753906 300.335938 C 290.171875 305.414062 285.816406 309.183594 292.636719 307.6875 C 297.710938 306.550781 304.195312 306.058594 309.414062 304.453125 C 309.363281 303.101562 309.484375 302.035156 310.203125 300.753906 C 311.015625 299.257812 312.882812 299.257812 314.066406 300.242188 C 316.042969 301.894531 315.695312 303.054688 318.648438 302.085938 C 321.1875 301.246094 323.746094 300.40625 326.34375 299.75 C 328.605469 299.152344 330.746094 298.730469 333.019531 298.382812 C 333.703125 298.265625 334.421875 298.242188 335.113281 298.289062 C 333.929688 293.632812 339.699219 292.914062 342.402344 296.144531 C 342.425781 296.167969 342.425781 296.21875 342.484375 296.242188 C 351.171875 295.558594 363.078125 285.621094 364.777344 278.292969 Z M 368.25 247.332031 C 373.8125 256.597656 372.390625 273.660156 368.25 283.105469 C 365.484375 289.34375 362.480469 291.714844 356.269531 295.078125 C 351.316406 297.773438 346.148438 301.917969 340.261719 301.175781 C 340.238281 301.175781 340.238281 301.152344 340.210938 301.152344 C 340.070312 301.449219 339.84375 301.761719 339.472656 302.085938 C 337.03125 304.277344 332.625 303.199219 329.597656 303.988281 C 325.601562 305.019531 321.066406 307.4375 317 307.734375 C 316.042969 307.808594 315.324219 307.734375 314.738281 307.554688 C 314.617188 307.664062 314.535156 307.757812 314.390625 307.808594 C 309.78125 309.808594 304.878906 309.652344 300.054688 310.933594 C 296.355469 311.925781 292.636719 313.28125 288.84375 313.746094 C 288.472656 314.367188 287.824219 314.789062 286.867188 314.738281 C 283.914062 314.535156 281.230469 313.253906 279.089844 311.207031 C 277.332031 309.554688 275.046875 309.015625 273.488281 307.222656 C 271.71875 307.902344 269.949219 308.597656 268.140625 309.292969 C 259.40625 312.667969 250.457031 315.625 241.875 319.421875 C 235.867188 322.105469 227.566406 323.730469 222.910156 328.390625 C 222.121094 329.15625 220.886719 329.324219 219.929688 328.761719 C 217.980469 326.988281 216.351562 327.804688 215 331.15625 C 215.046875 332.507812 214.1875 333.25 213.179688 333.441406 C 212.882812 333.835938 212.535156 334.183594 211.972656 334.363281 C 208.503906 335.515625 204.851562 335.25 201.382812 336.351562 C 198.390625 337.320312 195.757812 338.398438 192.613281 338.304688 C 191.105469 338.28125 189.355469 337.371094 188.808594 335.933594 C 188.066406 333.992188 184.03125 331.324219 183.503906 335.046875 C 183.386719 336.207031 183.339844 337.394531 183.386719 338.542969 C 183.410156 339.90625 182.5 340.648438 181.496094 340.839844 C 181.125 341.164062 180.683594 341.378906 180.121094 341.429688 C 172.449219 342.003906 164.816406 341.726562 157.15625 341.90625 C 155.972656 341.929688 154.1875 341.1875 153.304688 340.304688 C 153.183594 340.183594 149.042969 331.40625 148.386719 338.914062 C 148.15625 341.632812 145.8125 342.21875 143.550781 342.375 C 136.324219 342.816406 127.195312 340.398438 119.894531 338.867188 C 118.363281 338.542969 117.933594 337.214844 118.21875 336.066406 C 118.21875 336.015625 118.195312 335.992188 118.195312 335.933594 C 117.488281 330.878906 113.5625 336.183594 112.03125 337.070312 C 110.679688 337.859375 108.632812 337.882812 107.1875 337.394531 C 99.765625 334.855469 92.300781 332.832031 84.414062 332.808594 C 82.789062 332.808594 81.996094 331.480469 82.058594 330.222656 C 82.058594 330.199219 82.058594 330.199219 82.058594 330.160156 C 81.878906 328.953125 81.171875 328.078125 80.875 326.941406 C 80.644531 326.03125 80.644531 326.222656 79.738281 326.546875 C 77.5 327.359375 75.378906 328.496094 73.179688 329.429688 C 72.542969 329.695312 72.019531 329.671875 71.585938 329.480469 C 71.382812 329.480469 71.242188 329.503906 71.035156 329.429688 C 58.890625 325.574219 48.445312 319.171875 37.902344 312.320312 C 35.4375 310.71875 32.160156 308.574219 33.019531 305.148438 C 34.324219 300.011719 34.601562 294.660156 35.855469 289.535156 C 35.535156 287.691406 35.855469 285.8125 36.921875 283.921875 C 27.695312 280.832031 19.128906 275.804688 10.5 271.46875 C 1.335938 266.882812 4.863281 258.597656 5.570312 249.796875 C 5.617188 249.210938 5.871094 248.765625 6.191406 248.394531 C 6.015625 242.480469 8.898438 235.082031 13.601562 233.96875 C 13.898438 224.820312 19.941406 216.535156 23.183594 207.496094 C 27.757812 194.816406 53.183594 190.363281 63.941406 187.007812 C 82.5 181.238281 103.070312 180.003906 121.125 173.046875 C 125.0625 171.550781 128.84375 169.769531 132.457031 167.804688 C 131.894531 166.5 131.332031 165.183594 130.757812 163.9375 C 129.40625 161.097656 133.644531 158.585938 134.996094 161.46875 C 135.59375 162.703125 136.15625 164.007812 136.71875 165.335938 C 138.453125 164.296875 140.105469 163.195312 141.746094 162.058594 C 141.949219 160.847656 142.761719 159.613281 144.160156 159.722656 C 144.414062 159.746094 144.628906 159.757812 144.855469 159.816406 C 149.210938 156.511719 153.304688 152.863281 157.15625 148.945312 C 157.023438 147.664062 156.976562 146.347656 157.097656 145.019531 C 157.300781 142.898438 159.644531 141.761719 161.320312 143.296875 C 161.511719 143.476562 161.679688 143.640625 161.882812 143.832031 C 163.859375 141.59375 165.75 139.273438 167.566406 136.890625 C 167.566406 135.65625 167.792969 134.375 168.238281 133.011719 C 168.65625 131.765625 169.9375 130.890625 171.265625 131.285156 C 171.359375 131.320312 171.46875 131.371094 171.5625 131.394531 C 173.441406 128.699219 175.214844 125.945312 176.9375 123.132812 C 176.566406 121.132812 176.804688 119.109375 177.964844 117.085938 C 179.078125 115.144531 180.382812 114.425781 181.914062 114.332031 C 184.03125 110.378906 185.996094 106.371094 187.824219 102.296875 C 186.710938 100 186.148438 97.496094 186.472656 94.707031 C 186.570312 93.894531 186.867188 92.921875 187.707031 92.5625 C 189.105469 91.964844 190.636719 91.773438 192.21875 91.871094 C 196.273438 81.585938 199.574219 71.132812 202.292969 60.953125 C 205.117188 50.335938 209.484375 34.480469 224.117188 36.9375 C 227.539062 37.535156 230.402344 38.960938 232.792969 40.910156 C 249.078125 32.375 263.652344 32.457031 281.949219 32.457031 C 290.542969 32.457031 302.757812 36.253906 309.414062 42.445312 C 314.246094 44.046875 315.453125 51.316406 313.921875 56.441406 C 313.949219 56.667969 313.972656 56.859375 313.972656 57.113281 C 313.972656 60.761719 312.296875 63.816406 311.648438 67.242188 C 315.550781 67.3125 319.34375 67.515625 322.789062 67.636719 C 332.554688 67.984375 348.492188 69.957031 353.472656 79.691406 C 357.167969 86.914062 356.105469 94.613281 350.433594 99.390625 C 350.457031 99.53125 350.539062 99.664062 350.515625 99.832031 C 350.242188 109.792969 348.886719 119.660156 348.886719 129.609375 C 348.886719 137.5 351.449219 145.988281 352.679688 153.746094 C 355.363281 170.4375 357.214844 186.242188 362.757812 202.3125 C 366.40625 212.894531 367.195312 225.886719 365.246094 237.320312 C 367.589844 240.925781 368.476562 244.253906 368.226562 247.308594 C 368.25 247.332031 368.25 247.332031 368.25 247.332031 Z M 268.070312 143.570312 C 266.347656 143.546875 264.789062 142.179688 263.488281 140.457031 C 263.296875 141.523438 263.066406 142.578125 262.851562 143.640625 C 264.550781 143.714844 266.273438 143.714844 268.070312 143.570312 Z M 264.445312 168.296875 C 264.445312 168.296875 264.394531 168.367188 264.050781 168.5 C 262.746094 168.964844 261.464844 170.269531 261.8125 171.503906 C 262.109375 172.511719 263.019531 173.648438 263.929688 173.957031 C 265.042969 174.328125 265.257812 174.328125 265.6875 173.527344 C 266.023438 172.484375 266.296875 170.738281 265.734375 169.851562 C 265.4375 169.347656 265.019531 168.835938 264.550781 168.4375 C 264.445312 168.367188 264.445312 168.320312 264.445312 168.296875 Z M 248.636719 192.78125 C 248.851562 192.625 249.101562 192.457031 249.320312 192.3125 C 250.457031 191.476562 250.730469 190.386719 250.480469 189.03125 C 250.359375 188.316406 250.433594 188.085938 249.882812 188.21875 C 249.152344 188.386719 248.433594 188.636719 247.691406 188.902344 C 247.621094 188.925781 247.523438 188.949219 247.429688 188.984375 C 247.546875 189.273438 247.644531 189.621094 247.644531 190.015625 C 247.667969 190.757812 247.691406 191.523438 248.132812 192.132812 C 248.433594 192.554688 248.828125 192.554688 248.636719 192.78125"/></g></svg>